{
.appVersion = "3436";
.formatVersion = 3;
axes = (
{
name = Weight;
tag = wght;
}
);
classes = (
{
automatic = 1;

glyphs = (
{
glyphname = A;
kernLeft = KO_A;
kernRight = KO_A;
lastChange = "2026-06-14 22:20:33 +0000";
layers = (
{
anchors = (
{
name = bottom;
pos = (353,0);
},
{
name = ogonek;
pos = (643,0);
},
{
name = top;
pos = (355,760);
}
);
guides = (
{
angle = 90;
pos = (353,515);
}
);
layerId = m01;
shapes = (
{
closed = 1;
nodes = (
(91,0,l),
(367,690,l),
(338,690,l),
(614,0,l),
(671,0,l),
(367,760,l),
(342,760,l),
(38,0,l)
);
},
{
closed = 1;
nodes = (
(546,225,l),
(546,273,l),
(161,273,l),
(161,225,l)
);
}
);
width = 709;
},
{
anchors = (
{
name = bottom;
pos = (381,0);
},
{
name = ogonek;
pos = (713,0);
},
{
name = top;
pos = (381,760);
}
);
guides = (
{
angle = 90;
pos = (381,383);
}
);
layerId = "7F4E18E3-41A5-4521-AA8A-AE39B7B68B38";
shapes = (
{
closed = 1;
nodes = (
(205,0,l),
(419,647,l),
(339,647,l),
(553,0,l),
(752,0,l),
(475,760,l),
(292,760,l),
(15,0,l)
);
},
{
closed = 1;
nodes = (
(630,133,l),
(630,291,l),
(151,291,l),
(151,133,l)
);
}
);
width = 767;
},
{
associatedMasterId = m01;
backgroundImage = {
imagePath = "/var/folders/5k/6t5s5z6x64zbq6w952rby05w0000gn/T/TemporaryItems/NSIRD_screencaptureui_xW5Qwc/Screenshot 2024-11-20 at 2.40.03 pm.png";
locked = 1;
pos = (-112,-240);
scale = (5.5669,5.5669);
};
layerId = "A441C58E-38EE-4E48-A4BE-29C1667CA81E";
name = "20 Nov 24 at 14:43";
shapes = (
{
closed = 1;
nodes = (
(64,0,l),
(316,630,l),
(305,630,l),
(557,0,l),
(611,0,l),
(331,700,l),
(290,700,l),
(10,0,l)
);
},
{
closed = 1;
nodes = (
(500,199,l),
(500,246,l),
(135,246,l),
(135,199,l)
);
}
);
width = 621;
},
{
associatedMasterId = "7F4E18E3-41A5-4521-AA8A-AE39B7B68B38";
layerId = "BDB16158-8E1A-42A8-8FC3-6BD1887858D2";
name = "20 Nov 24 at 18:36";
shapes = (
{
closed = 1;
nodes = (
(249,0,l),
(441,630,l),
(351,630,l),
(543,0,l),
(776,0,l),
(556,700,l),
(235,700,l),
(15,0,l)
);
},
{
closed = 1;
nodes = (
(578,103,l),
(578,273,l),
(213,273,l),
(213,103,l)
);
}
);
width = 791;
},
{
anchors = (
{
name = bottom;
pos = (321,0);
},
{
name = ogonek;
pos = (587,0);
},
{
name = top;
pos = (310,760);
}
);
associatedMasterId = m01;
layerId = "12B3E601-DFBF-4B44-9521-A52FC999F646";
name = "30 Nov 24 at 11:01";
shapes = (
{
closed = 1;
nodes = (
(50,0,l),
(326,690,l),
(293,690,l),
(569,0,l),
(625,0,l),
(321,760,l),
(300,760,l),
(-4,0,l)
);
},
{
closed = 1;
nodes = (
(503,225,l),
(503,273,l),
(118,273,l),
(118,225,l)
);
}
);
width = 641;
},
{
anchors = (
{
name = bottom;
pos = (391,0);
},
{
name = ogonek;
pos = (772,0);
},
{
name = top;
pos = (391,760);
}
);
associatedMasterId = "7F4E18E3-41A5-4521-AA8A-AE39B7B68B38";
guides = (
{
angle = 90;
pos = (391,377);
}
);
layerId = "6558371B-1069-4FED-BFD4-F9C5322AC0A6";
name = "30 Nov 24 at 11:15";
shapes = (
{
closed = 1;
nodes = (
(244,0,l),
(424,690,l),
(358,690,l),
(538,0,l),
(772,0,l),
(544,760,l),
(238,760,l),
(10,0,l)
);
},
{
closed = 1;
nodes = (
(635,123,l),
(635,313,l),
(156,313,l),
(156,123,l)
);
}
);
width = 801;
},
{
anchors = (
{
name = bottom;
pos = (336,0);
},
{
name = ogonek;
pos = (602,0);
},
{
name = top;
pos = (325,760);
}
);
associatedMasterId = m01;
guides = (
{
angle = 90;
pos = (325,515);
}
);
layerId = "7E810B9B-E30D-4AB9-843F-DED2F65538C7";
name = "5 Dec 24 at 12:23";
shapes = (
{
closed = 1;
nodes = (
(64,0,l),
(340,690,l),
(308,690,l),
(584,0,l),
(640,0,l),
(330,776,l),
(320,776,l),
(10,0,l)
);
},
{
closed = 1;
nodes = (
(518,225,l),
(518,275,l),
(133,275,l),
(133,225,l)
);
}
);
width = 650;
},
{
anchors = (
{
name = bottom;
pos = (379,0);
},
{
name = ogonek;
pos = (722,0);
},
{
name = top;
pos = (379,760);
}
);
associatedMasterId = "7F4E18E3-41A5-4521-AA8A-AE39B7B68B38";
guides = (
{
angle = 90;
pos = (379,383);
}
);
layerId = "816DE4EC-1D52-4C10-982E-587670B1995C";
name = "13 Dec 24 at 14:27";
shapes = (
{
closed = 1;
nodes = (
(187,0,l),
(407,690,l),
(351,690,l),
(571,0,l),
(761,0,l),
(499,760,l),
(268,760,l),
(5,0,l)
);
},
{
closed = 1;
nodes = (
(628,145,l),
(628,303,l),
(149,303,l),
(149,145,l)
);
}
);
width = 766;
},
{
anchors = (
{
name = bottom;
pos = (336,0);
},
{
name = ogonek;
pos = (615,0);
},
{
name = top;
pos = (325,760);
}
);
associatedMasterId = m01;
guides = (
{
angle = 90;
pos = (325,515);
}
);
layerId = "AB663B17-E4CA-428A-921A-A771882AFE7C";
name = "22 Jan 25 at 07:59";
shapes = (
{
closed = 1;
nodes = (
(62,0,l),
(338,690,l),
(308,690,l),
(584,0,l),
(640,0,l),
(330,776,l),
(320,776,l),
(10,0,l)
);
},
{
closed = 1;
nodes = (
(518,225,l),
(518,275,l),
(133,275,l),
(133,225,l)
);
}
);
width = 650;
},
{
anchors = (
{
name = bottom;
pos = (379,0);
},
{
name = ogonek;
pos = (722,0);
},
{
name = top;
pos = (379,760);
}
);
associatedMasterId = "7F4E18E3-41A5-4521-AA8A-AE39B7B68B38";
guides = (
{
angle = 90;
pos = (379,383);
}
);
layerId = "26A11F45-BF21-4736-A7FD-00A95CBFF00F";
name = "22 Jan 25 at 08:06";
shapes = (
{
closed = 1;
nodes = (
(192,0,l),
(412,690,l),
(346,690,l),
(566,0,l),
(761,0,l),
(499,760,l),
(268,760,l),
(5,0,l)
);
},
{
closed = 1;
nodes = (
(628,145,l),
(628,303,l),
(149,303,l),
(149,145,l)
);
}
);
width = 766;
},
{
anchors = (
{
name = bottom;
pos = (341,0);
},
{
name = ogonek;
pos = (620,0);
},
{
name = top;
pos = (330,760);
}
);
associatedMasterId = m01;
guides = (
{
angle = 90;
pos = (330,515);
}
);
layerId = "9EB00665-5BE1-4631-BD94-CF4FEA734286";
name = "2 Feb 25 at 10:59";
shapes = (
{
closed = 1;
nodes = (
(68,0,l),
(344,690,l),
(313,690,l),
(589,0,l),
(645,0,l),
(341,760,l),
(319,760,l),
(15,0,l)
);
},
{
closed = 1;
nodes = (
(523,225,l),
(523,275,l),
(138,275,l),
(138,225,l)
);
}
);
width = 660;
},
{
anchors = (
{
name = bottom;
pos = (369,0);
},
{
name = ogonek;
pos = (712,0);
},
{
name = top;
pos = (369,760);
}
);
associatedMasterId = "7F4E18E3-41A5-4521-AA8A-AE39B7B68B38";
guides = (
{
angle = 90;
pos = (369,383);
}
);
layerId = "5C6B0E94-4B11-42DA-8A0F-1B3B473B6575";
name = "23 Feb 25 at 16:11";
shapes = (
{
closed = 1;
nodes = (
(192,0,l),
(402,690,l),
(336,690,l),
(546,0,l),
(741,0,l),
(489,760,l),
(258,760,l),
(5,0,l)
);
},
{
closed = 1;
nodes = (
(618,145,l),
(618,303,l),
(139,303,l),
(139,145,l)
);
}
);
width = 746;
},
{
anchors = (
{
name = bottom;
pos = (376,0);
},
{
name = ogonek;
pos = (719,0);
},
{
name = top;
pos = (376,760);
}
);
associatedMasterId = "7F4E18E3-41A5-4521-AA8A-AE39B7B68B38";
guides = (
{
angle = 90;
pos = (376,383);
}
);
layerId = "17C78E29-1F1C-4479-BD53-0539DEDFF599";
name = "3 Mar 25 at 19:54";
shapes = (
{
closed = 1;
nodes = (
(200,0,l),
(414,647,l),
(330,647,l),
(544,0,l),
(747,0,l),
(470,760,l),
(287,760,l),
(10,0,l)
);
},
{
closed = 1;
nodes = (
(625,133,l),
(625,291,l),
(146,291,l),
(146,133,l)
);
}
);
width = 757;
}
);
unicode = 65;
userData = {
KernOnName = A;
};
},
{
glyphname = "Alpha-latin";
lastChange = "2026-06-14 22:20:33 +0000";
layers = (
{
layerId = m01;
shapes = (
{
closed = 1;
nodes = (
(570,-16,o),
(677,68,o),
(725,198,c),
(713,212,l),
(708,58,o),
(750,0,o),
(872,0,cs),
(893,0,l),
(893,50,l),
(862,50,ls),
(791,50,o),
(767,82,o),
(767,176,cs),
(767,760,l),
(713,760,l),
(713,548,l),
(725,564,l),
(677,692,o),
(570,776,o),
(433,776,cs),
(226,776,o),
(80,613,o),
(80,381,cs),
(80,148,o),
(226,-16,o),
(433,-16,cs)
);
},
{
closed = 1;
nodes = (
(136,584,o),
(259,727,o),
(433,727,cs),
(597,727,o),
(713,589,o),
(713,392,cs),
(713,370,ls),
(713,172,o),
(597,33,o),
(433,33,cs),
(259,33,o),
(136,177,o),
(136,381,cs)
);
}
);
width = 931;
},
{
layerId = "7F4E18E3-41A5-4521-AA8A-AE39B7B68B38";
shapes = (
{
closed = 1;
nodes = (
(512,-16,o),
(595,38,o),
(645,137,c),
(621,137,l),
(641,40,o),
(710,0,o),
(851,0,cs),
(892,0,l),
(892,158,l),
(848,158,ls),
(817,158,o),
(799,176,o),
(799,208,cs),
(799,760,l),
(615,760,l),
(615,626,l),
(632,645,l),
(582,728,o),
(504,776,o),
(404,776,cs),
(196,776,o),
(49,613,o),
(49,380,cs),
(49,147,o),
(196,-16,o),
(404,-16,cs)
);
},
{
closed = 1;
nodes = (
(236,527,o),
(310,620,o),
(428,620,cs),
(543,620,o),
(615,529,o),
(615,383,cs),
(615,377,ls),
(615,231,o),
(543,140,o),
(428,140,cs),
(310,140,o),
(236,233,o),
(236,380,cs)
);
}
);
width = 907;
},
{
associatedMasterId = m01;
layerId = "8648DB34-86F2-4479-BA6E-C23D893E863E";
name = "25 Apr 26 at 17:26";
shapes = (
{
closed = 1;
nodes = (
(654,-16,o),
(795,143,o),
(795,370,c),
(753,370,l),
(753,172,o),
(629,33,o),
(453,33,cs),
(275,33,o),
(136,186,o),
(136,381,cs),
(136,575,o),
(275,727,o),
(453,727,cs),
(629,727,o),
(753,589,o),
(753,392,c),
(795,392,l),
(795,617,o),
(654,776,o),
(453,776,cs),
(234,776,o),
(80,613,o),
(80,381,cs),
(80,148,o),
(234,-16,o),
(453,-16,cs)
);
},
{
closed = 1;
nodes = (
(933,0,l),
(933,50,l),
(902,50,ls),
(831,50,o),
(807,82,o),
(807,176,cs),
(807,760,l),
(753,760,l),
(753,186,ls),
(753,52,o),
(797,0,o),
(912,0,c)
);
}
);
width = 933;
},
{
associatedMasterId = "7F4E18E3-41A5-4521-AA8A-AE39B7B68B38";
layerId = "9C7BAA61-14B2-46BF-8A23-88806F04C038";
name = "25 Apr 26 at 17:26";
shapes = (
{
closed = 1;
nodes = (
(598,-16,o),
(714,136,o),
(714,377,c),
(635,377,l),
(635,238,o),
(554,140,o),
(438,140,cs),
(314,140,o),
(236,233,o),
(236,380,cs),
(236,527,o),
(314,620,o),
(438,620,cs),
(554,620,o),
(635,522,o),
(635,383,c),
(714,383,l),
(714,624,o),
(598,776,o),
(414,776,cs),
(200,776,o),
(49,613,o),
(49,380,cs),
(49,147,o),
(200,-16,o),
(414,-16,cs)
);
},
{
closed = 1;
nodes = (
(912,0,l),
(912,158,l),
(868,158,ls),
(837,158,o),
(819,176,o),
(819,208,cs),
(819,760,l),
(635,760,l),
(635,208,ls),
(635,58,o),
(700,0,o),
(871,0,c)
);
}
);
width = 922;
},
{
associatedMasterId = m01;
layerId = "BD89BEBF-30B8-477D-B10F-97DD30040EF5";
name = "1 Jun 26 at 15:09";
shapes = (
{
closed = 1;
nodes = (
(622,-16,o),
(755,143,o),
(755,370,c),
(713,370,l),
(713,172,o),
(597,33,o),
(433,33,cs),
(259,33,o),
(136,177,o),
(136,381,cs),
(136,584,o),
(259,727,o),
(433,727,cs),
(597,727,o),
(713,589,o),
(713,392,c),
(755,392,l),
(755,617,o),
(622,776,o),
(433,776,cs),
(226,776,o),
(80,613,o),
(80,381,cs),
(80,148,o),
(226,-16,o),
(433,-16,cs)
);
},
{
closed = 1;
nodes = (
(893,0,l),
(893,50,l),
(862,50,ls),
(791,50,o),
(767,82,o),
(767,176,cs),
(767,760,l),
(713,760,l),
(713,186,ls),
(713,52,o),
(757,0,o),
(872,0,c)
);
}
);
width = 931;
},
{
associatedMasterId = "7F4E18E3-41A5-4521-AA8A-AE39B7B68B38";
layerId = "177CA26A-8761-4138-8365-3625B8D5C12F";
name = "1 Jun 26 at 15:09";
shapes = (
{
closed = 1;
nodes = (
(582,-16,o),
(694,136,o),
(694,377,c),
(615,377,l),
(615,231,o),
(543,140,o),
(428,140,cs),
(310,140,o),
(236,233,o),
(236,380,cs),
(236,527,o),
(310,620,o),
(428,620,cs),
(543,620,o),
(615,529,o),
(615,383,c),
(694,383,l),
(694,624,o),
(582,776,o),
(404,776,cs),
(196,776,o),
(49,613,o),
(49,380,cs),
(49,147,o),
(196,-16,o),
(404,-16,cs)
);
},
{
closed = 1;
nodes = (
(892,0,l),
(892,158,l),
(848,158,ls),
(817,158,o),
(799,176,o),
(799,208,cs),
(799,760,l),
(615,760,l),
(615,208,ls),
(615,58,o),
(680,0,o),
(851,0,c)
);
}
);
width = 907;
}
);
metricLeft = "=O";
metricRight = "=A";
unicode = 11373;
},
{
glyphname = Aringacute;
lastChange = "2026-06-14 22:20:33 +0000";
layers = (
{
anchors = (
{
name = top;
pos = (354,1046);
}
);
layerId = m01;
shapes = (
{
closed = 1;
nodes = (
(404,742,o),
(440,776,o),
(440,825,cs),
(440,874,o),
(404,908,o),
(354,908,cs),
(304,908,o),
(268,874,o),
(268,825,cs),
(268,776,o),
(304,742,o),
(354,742,cs)
);
},
{
ref = A;
},
{
closed = 1;
nodes = (
(323,771,o),
(301,793,o),
(301,825,cs),
(301,857,o),
(323,879,o),
(354,879,cs),
(385,879,o),
(407,857,o),
(407,825,cs),
(407,793,o),
(385,771,o),
(354,771,cs)
);
},
{
closed = 1;
nodes = (
(374,925,l),
(459,1046,l),
(404,1046,l),
(341,925,l)
);
}
);
width = 709;
},
{
anchors = (
{
name = top;
pos = (386,1102);
}
);
layerId = "7F4E18E3-41A5-4521-AA8A-AE39B7B68B38";
shapes = (
{
closed = 1;
nodes = (
(466,710,o),
(523,757,o),
(523,825,cs),
(523,893,o),
(466,940,o),
(385,940,cs),
(304,940,o),
(247,893,o),
(247,825,cs),
(247,757,o),
(304,710,o),
(385,710,cs)
);
},
{
ref = A;
},
{
closed = 1;
nodes = (
(355,786,o),
(334,802,o),
(334,825,cs),
(334,848,o),
(355,864,o),
(385,864,cs),
(415,864,o),
(436,848,o),
(436,825,cs),
(436,802,o),
(415,786,o),
(385,786,cs)
);
},
{
closed = 1;
nodes = (
(436,965,l),
(548,1102,l),
(423,1102,l),
(359,965,l)
);
}
);
width = 767;
}
);
unicode = 506;
},
{
glyphname = Astroke;
lastChange = "2026-06-14 22:20:33 +0000";
layers = (
{
layerId = m01;
shapes = (
{
ref = A;
},
{
closed = 1;
nodes = (
(189,-61,l),
(539,821,l),
(487,821,l),
(137,-61,l)
);
}
);
width = 709;
},
{
layerId = "7F4E18E3-41A5-4521-AA8A-AE39B7B68B38";
shapes = (
{
ref = A;
},
{
closed = 1;
nodes = (
(301,-61,l),
(594,821,l),
(506,821,l),
(213,-61,l)
);
}
);
width = 767;
}
);
metricLeft = "=A";
metricRight = "=A";
unicode = 570;
},
{
glyphname = AE;
kernLeft = KO_AE;
kernRight = KO_E;
lastChange = "2026-06-14 22:20:33 +0000";
layers = (
{
anchors = (
{
name = bottom;
pos = (536,0);
},
{
name = top;
pos = (668,760);
}
);
layerId = m01;
shapes = (
{
closed = 1;
nodes = (
(89,0,l),
(507,734,l),
(468,710,l),
(555,710,l),
(555,760,l),
(471,760,l),
(38,0,l)
);
},
{
closed = 1;
nodes = (
(556,225,l),
(556,275,l),
(219,275,l),
(200,225,l)
);
},
{
closed = 1;
nodes = (
(989,0,l),
(989,50,l),
(562,50,l),
(562,0,l)
);
},
{
closed = 1;
nodes = (
(590,0,l),
(590,760,l),
(537,760,l),
(537,0,l)
);
},
{
closed = 1;
nodes = (
(906,377,l),
(906,427,l),
(562,427,l),
(562,377,l)
);
},
{
closed = 1;
nodes = (
(980,710,l),
(980,760,l),
(562,760,l),
(562,710,l)
);
}
);
width = 1072;
},
{
anchors = (
{
name = bottom;
pos = (578,0);
},
{
name = top;
pos = (665,760);
}
);
layerId = "7F4E18E3-41A5-4521-AA8A-AE39B7B68B38";
shapes = (
{
closed = 1;
nodes = (
(213,0,l),
(596,733,l),
(468,603,l),
(665,603,l),
(665,760,l),
(434,760,l),
(15,0,l)
);
},
{
closed = 1;
nodes = (
(601,170,l),
(601,328,l),
(287,328,l),
(185,170,l)
);
},
{
closed = 1;
nodes = (
(1097,0,l),
(1097,158,l),
(634,158,l),
(634,0,l)
);
},
{
closed = 1;
nodes = (
(756,0,l),
(756,760,l),
(572,760,l),
(572,0,l)
);
},
{
closed = 1;
nodes = (
(1029,306,l),
(1029,464,l),
(634,464,l),
(634,306,l)
);
},
{
closed = 1;
nodes = (
(1088,602,l),
(1088,760,l),
(634,760,l),
(634,602,l)
);
}
);
width = 1155;
},
{
associatedMasterId = "7F4E18E3-41A5-4521-AA8A-AE39B7B68B38";
layerId = "FED66965-BB1F-4102-9355-6B68041E6CE2";
name = "8 Dec 24 at 22:29";
shapes = (
{
closed = 1;
nodes = (
(244,0,l),
(599,690,l),
(475,570,l),
(668,570,l),
(668,760,l),
(426,760,l),
(5,0,l)
);
},
{
closed = 1;
nodes = (
(686,138,l),
(686,323,l),
(207,323,l),
(207,138,l)
);
},
{
closed = 1;
nodes = (
(1139,0,l),
(1139,190,l),
(612,190,l),
(612,0,l)
);
},
{
closed = 1;
nodes = (
(817,0,l),
(817,760,l),
(587,760,l),
(587,0,l)
);
},
{
closed = 1;
nodes = (
(1076,290,l),
(1076,475,l),
(612,475,l),
(612,290,l)
);
},
{
closed = 1;
nodes = (
(1130,570,l),
(1130,760,l),
(612,760,l),
(612,570,l)
);
}
);
width = 1185;
}
);
metricLeft = "=A";
metricRight = "=E";
unicode = 198;
},
{
glyphname = B;
kernLeft = KO_N;
kernRight = KO_B;
lastChange = "2026-06-14 22:20:33 +0000";
layers = (
{
anchors = (
{
name = bottom;
pos = (359,0);
},
{
name = center;
pos = (185,208);
},
{
name = top;
pos = (320,760);
}
);
layerId = m01;
shapes = (
{
closed = 1;
nodes = (
(158,0,l),
(398,0,ls),
(566,0,o),
(660,75,o),
(660,208,cs),
(660,323,o),
(586,393,o),
(449,406,c),
(451,390,l),
(552,415,o),
(604,474,o),
(604,563,cs),
(604,689,o),
(510,760,o),
(342,760,cs),
(158,760,l),
(132,760,l),
(104,760,l),
(104,0,l),
(130,0,l)
);
},
{
closed = 1;
nodes = (
(158,368,l),
(388,368,ls),
(527,368,o),
(604,311,o),
(604,208,cs),
(604,105,o),
(530,48,o),
(398,48,cs),
(158,48,l)
);
},
{
closed = 1;
nodes = (
(158,712,l),
(342,712,ls),
(474,712,o),
(548,659,o),
(548,563,cs),
(548,469,o),
(471,416,o),
(332,416,cs),
(158,416,l)
);
}
);
width = 740;
},
{
anchors = (
{
name = bottom;
pos = (380,0);
},
{
name = center;
pos = (190,228);
},
{
name = top;
pos = (364,760);
}
);
layerId = "7F4E18E3-41A5-4521-AA8A-AE39B7B68B38";
shapes = (
{
closed = 1;
nodes = (
(256,0,l),
(406,0,ls),
(601,0,o),
(710,81,o),
(710,225,cs),
(710,324,o),
(658,389,o),
(556,420,c),
(559,393,l),
(632,424,o),
(668,478,o),
(668,555,cs),
(668,686,o),
(559,760,o),
(364,760,cs),
(256,760,l),
(148,760,l),
(72,760,l),
(72,0,l),
(190,0,l)
);
},
{
closed = 1;
nodes = (
(256,322,l),
(414,322,ls),
(484,322,o),
(523,293,o),
(523,240,cs),
(523,187,o),
(484,158,o),
(414,158,cs),
(256,158,l)
);
},
{
closed = 1;
nodes = (
(256,602,l),
(372,602,ls),
(445,602,o),
(481,578,o),
(481,531,cs),
(481,484,o),
(445,460,o),
(372,460,cs),
(256,460,l)
);
}
);
width = 759;
},
{
associatedMasterId = "7F4E18E3-41A5-4521-AA8A-AE39B7B68B38";
layerId = "6FA6AA45-548B-4E53-B4C0-F4143F21B732";
name = "30 Nov 24 at 11:06";
shapes = (
{
closed = 1;
nodes = (
(384,0,l),
(603,0,o),
(712,76,o),
(712,230,cs),
(712,384,o),
(603,460,o),
(384,460,cs),
(202,460,l),
(202,333,l),
(354,333,ls),
(433,333,o),
(477,298,o),
(477,236,cs),
(477,174,o),
(433,139,o),
(354,139,cs),
(202,139,l),
(202,0,l)
);
},
{
closed = 1;
nodes = (
(270,0,l),
(270,760,l),
(40,760,l),
(40,0,l)
);
},
{
closed = 1;
nodes = (
(339,403,l),
(558,403,o),
(667,464,o),
(667,586,cs),
(667,698,o),
(562,760,o),
(374,760,cs),
(157,760,l),
(157,621,l),
(309,621,ls),
(391,621,o),
(432,608,o),
(432,543,cs),
(432,478,o),
(391,462,o),
(309,462,cs),
(157,462,l),
(157,403,l)
);
}
);
width = 737;
},
{
associatedMasterId = m01;
layerId = "1E3C8C59-498E-4182-A056-934BF5AC32F8";
name = "30 Nov 24 at 11:13";
shapes = (
{
closed = 1;
nodes = (
(344,0,l),
(511,0,o),
(605,75,o),
(605,208,cs),
(605,341,o),
(511,415,o),
(344,415,cs),
(101,415,l),
(101,367,l),
(334,367,l),
(484,367,o),
(550,319,o),
(550,208,cs),
(550,97,o),
(484,48,o),
(334,48,cs),
(106,48,l),
(106,0,l)
);
},
{
closed = 1;
nodes = (
(133,0,l),
(133,760,l),
(80,760,l),
(80,0,l)
);
},
{
closed = 1;
nodes = (
(291,387,l),
(465,387,o),
(552,446,o),
(552,564,cs),
(552,690,o),
(458,760,o),
(291,760,cs),
(121,760,l),
(121,712,l),
(281,712,l),
(431,712,o),
(497,667,o),
(497,564,cs),
(497,460,o),
(431,415,o),
(281,415,cs),
(122,415,l),
(122,387,l)
);
}
);
width = 655;
},
{
associatedMasterId = "7F4E18E3-41A5-4521-AA8A-AE39B7B68B38";
layerId = "3A242D44-247B-4FB7-8106-4F37C831C274";
name = "30 Nov 24 at 11:17";
shapes = (
{
closed = 1;
nodes = (
(394,0,l),
(613,0,o),
(722,76,o),
(722,230,cs),
(722,367,o),
(613,435,o),
(394,435,cs),
(85,435,l),
(85,300,l),
(384,300,ls),
(456,300,o),
(487,280,o),
(487,235,cs),
(487,190,o),
(456,170,o),
(384,170,cs),
(212,170,l),
(212,0,l)
);
},
{
closed = 1;
nodes = (
(270,0,l),
(270,760,l),
(40,760,l),
(40,0,l)
);
},
{
closed = 1;
nodes = (
(364,350,l),
(574,350,o),
(692,422,o),
(692,550,cs),
(692,696,o),
(592,760,o),
(364,760,cs),
(182,760,l),
(182,590,l),
(354,590,ls),
(428,590,o),
(457,573,o),
(457,528,cs),
(457,482,o),
(428,465,o),
(354,465,cs),
(85,465,l),
(85,350,l)
);
}
);
width = 747;
},
{
associatedMasterId = "7F4E18E3-41A5-4521-AA8A-AE39B7B68B38";
layerId = "7BA13E0C-1446-4E35-8523-E99BFAB4F7D9";
name = "2 Dec 24 at 11:48";
shapes = (
{
closed = 1;
nodes = (
(384,0,l),
(603,0,o),
(712,76,o),
(712,230,cs),
(712,360,o),
(603,425,o),
(384,425,cs),
(85,425,l),
(85,295,l),
(374,295,ls),
(448,295,o),
(477,278,o),
(477,235,cs),
(477,192,o),
(448,175,o),
(374,175,cs),
(212,175,l),
(212,0,l)
);
},
{
closed = 1;
nodes = (
(270,0,l),
(270,760,l),
(40,760,l),
(40,0,l)
);
},
{
closed = 1;
nodes = (
(354,360,l),
(564,360,o),
(682,428,o),
(682,550,cs),
(682,696,o),
(582,760,o),
(354,760,cs),
(182,760,l),
(182,585,l),
(344,585,ls),
(418,585,o),
(447,569,o),
(447,528,cs),
(447,486,o),
(418,470,o),
(344,470,cs),
(85,470,l),
(85,360,l)
);
}
);
width = 737;
},
{
associatedMasterId = "7F4E18E3-41A5-4521-AA8A-AE39B7B68B38";
layerId = "D1DA04C3-B4D2-45E8-8326-ADE2224932AF";
name = "4 Dec 24 at 16:32";
shapes = (
{
closed = 1;
nodes = (
(384,0,l),
(603,0,o),
(712,76,o),
(712,230,cs),
(712,347,o),
(603,405,o),
(384,405,cs),
(85,405,l),
(85,305,l),
(374,305,ls),
(446,305,o),
(477,285,o),
(477,240,cs),
(477,195,o),
(446,175,o),
(374,175,cs),
(212,175,l),
(212,0,l)
);
},
{
closed = 1;
nodes = (
(270,0,l),
(270,760,l),
(40,760,l),
(40,0,l)
);
},
{
closed = 1;
nodes = (
(354,380,l),
(564,380,o),
(682,441,o),
(682,550,cs),
(682,696,o),
(582,760,o),
(354,760,cs),
(182,760,l),
(182,585,l),
(344,585,ls),
(416,585,o),
(447,566,o),
(447,523,cs),
(447,479,o),
(416,460,o),
(344,460,cs),
(85,460,l),
(85,380,l)
);
}
);
width = 737;
},
{
associatedMasterId = "7F4E18E3-41A5-4521-AA8A-AE39B7B68B38";
layerId = "84CF9D60-4CBF-41E4-85DB-A191409B0B2D";
name = "5 Dec 24 at 15:34";
shapes = (
{
closed = 1;
nodes = (
(390,0,l),
(609,0,o),
(718,76,o),
(718,230,cs),
(718,350,o),
(609,409,o),
(390,409,cs),
(91,409,l),
(91,305,l),
(380,305,ls),
(452,305,o),
(483,285,o),
(483,240,cs),
(483,195,o),
(452,175,o),
(380,175,cs),
(218,175,l),
(218,0,l)
);
},
{
closed = 1;
nodes = (
(276,0,l),
(276,760,l),
(46,760,l),
(46,0,l)
);
},
{
closed = 1;
nodes = (
(360,383,l),
(570,383,o),
(688,443,o),
(688,550,cs),
(688,696,o),
(588,760,o),
(360,760,cs),
(188,760,l),
(188,585,l),
(350,585,ls),
(422,585,o),
(453,566,o),
(453,523,cs),
(453,479,o),
(422,460,o),
(350,460,cs),
(91,460,l),
(91,383,l)
);
}
);
width = 753;
},
{
associatedMasterId = "7F4E18E3-41A5-4521-AA8A-AE39B7B68B38";
layerId = "6B3B092B-EA8F-49D2-9158-CEF6855F6E76";
name = "8 Dec 24 at 19:26";
shapes = (
{
closed = 1;
nodes = (
(390,0,l),
(609,0,o),
(718,76,o),
(718,230,cs),
(718,355,o),
(618,409,o),
(390,409,cs),
(91,409,l),
(91,305,l),
(380,305,ls),
(452,305,o),
(483,285,o),
(483,240,cs),
(483,195,o),
(452,175,o),
(380,175,cs),
(218,175,l),
(218,0,l)
);
},
{
closed = 1;
nodes = (
(276,0,l),
(276,760,l),
(46,760,l),
(46,0,l)
);
},
{
closed = 1;
nodes = (
(340,373,l),
(559,373,o),
(668,432,o),
(668,550,cs),
(668,696,o),
(568,760,o),
(340,760,cs),
(168,760,l),
(168,585,l),
(330,585,ls),
(402,585,o),
(433,566,o),
(433,523,cs),
(433,479,o),
(402,460,o),
(330,460,cs),
(71,460,l),
(71,373,l)
);
}
);
width = 753;
},
{
associatedMasterId = m01;
layerId = "681B9AF6-1425-4051-95F1-5F370A3D9B2B";
name = "12 Dec 24 at 15:34";
shapes = (
{
closed = 1;
nodes = (
(326,0,l),
(493,0,o),
(587,75,o),
(587,208,cs),
(587,337,o),
(493,409,o),
(326,409,cs),
(83,409,l),
(83,366,l),
(316,366,l),
(466,366,o),
(532,318,o),
(532,208,cs),
(532,98,o),
(466,50,o),
(316,50,cs),
(88,50,l),
(88,0,l)
);
},
{
closed = 1;
nodes = (
(115,0,l),
(115,760,l),
(62,760,l),
(62,0,l)
);
},
{
closed = 1;
nodes = (
(263,379,l),
(430,379,o),
(524,445,o),
(524,563,cs),
(524,689,o),
(430,760,o),
(263,760,cs),
(93,760,l),
(93,710,l),
(253,710,l),
(403,710,o),
(469,665,o),
(469,563,cs),
(469,461,o),
(403,416,o),
(253,416,cs),
(94,416,l),
(94,379,l)
);
}
);
width = 635;
},
{
associatedMasterId = m01;
layerId = "0411B7A1-88A0-4069-B1DB-8B9F8E9BDA47";
name = "2 Feb 25 at 21:20";
shapes = (
{
closed = 1;
nodes = (
(378,0,l),
(545,0,o),
(639,75,o),
(639,208,cs),
(639,337,o),
(545,409,o),
(378,409,cs),
(105,409,l),
(105,366,l),
(368,366,l),
(507,366,o),
(584,309,o),
(584,208,cs),
(584,107,o),
(510,50,o),
(378,50,cs),
(110,50,l),
(110,0,l)
);
},
{
closed = 1;
nodes = (
(137,0,l),
(137,760,l),
(84,760,l),
(84,0,l)
);
},
{
closed = 1;
nodes = (
(315,379,l),
(482,379,o),
(576,445,o),
(576,563,cs),
(576,689,o),
(482,760,o),
(315,760,cs),
(115,760,l),
(115,710,l),
(315,710,l),
(447,710,o),
(521,657,o),
(521,563,cs),
(521,469,o),
(444,416,o),
(305,416,cs),
(116,416,l),
(116,379,l)
);
}
);
width = 693;
},
{
associatedMasterId = "7F4E18E3-41A5-4521-AA8A-AE39B7B68B38";
layerId = "4E277715-BCEE-43E4-8997-B60FE4E829E8";
name = "3 Feb 25 at 16:29";
shapes = (
{
closed = 1;
nodes = (
(422,0,l),
(625,0,o),
(726,71,o),
(726,215,cs),
(726,359,o),
(625,430,o),
(422,430,cs),
(190,430,l),
(190,322,l),
(430,322,ls),
(497,322,o),
(539,290,o),
(539,240,cs),
(539,190,o),
(497,158,o),
(430,158,cs),
(190,158,l),
(190,0,l)
);
},
{
closed = 1;
nodes = (
(256,0,l),
(256,760,l),
(72,760,l),
(72,0,l)
);
},
{
closed = 1;
nodes = (
(362,382,l),
(557,382,o),
(666,444,o),
(666,556,cs),
(666,692,o),
(565,760,o),
(362,760,cs),
(130,760,l),
(130,602,l),
(370,602,ls),
(440,602,o),
(479,577,o),
(479,531,cs),
(479,485,o),
(440,460,o),
(370,460,cs),
(130,460,l),
(130,382,l)
);
}
);
width = 775;
},
{
associatedMasterId = m01;
layerId = "49DA37E1-4D37-460E-9C31-59BC438042C2";
name = "23 Feb 25 at 15:29";
shapes = (
{
closed = 1;
nodes = (
(398,0,l),
(566,0,o),
(660,75,o),
(660,208,cs),
(660,337,o),
(566,409,o),
(398,409,cs),
(125,409,l),
(125,368,l),
(388,368,l),
(527,368,o),
(604,311,o),
(604,208,cs),
(604,105,o),
(530,48,o),
(398,48,cs),
(130,48,l),
(130,0,l)
);
},
{
closed = 1;
nodes = (
(158,0,l),
(158,760,l),
(104,760,l),
(104,0,l)
);
},
{
closed = 1;
nodes = (
(317,379,l),
(485,379,o),
(579,445,o),
(579,563,cs),
(579,689,o),
(485,760,o),
(317,760,cs),
(137,760,l),
(137,712,l),
(317,712,l),
(449,712,o),
(523,659,o),
(523,563,cs),
(523,469,o),
(446,416,o),
(307,416,cs),
(138,416,l),
(138,379,l)
);
}
);
width = 740;
},
{
associatedMasterId = "7F4E18E3-41A5-4521-AA8A-AE39B7B68B38";
layerId = "8246555B-42C8-4243-AA52-943C791477D5";
name = "24 Feb 25 at 21:43";
shapes = (
{
closed = 1;
nodes = (
(402,0,l),
(597,0,o),
(706,81,o),
(706,225,cs),
(706,362,o),
(598,430,o),
(380,430,cs),
(190,430,l),
(190,322,l),
(410,322,ls),
(480,322,o),
(519,293,o),
(519,240,cs),
(519,187,o),
(480,158,o),
(410,158,cs),
(190,158,l),
(190,0,l)
);
},
{
closed = 1;
nodes = (
(256,0,l),
(256,760,l),
(72,760,l),
(72,0,l)
);
},
{
closed = 1;
nodes = (
(340,382,l),
(545,382,o),
(646,439,o),
(646,555,cs),
(646,686,o),
(537,760,o),
(342,760,cs),
(130,760,l),
(130,602,l),
(350,602,ls),
(423,602,o),
(459,578,o),
(459,531,cs),
(459,484,o),
(423,460,o),
(350,460,cs),
(130,460,l),
(130,382,l)
);
}
);
width = 755;
},
{
associatedMasterId = "7F4E18E3-41A5-4521-AA8A-AE39B7B68B38";
layerId = "D7DF15E7-0A03-40C6-9E8D-042C7A0B2E51";
name = "6 Mar 25 at 16:15";
shapes = (
{
closed = 1;
nodes = (
(406,0,l),
(601,0,o),
(710,81,o),
(710,225,cs),
(710,362,o),
(602,430,o),
(384,430,cs),
(190,430,l),
(190,322,l),
(414,322,ls),
(484,322,o),
(523,293,o),
(523,240,cs),
(523,187,o),
(484,158,o),
(414,158,cs),
(190,158,l),
(190,0,l)
);
},
{
closed = 1;
nodes = (
(256,0,l),
(256,760,l),
(72,760,l),
(72,0,l)
);
},
{
closed = 1;
nodes = (
(362,382,l),
(567,382,o),
(668,439,o),
(668,555,cs),
(668,686,o),
(559,760,o),
(364,760,cs),
(148,760,l),
(148,602,l),
(372,602,ls),
(445,602,o),
(481,578,o),
(481,531,cs),
(481,484,o),
(445,460,o),
(372,460,cs),
(148,460,l),
(148,382,l)
);
}
);
width = 759;
},
{
anchors = (
{
name = bottom;
pos = (359,0);
},
{
name = center;
pos = (185,208);
},
{
name = top;
pos = (320,760);
}
);
associatedMasterId = m01;
layerId = "85A007B4-24C0-48BD-9D38-91CC82770662";
name = "1 Jun 26 at 15:10";
shapes = (
{
closed = 1;
nodes = (
(398,0,l),
(566,0,o),
(660,75,o),
(660,208,cs),
(660,337,o),
(566,409,o),
(398,409,cs),
(125,409,l),
(125,368,l),
(388,368,l),
(527,368,o),
(604,311,o),
(604,208,cs),
(604,105,o),
(530,48,o),
(398,48,cs),
(130,48,l),
(130,0,l)
);
},
{
closed = 1;
nodes = (
(158,0,l),
(158,760,l),
(104,760,l),
(104,0,l)
);
},
{
closed = 1;
nodes = (
(342,379,l),
(510,379,o),
(604,445,o),
(604,563,cs),
(604,689,o),
(510,760,o),
(342,760,cs),
(132,760,l),
(132,712,l),
(342,712,l),
(474,712,o),
(548,659,o),
(548,563,cs),
(548,469,o),
(471,416,o),
(332,416,cs),
(133,416,l),
(133,379,l)
);
}
);
width = 740;
},
{
anchors = (
{
name = bottom;
pos = (380,0);
},
{
name = center;
pos = (190,228);
},
{
name = top;
pos = (364,760);
}
);
associatedMasterId = "7F4E18E3-41A5-4521-AA8A-AE39B7B68B38";
layerId = "5805671A-8578-45F7-A2CC-1C57D248F8C6";
name = "1 Jun 26 at 15:10";
shapes = (
{
closed = 1;
nodes = (
(406,0,l),
(601,0,o),
(710,81,o),
(710,225,cs),
(710,369,o),
(602,441,o),
(384,441,cs),
(190,441,l),
(190,322,l),
(414,322,ls),
(484,322,o),
(523,293,o),
(523,240,cs),
(523,187,o),
(484,158,o),
(414,158,cs),
(190,158,l),
(190,0,l)
);
},
{
closed = 1;
nodes = (
(256,0,l),
(256,760,l),
(72,760,l),
(72,0,l)
);
},
{
closed = 1;
nodes = (
(372,364,l),
(570,364,o),
(668,427,o),
(668,555,cs),
(668,686,o),
(559,760,o),
(364,760,cs),
(148,760,l),
(148,602,l),
(372,602,ls),
(445,602,o),
(481,578,o),
(481,531,cs),
(481,484,o),
(445,460,o),
(372,460,cs),
(148,460,l),
(148,364,l)
);
}
);
width = 759;
}
);
metricLeft = "=H";
metricRight = "=O";
unicode = 66;
},
{
glyphname = "Beta-latin";
lastChange = "2026-06-14 22:20:33 +0000";
layers = (
{
layerId = m01;
shapes = (
{
closed = 1;
nodes = (
(158,-240,l),
(158,0,l),
(398,0,ls),
(566,0,o),
(660,75,o),
(660,208,cs),
(660,323,o),
(586,393,o),
(449,406,c),
(451,390,l),
(552,415,o),
(604,474,o),
(604,563,cs),
(604,689,o),
(510,760,o),
(342,760,cs),
(158,760,l),
(132,760,l),
(104,760,l),
(104,-240,l)
);
},
{
closed = 1;
nodes = (
(158,368,l),
(388,368,ls),
(527,368,o),
(604,311,o),
(604,208,cs),
(604,105,o),
(530,48,o),
(398,48,cs),
(158,48,l)
);
},
{
closed = 1;
nodes = (
(158,712,l),
(342,712,ls),
(474,712,o),
(548,659,o),
(548,563,cs),
(548,469,o),
(471,416,o),
(332,416,cs),
(158,416,l)
);
}
);
width = 740;
},
{
layerId = "7F4E18E3-41A5-4521-AA8A-AE39B7B68B38";
shapes = (
{
closed = 1;
nodes = (
(256,-240,l),
(256,0,l),
(406,0,ls),
(601,0,o),
(710,81,o),
(710,225,cs),
(710,324,o),
(658,389,o),
(556,420,c),
(559,393,l),
(632,424,o),
(668,478,o),
(668,555,cs),
(668,686,o),
(559,760,o),
(364,760,cs),
(256,760,l),
(148,760,l),
(72,760,l),
(72,-240,l)
);
},
{
closed = 1;
nodes = (
(256,322,l),
(414,322,ls),
(484,322,o),
(523,293,o),
(523,240,cs),
(523,187,o),
(484,158,o),
(414,158,cs),
(256,158,l)
);
},
{
closed = 1;
nodes = (
(256,602,l),
(372,602,ls),
(445,602,o),
(481,578,o),
(481,531,cs),
(481,484,o),
(445,460,o),
(372,460,cs),
(256,460,l)
);
}
);
width = 759;
},
{
associatedMasterId = m01;
layerId = "D3B727CF-9B67-4C06-B02B-6BF0C226E496";
name = "1 Jun 26 at 15:11";
shapes = (
{
closed = 1;
nodes = (
(398,0,l),
(566,0,o),
(660,75,o),
(660,208,cs),
(660,337,o),
(566,409,o),
(398,409,cs),
(125,409,l),
(125,368,l),
(388,368,l),
(527,368,o),
(604,311,o),
(604,208,cs),
(604,105,o),
(530,48,o),
(398,48,cs),
(130,48,l),
(130,0,l)
);
},
{
closed = 1;
nodes = (
(158,-240,l),
(158,760,l),
(104,760,l),
(104,-240,l)
);
},
{
closed = 1;
nodes = (
(342,379,l),
(510,379,o),
(604,445,o),
(604,563,cs),
(604,689,o),
(510,760,o),
(342,760,cs),
(132,760,l),
(132,712,l),
(342,712,l),
(474,712,o),
(548,659,o),
(548,563,cs),
(548,469,o),
(471,416,o),
(332,416,cs),
(133,416,l),
(133,379,l)
);
}
);
width = 740;
},
{
associatedMasterId = "7F4E18E3-41A5-4521-AA8A-AE39B7B68B38";
layerId = "CB75B2A7-D066-40A0-979D-AE05A20EA9A5";
name = "1 Jun 26 at 15:11";
shapes = (
{
closed = 1;
nodes = (
(406,0,l),
(601,0,o),
(710,81,o),
(710,225,cs),
(710,369,o),
(602,441,o),
(384,441,cs),
(190,441,l),
(190,322,l),
(414,322,ls),
(484,322,o),
(523,293,o),
(523,240,cs),
(523,187,o),
(484,158,o),
(414,158,cs),
(190,158,l),
(190,0,l)
);
},
{
closed = 1;
nodes = (
(256,-240,l),
(256,760,l),
(72,760,l),
(72,-240,l)
);
},
{
closed = 1;
nodes = (
(372,364,l),
(570,364,o),
(668,427,o),
(668,555,cs),
(668,686,o),
(559,760,o),
(364,760,cs),
(148,760,l),
(148,602,l),
(372,602,ls),
(445,602,o),
(481,578,o),
(481,531,cs),
(481,484,o),
(445,460,o),
(372,460,cs),
(148,460,l),
(148,364,l)
);
}
);
width = 759;
}
);
metricLeft = "=B";
metricRight = "=B";
unicode = 42932;
},
{
glyphname = Bhook;
kernRight = KO_B;
lastChange = "2026-06-14 22:20:33 +0000";
layers = (
{
layerId = m01;
shapes = (
{
closed = 1;
nodes = (
(276,0,l),
(516,0,ls),
(684,0,o),
(778,75,o),
(778,208,cs),
(778,323,o),
(704,393,o),
(567,406,c),
(569,390,l),
(670,415,o),
(722,474,o),
(722,563,cs),
(722,689,o),
(628,760,o),
(460,760,cs),
(276,760,l),
(250,760,l),
(229,760,l),
(222,760,l),
(184,760,ls),
(103,760,o),
(58,724,o),
(58,660,cs),
(58,586,l),
(112,586,l),
(112,660,ls),
(112,696,o),
(134,712,o),
(184,712,cs),
(222,712,l),
(222,0,l),
(248,0,l)
);
},
{
closed = 1;
nodes = (
(276,368,l),
(506,368,ls),
(645,368,o),
(722,311,o),
(722,208,cs),
(722,105,o),
(648,48,o),
(516,48,cs),
(276,48,l)
);
},
{
closed = 1;
nodes = (
(276,712,l),
(460,712,ls),
(592,712,o),
(666,659,o),
(666,563,cs),
(666,469,o),
(589,416,o),
(450,416,cs),
(276,416,l)
);
}
);
width = 858;
},
{
layerId = "7F4E18E3-41A5-4521-AA8A-AE39B7B68B38";
shapes = (
{
closed = 1;
nodes = (
(454,0,l),
(604,0,ls),
(799,0,o),
(908,81,o),
(908,225,cs),
(908,324,o),
(856,389,o),
(754,420,c),
(757,393,l),
(830,424,o),
(866,478,o),
(866,555,cs),
(866,686,o),
(757,760,o),
(562,760,cs),
(454,760,l),
(346,760,l),
(299,760,l),
(270,760,l),
(258,760,ls),
(113,760,o),
(32,687,o),
(32,556,cs),
(32,488,l),
(193,488,l),
(193,542,ls),
(193,584,o),
(207,602,o),
(240,602,cs),
(270,602,l),
(270,0,l),
(388,0,l)
);
},
{
closed = 1;
nodes = (
(454,322,l),
(612,322,ls),
(682,322,o),
(721,293,o),
(721,240,cs),
(721,187,o),
(682,158,o),
(612,158,cs),
(454,158,l)
);
},
{
closed = 1;
nodes = (
(454,602,l),
(570,602,ls),
(643,602,o),
(679,578,o),
(679,531,cs),
(679,484,o),
(643,460,o),
(570,460,cs),
(454,460,l)
);
}
);
width = 957;
},
{
associatedMasterId = m01;
layerId = "55F35233-B9AE-41D0-B0F8-768DEDA9B07D";
name = "1 Jun 26 at 15:11";
shapes = (
{
closed = 1;
nodes = (
(516,0,l),
(684,0,o),
(778,75,o),
(778,208,cs),
(778,337,o),
(684,409,o),
(516,409,cs),
(243,409,l),
(243,368,l),
(506,368,l),
(645,368,o),
(722,311,o),
(722,208,cs),
(722,105,o),
(648,48,o),
(516,48,cs),
(248,48,l),
(248,0,l)
);
},
{
closed = 1;
nodes = (
(276,0,l),
(276,760,l),
(222,760,l),
(222,0,l)
);
},
{
closed = 1;
nodes = (
(112,586,l),
(112,660,ls),
(112,696,o),
(134,712,o),
(184,712,cs),
(229,712,l),
(229,760,l),
(184,760,ls),
(103,760,o),
(58,724,o),
(58,660,cs),
(58,586,l)
);
},
{
closed = 1;
nodes = (
(460,379,l),
(628,379,o),
(722,445,o),
(722,563,cs),
(722,689,o),
(628,760,o),
(460,760,cs),
(250,760,l),
(250,712,l),
(460,712,l),
(592,712,o),
(666,659,o),
(666,563,cs),
(666,469,o),
(589,416,o),
(450,416,cs),
(251,416,l),
(251,379,l)
);
}
);
width = 858;
},
{
associatedMasterId = "7F4E18E3-41A5-4521-AA8A-AE39B7B68B38";
layerId = "BC32FF2D-E7F8-49BD-A0BE-E1F224890035";
name = "1 Jun 26 at 15:11";
shapes = (
{
closed = 1;
nodes = (
(604,0,l),
(799,0,o),
(908,81,o),
(908,225,cs),
(908,369,o),
(800,441,o),
(582,441,cs),
(388,441,l),
(388,322,l),
(612,322,ls),
(682,322,o),
(721,293,o),
(721,240,cs),
(721,187,o),
(682,158,o),
(612,158,cs),
(388,158,l),
(388,0,l)
);
},
{
closed = 1;
nodes = (
(454,0,l),
(454,760,l),
(270,760,l),
(270,0,l)
);
},
{
closed = 1;
nodes = (
(193,488,l),
(193,542,ls),
(193,584,o),
(207,602,o),
(240,602,c),
(299,602,l),
(299,760,l),
(258,760,l),
(113,760,o),
(32,687,o),
(32,556,cs),
(32,488,l)
);
},
{
closed = 1;
nodes = (
(570,364,l),
(768,364,o),
(866,427,o),
(866,555,cs),
(866,686,o),
(757,760,o),
(562,760,cs),
(346,760,l),
(346,602,l),
(570,602,ls),
(643,602,o),
(679,578,o),
(679,531,cs),
(679,484,o),
(643,460,o),
(570,460,cs),
(346,460,l),
(346,364,l)
);
}
);
width = 957;
}
);
metricLeft = "=o";
metricRight = "=B";
unicode = 385;
},
{
glyphname = C;
kernLeft = KO_O;
kernRight = KO_C;
lastChange = "2026-06-14 22:20:33 +0000";
layers = (
{
anchors = (
{
name = bottom;
pos = (443,0);
},
{
name = top;
pos = (443,760);
}
);
background = {
shapes = (
{
closed = 1;
nodes = (
(672,-16,o),
(827,147,o),
(827,380,cs),
(827,613,o),
(672,776,o),
(451,776,cs),
(230,776,o),
(75,613,o),
(75,380,cs),
(75,147,o),
(230,-16,o),
(451,-16,cs)
);
},
{
closed = 1;
nodes = (
(263,33,o),
(131,176,o),
(131,380,cs),
(131,584,o),
(263,727,o),
(451,727,cs),
(639,727,o),
(771,584,o),
(771,380,cs),
(771,176,o),
(639,33,o),
(451,33,cs)
);
}
);
};
layerId = m01;
shapes = (
{
closed = 1;
nodes = (
(645,-16,o),
(780,102,o),
(792,291,c),
(738,291,l),
(726,133,o),
(612,33,o),
(443,33,cs),
(263,33,o),
(136,176,o),
(136,380,cs),
(136,584,o),
(263,727,o),
(443,727,cs),
(612,727,o),
(726,627,o),
(738,469,c),
(792,469,l),
(780,658,o),
(645,776,o),
(443,776,cs),
(230,776,o),
(80,613,o),
(80,380,cs),
(80,147,o),
(230,-16,o),
(443,-16,cs)
);
}
);
width = 872;
},
{
anchors = (
{
name = bottom;
pos = (435,0);
},
{
name = top;
pos = (437,760);
}
);
background = {
shapes = (
{
closed = 1;
nodes = (
(679,-16,o),
(845,147,o),
(845,380,cs),
(845,613,o),
(679,776,o),
(442,776,cs),
(205,776,o),
(39,613,o),
(39,380,cs),
(39,147,o),
(205,-16,o),
(442,-16,cs)
);
},
{
closed = 1;
nodes = (
(315,144,o),
(226,241,o),
(226,380,cs),
(226,519,o),
(315,616,o),
(442,616,cs),
(569,616,o),
(658,519,o),
(658,380,cs),
(658,241,o),
(569,144,o),
(442,144,cs)
);
}
);
};
layerId = "7F4E18E3-41A5-4521-AA8A-AE39B7B68B38";
shapes = (
{
closed = 1;
nodes = (
(650,-16,o),
(803,120,o),
(813,313,c),
(631,313,l),
(620,214,o),
(542,144,o),
(442,144,cs),
(321,144,o),
(236,241,o),
(236,380,cs),
(236,519,o),
(321,616,o),
(442,616,cs),
(542,616,o),
(620,546,o),
(631,447,c),
(813,447,l),
(803,640,o),
(650,776,o),
(442,776,cs),
(211,776,o),
(49,613,o),
(49,380,cs),
(49,147,o),
(211,-16,o),
(442,-16,cs)
);
}
);
width = 862;
},
{
associatedMasterId = "7F4E18E3-41A5-4521-AA8A-AE39B7B68B38";
background = {
shapes = (
{
closed = 1;
nodes = (
(665,-16,o),
(831,147,o),
(831,380,cs),
(831,613,o),
(665,776,o),
(428,776,cs),
(191,776,o),
(25,613,o),
(25,380,cs),
(25,147,o),
(191,-16,o),
(428,-16,cs)
);
},
{
closed = 1;
nodes = (
(325,164,o),
(260,247,o),
(260,380,cs),
(260,513,o),
(325,596,o),
(428,596,cs),
(531,596,o),
(596,513,o),
(596,380,cs),
(596,247,o),
(531,164,o),
(428,164,cs)
);
}
);
};
layerId = "3BBC3A3E-36E5-4A13-B588-34CD1134BBB5";
name = "25 Nov 24 at 21:01";
shapes = (
{
closed = 1;
nodes = (
(642,-16,o),
(793,111,o),
(793,291,c),
(563,291,l),
(563,216,o),
(507,164,o),
(428,164,cs),
(325,164,o),
(260,247,o),
(260,380,cs),
(260,513,o),
(325,596,o),
(428,596,cs),
(507,596,o),
(563,544,o),
(563,469,c),
(793,469,l),
(793,649,o),
(642,776,o),
(428,776,cs),
(191,776,o),
(25,613,o),
(25,380,cs),
(25,147,o),
(191,-16,o),
(428,-16,cs)
);
}
);
width = 798;
},
{
anchors = (
{
name = bottom;
pos = (428,0);
},
{
name = top;
pos = (419,760);
}
);
associatedMasterId = "7F4E18E3-41A5-4521-AA8A-AE39B7B68B38";
background = {
shapes = (
{
closed = 1;
nodes = (
(665,-16,o),
(831,147,o),
(831,380,cs),
(831,613,o),
(665,776,o),
(428,776,cs),
(191,776,o),
(25,613,o),
(25,380,cs),
(25,147,o),
(191,-16,o),
(428,-16,cs)
);
},
{
closed = 1;
nodes = (
(325,164,o),
(260,247,o),
(260,380,cs),
(260,513,o),
(325,596,o),
(428,596,cs),
(531,596,o),
(596,513,o),
(596,380,cs),
(596,247,o),
(531,164,o),
(428,164,cs)
);
}
);
};
layerId = "492DA2EE-2F07-45D7-A782-582986AD718D";
name = "30 Nov 24 at 10:54";
shapes = (
{
closed = 1;
nodes = (
(654,-16,o),
(803,114,o),
(813,321,c),
(583,321,l),
(572,220,o),
(516,164,o),
(428,164,cs),
(325,164,o),
(260,247,o),
(260,380,cs),
(260,513,o),
(325,596,o),
(428,596,cs),
(516,596,o),
(572,540,o),
(583,439,c),
(813,439,l),
(803,646,o),
(654,776,o),
(428,776,cs),
(191,776,o),
(25,613,o),
(25,380,cs),
(25,147,o),
(191,-16,o),
(428,-16,cs)
);
}
);
width = 838;
},
{
anchors = (
{
name = bottom;
pos = (438,0);
},
{
name = top;
pos = (429,760);
}
);
associatedMasterId = "7F4E18E3-41A5-4521-AA8A-AE39B7B68B38";
background = {
shapes = (
{
closed = 1;
nodes = (
(675,-16,o),
(841,147,o),
(841,380,cs),
(841,613,o),
(675,776,o),
(438,776,cs),
(201,776,o),
(35,613,o),
(35,380,cs),
(35,147,o),
(201,-16,o),
(438,-16,cs)
);
},
{
closed = 1;
nodes = (
(335,164,o),
(270,247,o),
(270,380,cs),
(270,513,o),
(335,596,o),
(438,596,cs),
(541,596,o),
(606,513,o),
(606,380,cs),
(606,247,o),
(541,164,o),
(438,164,cs)
);
}
);
};
layerId = "F25E06ED-4696-4070-ACB3-587CF9D14550";
name = "8 Dec 24 at 19:12";
shapes = (
{
closed = 1;
nodes = (
(664,-16,o),
(813,114,o),
(823,321,c),
(593,321,l),
(583,233,o),
(528,184,o),
(438,184,cs),
(330,184,o),
(270,254,o),
(270,380,cs),
(270,506,o),
(330,576,o),
(438,576,cs),
(528,576,o),
(583,527,o),
(593,439,c),
(823,439,l),
(813,646,o),
(664,776,o),
(438,776,cs),
(201,776,o),
(35,613,o),
(35,380,cs),
(35,147,o),
(201,-16,o),
(438,-16,cs)
);
}
);
width = 858;
},
{
anchors = (
{
name = bottom;
pos = (447,0);
},
{
name = top;
pos = (447,760);
}
);
associatedMasterId = m01;
background = {
shapes = (
{
closed = 1;
nodes = (
(594,-16,o),
(717,52,o),
(749,148,c),
(778,148,l),
(778,371,l),
(749,371,l),
(749,306,l),
(749,139,o),
(634,34,o),
(452,34,cs),
(260,34,o),
(125,177,o),
(125,380,cs),
(125,583,o),
(260,726,o),
(452,726,cs),
(583,726,o),
(687,650,o),
(703,542,c),
(756,542,l),
(739,679,o),
(613,776,o),
(452,776,cs),
(228,776,o),
(70,613,o),
(70,380,cs),
(70,147,o),
(228,-16,o),
(452,-16,cs)
);
},
{
closed = 1;
nodes = (
(802,0,l),
(802,388,l),
(506,388,l),
(506,338,l),
(749,338,l),
(749,148,l),
(749,0,l)
);
}
);
};
layerId = "AE96BF6C-71D7-4D12-911D-951C3BE2E12C";
name = "8 Dec 24 at 19:14";
shapes = (
{
closed = 1;
nodes = (
(650,-16,o),
(781,102,o),
(787,291,c),
(734,291,l),
(727,133,o),
(616,34,o),
(447,34,cs),
(258,34,o),
(125,177,o),
(125,380,cs),
(125,583,o),
(258,726,o),
(447,726,cs),
(616,726,o),
(727,627,o),
(734,469,c),
(787,469,l),
(781,658,o),
(650,776,o),
(447,776,cs),
(226,776,o),
(70,613,o),
(70,380,cs),
(70,147,o),
(226,-16,o),
(447,-16,cs)
);
}
);
width = 857;
},
{
anchors = (
{
name = bottom;
pos = (431,0);
},
{
name = top;
pos = (431,760);
}
);
associatedMasterId = m01;
background = {
shapes = (
{
closed = 1;
nodes = (
(578,-16,o),
(701,52,o),
(733,148,c),
(762,148,l),
(762,371,l),
(733,371,l),
(733,306,l),
(733,139,o),
(618,34,o),
(436,34,cs),
(244,34,o),
(109,177,o),
(109,380,cs),
(109,583,o),
(244,726,o),
(436,726,cs),
(567,726,o),
(671,650,o),
(687,542,c),
(740,542,l),
(723,679,o),
(597,776,o),
(436,776,cs),
(212,776,o),
(54,613,o),
(54,380,cs),
(54,147,o),
(212,-16,o),
(436,-16,cs)
);
},
{
closed = 1;
nodes = (
(786,0,l),
(786,388,l),
(490,388,l),
(490,338,l),
(733,338,l),
(733,148,l),
(733,0,l)
);
}
);
};
layerId = "FB0F3D34-6FD6-4607-BE85-47A5917E89C7";
name = "19 Jan 25 at 15:41";
shapes = (
{
closed = 1;
nodes = (
(630,-16,o),
(765,102,o),
(781,291,c),
(728,291,l),
(711,133,o),
(596,34,o),
(431,34,cs),
(242,34,o),
(109,177,o),
(109,380,cs),
(109,583,o),
(242,726,o),
(431,726,cs),
(596,726,o),
(711,627,o),
(728,469,c),
(781,469,l),
(765,658,o),
(630,776,o),
(431,776,cs),
(210,776,o),
(54,613,o),
(54,380,cs),
(54,147,o),
(210,-16,o),
(431,-16,cs)
);
}
);
width = 835;
},
{
anchors = (
{
name = bottom;
pos = (445,0);
},
{
name = top;
pos = (447,760);
}
);
associatedMasterId = "7F4E18E3-41A5-4521-AA8A-AE39B7B68B38";
background = {
shapes = (
{
closed = 1;
nodes = (
(554,-16,o),
(720,64,o),
(814,213,o),
(818,313,q),
(636,313,l),
(628,233,o),
(528,144,o),
(445,144,qs),
(348,144,o),
(236,270,o),
(236,380,qs),
(236,490,o),
(348,616,o),
(445,616,qs),
(528,616,o),
(628,527,o),
(636,447,q),
(818,447,l),
(814,547,o),
(720,696,o),
(554,776,o),
(445,776,qs),
(330,776,o),
(150,675,o),
(49,495,o),
(49,380,qs),
(49,265,o),
(150,85,o),
(330,-16,o),
(445,-16,qs)
);
}
);
};
layerId = "5A5D6A0A-C64E-4B77-A1EF-E445DBA1FEA2";
name = "19 Jan 25 at 15:52";
shapes = (
{
closed = 1;
nodes = (
(665,-16,o),
(808,111,o),
(818,313,c),
(636,313,l),
(624,209,o),
(551,144,o),
(447,144,cs),
(317,144,o),
(236,235,o),
(236,380,cs),
(236,525,o),
(317,616,o),
(447,616,cs),
(551,616,o),
(624,551,o),
(636,447,c),
(818,447,l),
(808,649,o),
(665,776,o),
(447,776,cs),
(213,776,o),
(49,613,o),
(49,380,cs),
(49,147,o),
(213,-16,o),
(447,-16,cs)
);
}
);
width = 867;
},
{
anchors = (
{
name = bottom;
pos = (431,0);
},
{
name = top;
pos = (431,760);
}
);
associatedMasterId = m01;
layerId = "6C0A1234-1B94-4ED5-BB1C-81FAE5F15F20";
name = "22 Jan 25 at 08:00";
shapes = (
{
closed = 1;
nodes = (
(635,-16,o),
(770,102,o),
(786,291,c),
(733,291,l),
(716,134,o),
(602,36,o),
(436,36,cs),
(248,36,o),
(115,178,o),
(115,380,cs),
(115,582,o),
(248,724,o),
(436,724,cs),
(602,724,o),
(716,626,o),
(733,469,c),
(786,469,l),
(770,658,o),
(635,776,o),
(436,776,cs),
(215,776,o),
(60,613,o),
(60,380,cs),
(60,147,o),
(215,-16,o),
(436,-16,cs)
);
}
);
width = 846;
},
{
anchors = (
{
name = bottom;
pos = (445,0);
},
{
name = top;
pos = (447,760);
}
);
associatedMasterId = "7F4E18E3-41A5-4521-AA8A-AE39B7B68B38";
background = {
shapes = (
{
closed = 1;
nodes = (
(689,-16,o),
(855,147,o),
(855,380,cs),
(855,613,o),
(689,776,o),
(452,776,cs),
(215,776,o),
(49,613,o),
(49,380,cs),
(49,147,o),
(215,-16,o),
(452,-16,cs)
);
},
{
closed = 1;
nodes = (
(325,144,o),
(236,241,o),
(236,380,cs),
(236,519,o),
(325,616,o),
(452,616,cs),
(579,616,o),
(668,519,o),
(668,380,cs),
(668,241,o),
(579,144,o),
(452,144,cs)
);
}
);
};
layerId = "B06FD7AF-A8D6-4A86-A900-5C575220778F";
name = "22 Jan 25 at 08:07";
shapes = (
{
closed = 1;
nodes = (
(670,-16,o),
(813,111,o),
(823,313,c),
(641,313,l),
(629,209,o),
(556,144,o),
(452,144,cs),
(325,144,o),
(236,241,o),
(236,380,cs),
(236,519,o),
(325,616,o),
(452,616,cs),
(556,616,o),
(629,551,o),
(641,447,c),
(823,447,l),
(813,649,o),
(670,776,o),
(452,776,cs),
(215,776,o),
(49,613,o),
(49,380,cs),
(49,147,o),
(215,-16,o),
(452,-16,cs)
);
}
);
width = 872;
},
{
anchors = (
{
name = bottom;
pos = (441,0);
},
{
name = top;
pos = (441,760);
}
);
associatedMasterId = m01;
layerId = "226B62AD-F3F0-4C06-880D-7439AE4B4E5C";
name = "31 Jan 25 at 17:02";
shapes = (
{
closed = 1;
nodes = (
(642,-16,o),
(775,102,o),
(791,291,c),
(738,291,l),
(721,134,o),
(608,36,o),
(446,36,cs),
(263,36,o),
(135,178,o),
(135,380,cs),
(135,582,o),
(263,724,o),
(446,724,cs),
(608,724,o),
(721,626,o),
(738,469,c),
(791,469,l),
(775,658,o),
(642,776,o),
(446,776,cs),
(231,776,o),
(80,613,o),
(80,380,cs),
(80,147,o),
(231,-16,o),
(446,-16,cs)
);
}
);
width = 871;
},
{
anchors = (
{
name = bottom;
pos = (441,0);
},
{
name = top;
pos = (441,760);
}
);
associatedMasterId = m01;
layerId = "5B647E52-9027-4BD3-AD27-5F5F5401A871";
name = "2 Feb 25 at 10:39";
shapes = (
{
closed = 1;
nodes = (
(642,-16,o),
(775,102,o),
(791,291,c),
(738,291,l),
(721,132,o),
(608,32,o),
(446,32,cs),
(263,32,o),
(134,176,o),
(134,380,cs),
(134,584,o),
(263,728,o),
(446,728,cs),
(608,728,o),
(721,628,o),
(738,469,c),
(791,469,l),
(775,658,o),
(642,776,o),
(446,776,cs),
(231,776,o),
(80,613,o),
(80,380,cs),
(80,147,o),
(231,-16,o),
(446,-16,cs)
);
}
);
width = 871;
},
{
anchors = (
{
name = bottom;
pos = (448,0);
},
{
name = top;
pos = (448,760);
}
);
associatedMasterId = m01;
background = {
shapes = (
{
closed = 1;
nodes = (
(677,-16,o),
(832,147,o),
(832,380,cs),
(832,613,o),
(677,776,o),
(456,776,cs),
(235,776,o),
(80,613,o),
(80,380,cs),
(80,147,o),
(235,-16,o),
(456,-16,cs)
);
},
{
closed = 1;
nodes = (
(268,33,o),
(136,176,o),
(136,380,cs),
(136,584,o),
(268,727,o),
(456,727,cs),
(644,727,o),
(776,584,o),
(776,380,cs),
(776,176,o),
(644,33,o),
(456,33,cs)
);
}
);
};
layerId = "F62C2CC7-242A-4A9B-909B-AE72DE8588F4";
name = "23 Feb 25 at 15:30";
shapes = (
{
closed = 1;
nodes = (
(648,-16,o),
(783,102,o),
(797,291,c),
(743,291,l),
(729,133,o),
(615,33,o),
(448,33,cs),
(265,33,o),
(136,176,o),
(136,380,cs),
(136,584,o),
(265,727,o),
(448,727,cs),
(615,727,o),
(729,627,o),
(743,469,c),
(797,469,l),
(783,658,o),
(648,776,o),
(448,776,cs),
(232,776,o),
(80,613,o),
(80,380,cs),
(80,147,o),
(232,-16,o),
(448,-16,cs)
);
}
);
width = 877;
}
);
metricLeft = "=O";
metricRight = "=O";
unicode = 67;
},
{
glyphname = "Chi-latin";
lastChange = "2026-06-14 22:20:33 +0000";
layers = (
{
layerId = "7F4E18E3-41A5-4521-AA8A-AE39B7B68B38";
shapes = (
{
closed = 1;
nodes = (
(228,-240,l),
(426,170,l),
(385,169,l),
(536,-124,ls),
(577,-205,o),
(631,-240,o),
(714,-240,cs),
(862,-240,l),
(862,-82,l),
(770,-82,ls),
(729,-82,o),
(708,-69,o),
(688,-31,cs),
(501,330,l),
(501,250,l),
(771,760,l),
(564,760,l),
(400,424,l),
(440,424,l),
(328,644,ls),
(287,725,o),
(233,760,o),
(150,760,cs),
(2,760,l),
(2,602,l),
(94,602,ls),
(135,602,o),
(156,589,o),
(176,551,cs),
(326,261,l),
(326,341,l),
(22,-240,l)
);
}
);
width = 864;
},
{
associatedMasterId = "7F4E18E3-41A5-4521-AA8A-AE39B7B68B38";
layerId = "DA837E52-8842-469E-97C9-BDC4B524F3DB";
name = "26 Apr 26 at 17:59";
shapes = (
{
closed = 1;
nodes = (
(228,-240,l),
(465,251,l),
(343,251,l),
(536,-124,ls),
(577,-205,o),
(631,-240,o),
(714,-240,cs),
(862,-240,l),
(862,-82,l),
(770,-82,ls),
(729,-82,o),
(708,-69,o),
(688,-31,cs),
(480,373,l),
(500,248,l),
(771,760,l),
(564,760,l),
(334,286,l),
(512,286,l),
(328,644,ls),
(287,725,o),
(233,760,o),
(150,760,cs),
(2,760,l),
(2,602,l),
(94,602,ls),
(135,602,o),
(156,589,o),
(176,551,cs),
(332,248,l),
(323,335,l),
(22,-240,l)
);
}
);
width = 864;
},
{
associatedMasterId = m01;
layerId = "1AA2D171-7AF3-4B74-A82E-182CF182FDE5";
name = "26 Apr 26 at 18:00";
shapes = (
{
closed = 1;
nodes = (
(81,-240,l),
(338,251,l),
(326,251,l),
(469,-144,ls),
(497,-222,o),
(541,-240,o),
(607,-240,cs),
(665,-240,l),
(665,-190,l),
(608,-190,ls),
(567,-190,o),
(538,-175,o),
(519,-125,cs),
(362,297,l),
(343,248,l),
(614,760,l),
(557,760,l),
(307,286,l),
(365,286,l),
(231,664,ls),
(204,742,o),
(159,760,o),
(93,760,cs),
(35,760,l),
(35,710,l),
(92,710,ls),
(133,710,o),
(162,696,o),
(181,645,cs),
(325,248,l),
(321,325,l),
(25,-240,l)
);
}
);
width = 690;
},
{
layerId = m01;
name = ExtraLight;
shapes = (
{
closed = 1;
nodes = (
(131,-240,l),
(403,279,l),
(361,279,l),
(579,-144,ls),
(616,-216,o),
(651,-240,o),
(717,-240,cs),
(775,-240,l),
(775,-190,l),
(718,-190,ls),
(677,-190,o),
(654,-174,o),
(629,-125,cs),
(394,330,l),
(394,250,l),
(664,760,l),
(607,760,l),
(365,302,l),
(407,302,l),
(221,664,ls),
(184,736,o),
(149,760,o),
(83,760,cs),
(25,760,l),
(25,710,l),
(82,710,ls),
(123,710,o),
(146,694,o),
(171,645,cs),
(374,251,l),
(374,331,l),
(75,-240,l)
);
}
);
width = 800;
},
{
associatedMasterId = m01;
layerId = "D0F46E3E-7CED-49B4-8971-E534794CF6A7";
name = "1 Jun 26 at 15:12";
shapes = (
{
closed = 1;
nodes = (
(131,-240,l),
(388,251,l),
(376,251,l),
(579,-144,ls),
(616,-216,o),
(651,-240,o),
(717,-240,cs),
(775,-240,l),
(775,-190,l),
(718,-190,ls),
(677,-190,o),
(654,-174,o),
(629,-125,cs),
(412,297,l),
(393,248,l),
(664,760,l),
(607,760,l),
(357,286,l),
(415,286,l),
(221,664,ls),
(184,736,o),
(149,760,o),
(83,760,cs),
(25,760,l),
(25,710,l),
(82,710,ls),
(123,710,o),
(146,694,o),
(171,645,cs),
(375,248,l),
(354,293,l),
(75,-240,l)
);
}
);
width = 800;
},
{
associatedMasterId = "7F4E18E3-41A5-4521-AA8A-AE39B7B68B38";
layerId = "E4387697-D731-453D-899F-B7F4F876607C";
name = "1 Jun 26 at 15:12";
shapes = (
{
closed = 1;
nodes = (
(228,-240,l),
(465,251,l),
(343,251,l),
(536,-124,ls),
(577,-205,o),
(631,-240,o),
(714,-240,cs),
(862,-240,l),
(862,-82,l),
(770,-82,ls),
(729,-82,o),
(708,-69,o),
(688,-31,cs),
(480,373,l),
(500,248,l),
(771,760,l),
(564,760,l),
(334,286,l),
(512,286,l),
(328,644,ls),
(287,725,o),
(233,760,o),
(150,760,cs),
(2,760,l),
(2,602,l),
(94,602,ls),
(135,602,o),
(156,589,o),
(176,551,cs),
(332,248,l),
(323,335,l),
(22,-240,l)
);
}
);
width = 864;
}
);
metricLeft = "=X";
metricRight = "=X";
unicode = 42931;
},
{
glyphname = Chook;
lastChange = "2026-06-14 22:20:33 +0000";
layers = (
{
layerId = m01;
shapes = (
{
closed = 1;
nodes = (
(645,-16,o),
(780,102,o),
(792,291,c),
(738,291,l),
(726,133,o),
(612,33,o),
(443,33,cs),
(263,33,o),
(136,176,o),
(136,380,cs),
(136,584,o),
(263,727,o),
(443,727,cs),
(612,727,o),
(726,627,o),
(738,469,c),
(741,469,l),
(782,469,l),
(792,469,l),
(792,678,ls),
(792,774,o),
(816,806,o),
(887,806,cs),
(959,806,l),
(959,854,l),
(897,854,ls),
(784,854,o),
(741,802,o),
(741,668,cs),
(741,573,l),
(754,592,l),
(704,708,o),
(593,776,o),
(443,776,cs),
(230,776,o),
(80,613,o),
(80,380,cs),
(80,147,o),
(230,-16,o),
(443,-16,cs)
);
}
);
width = 879;
},
{
layerId = "7F4E18E3-41A5-4521-AA8A-AE39B7B68B38";
shapes = (
{
closed = 1;
nodes = (
(650,-16,o),
(803,120,o),
(813,313,c),
(631,313,l),
(620,214,o),
(542,144,o),
(442,144,cs),
(321,144,o),
(236,241,o),
(236,380,cs),
(236,519,o),
(321,616,o),
(442,616,cs),
(542,616,o),
(620,546,o),
(631,447,c),
(659,447,l),
(752,447,l),
(813,447,l),
(813,730,ls),
(813,762,o),
(831,780,o),
(862,780,cs),
(944,780,l),
(944,928,l),
(908,928,ls),
(712,928,o),
(659,861,o),
(659,662,cs),
(659,652,l),
(678,682,l),
(625,745,o),
(548,776,o),
(442,776,cs),
(211,776,o),
(49,613,o),
(49,380,cs),
(49,147,o),
(211,-16,o),
(442,-16,cs)
);
}
);
width = 861;
},
{
associatedMasterId = m01;
layerId = "EF53407C-3E3E-40F1-8647-013935D572CB";
name = "1 Jun 26 at 15:13";
shapes = (
{
closed = 1;
nodes = (
(645,-16,o),
(780,102,o),
(792,291,c),
(738,291,l),
(726,133,o),
(612,33,o),
(443,33,cs),
(263,33,o),
(136,176,o),
(136,380,cs),
(136,584,o),
(263,727,o),
(443,727,cs),
(612,727,o),
(726,627,o),
(738,469,c),
(782,469,l),
(770,658,o),
(639,776,o),
(443,776,cs),
(230,776,o),
(80,613,o),
(80,380,cs),
(80,147,o),
(230,-16,o),
(443,-16,cs)
);
},
{
closed = 1;
nodes = (
(792,469,l),
(792,678,ls),
(792,774,o),
(816,806,o),
(887,806,cs),
(959,806,l),
(959,854,l),
(897,854,l),
(784,854,o),
(741,802,o),
(741,668,c),
(741,469,l)
);
}
);
width = 984;
},
{
associatedMasterId = "7F4E18E3-41A5-4521-AA8A-AE39B7B68B38";
layerId = "890998D7-86A1-4B19-98BF-1F6DDD026410";
name = "1 Jun 26 at 15:13";
shapes = (
{
closed = 1;
nodes = (
(650,-16,o),
(803,120,o),
(813,313,c),
(631,313,l),
(620,214,o),
(542,144,o),
(442,144,cs),
(321,144,o),
(236,241,o),
(236,380,cs),
(236,519,o),
(321,616,o),
(442,616,cs),
(542,616,o),
(620,546,o),
(631,447,c),
(752,447,l),
(742,667,o),
(639,776,o),
(442,776,cs),
(211,776,o),
(49,613,o),
(49,380,cs),
(49,147,o),
(211,-16,o),
(442,-16,cs)
);
},
{
closed = 1;
nodes = (
(813,447,l),
(813,730,l),
(813,762,o),
(831,780,o),
(862,780,cs),
(944,780,l),
(944,928,l),
(908,928,l),
(721,928,o),
(659,868,o),
(659,688,cs),
(659,447,l)
);
}
);
width = 946;
}
);
metricLeft = "=C";
metricRight = "=H@200";
unicode = 391;
},
{
glyphname = Cstroke;
lastChange = "2026-06-14 22:20:33 +0000";
layers = (
{
layerId = m01;
shapes = (
{
ref = C;
},
{
closed = 1;
nodes = (
(286,-61,l),
(636,821,l),
(584,821,l),
(234,-61,l)
);
}
);
width = 872;
},
{
layerId = "7F4E18E3-41A5-4521-AA8A-AE39B7B68B38";
shapes = (
{
ref = C;
},
{
closed = 1;
nodes = (
(299,-61,l),
(649,821,l),
(561,821,l),
(211,-61,l)
);
}
);
width = 862;
}
);
metricLeft = "=C";
metricRight = "=C";
unicode = 571;
},
{
glyphname = D;
kernLeft = KO_N;
kernRight = KO_D;
lastChange = "2026-06-14 22:20:33 +0000";
layers = (
{
anchors = (
{
name = bottom;
pos = (360,0);
},
{
name = center;
pos = (207,380);
},
{
name = top;
pos = (360,760);
}
);
layerId = m01;
shapes = (
{
closed = 1;
nodes = (
(370,0,l),
(608,0,o),
(758,147,o),
(758,380,cs),
(758,613,o),
(608,760,o),
(370,760,c),
(104,760,l),
(104,0,l)
);
},
{
closed = 1;
nodes = (
(158,712,l),
(370,712,ls),
(574,712,o),
(702,584,o),
(702,380,cs),
(702,176,o),
(574,48,o),
(370,48,cs),
(158,48,l)
);
}
);
width = 838;
},
{
anchors = (
{
name = bottom;
pos = (372,0);
},
{
name = center;
pos = (204,380);
},
{
name = top;
pos = (372,760);
}
);
layerId = "7F4E18E3-41A5-4521-AA8A-AE39B7B68B38";
shapes = (
{
closed = 1;
nodes = (
(379,0,l),
(627,0,o),
(782,147,o),
(782,380,cs),
(782,613,o),
(627,760,o),
(379,760,c),
(72,760,l),
(72,0,l)
);
},
{
closed = 1;
nodes = (
(256,602,l),
(363,602,ls),
(512,602,o),
(595,522,o),
(595,380,cs),
(595,238,o),
(512,158,o),
(363,158,cs),
(256,158,l)
);
}
);
width = 831;
},
{
anchors = (
{
name = bottom;
pos = (366,0);
},
{
name = center;
pos = (198,380);
},
{
name = top;
pos = (366,760);
}
);
associatedMasterId = "7F4E18E3-41A5-4521-AA8A-AE39B7B68B38";
layerId = "19AB1942-AE38-423A-8A08-06C2C8AFEFAC";
name = "30 Nov 24 at 10:55";
shapes = (
{
closed = 1;
nodes = (
(364,0,ls),
(612,0,o),
(767,147,o),
(767,380,cs),
(767,613,o),
(612,760,o),
(364,760,cs),
(182,760,l),
(182,611,l),
(322,611,ls),
(457,611,o),
(532,528,o),
(532,380,cs),
(532,232,o),
(457,149,o),
(322,149,cs),
(182,149,l),
(182,0,l)
);
},
{
closed = 1;
nodes = (
(270,0,l),
(270,760,l),
(40,760,l),
(40,0,l)
);
}
);
width = 792;
},
{
anchors = (
{
name = bottom;
pos = (336,0);
},
{
name = center;
pos = (183,380);
},
{
name = top;
pos = (336,760);
}
);
associatedMasterId = m01;
layerId = "A61FE1E0-A3BF-4973-8C5C-C30015C9A777";
name = "30 Nov 24 at 10:55";
shapes = (
{
closed = 1;
nodes = (
(300,0,ls),
(535,0,o),
(682,147,o),
(682,380,cs),
(682,613,o),
(535,760,o),
(300,760,cs),
(123,760,l),
(123,712,l),
(300,712,ls),
(501,712,o),
(627,584,o),
(627,380,cs),
(627,176,o),
(501,48,o),
(300,48,cs),
(123,48,l),
(123,0,l)
);
},
{
closed = 1;
nodes = (
(133,0,l),
(133,760,l),
(80,760,l),
(80,0,l)
);
}
);
width = 732;
},
{
anchors = (
{
name = bottom;
pos = (382,0);
},
{
name = center;
pos = (214,380);
},
{
name = top;
pos = (382,760);
}
);
associatedMasterId = "7F4E18E3-41A5-4521-AA8A-AE39B7B68B38";
background = {
shapes = (
{
closed = 1;
nodes = (
(395,0,ls),
(516,0,o),
(696,93,o),
(793,264,o),
(793,380,qs),
(793,496,o),
(696,667,o),
(516,760,o),
(395,760,qs),
(84,760,l),
(84,0,l)
);
},
{
closed = 1;
nodes = (
(267,607,l),
(364,607,ls),
(482,607,o),
(606,490,o),
(606,380,qs),
(606,270,o),
(482,153,o),
(364,153,qs),
(267,153,l)
);
}
);
};
layerId = "331D1FC5-5814-45A4-80E9-7EF40D5A373D";
name = "8 Dec 24 at 19:11";
shapes = (
{
closed = 1;
nodes = (
(390,0,ls),
(638,0,o),
(793,147,o),
(793,380,cs),
(793,613,o),
(638,760,o),
(390,760,cs),
(198,760,l),
(198,570,l),
(348,570,ls),
(488,570,o),
(558,507,o),
(558,380,cs),
(558,253,o),
(488,190,o),
(348,190,cs),
(198,190,l),
(198,0,l)
);
},
{
closed = 1;
nodes = (
(276,0,l),
(276,760,l),
(46,760,l),
(46,0,l)
);
}
);
width = 828;
},
{
anchors = (
{
name = bottom;
pos = (346,0);
},
{
name = center;
pos = (178,380);
},
{
name = top;
pos = (346,760);
}
);
associatedMasterId = "7F4E18E3-41A5-4521-AA8A-AE39B7B68B38";
background = {
shapes = (
{
closed = 1;
nodes = (
(359,0,ls),
(480,0,o),
(660,93,o),
(757,264,o),
(757,380,qs),
(757,496,o),
(660,667,o),
(480,760,o),
(359,760,qs),
(48,760,l),
(48,0,l)
);
},
{
closed = 1;
nodes = (
(231,607,l),
(328,607,ls),
(446,607,o),
(570,490,o),
(570,380,qs),
(570,270,o),
(446,153,o),
(328,153,qs),
(231,153,l)
);
}
);
};
layerId = "6AD7A390-63A6-4AFB-8BEC-14475C9C5874";
name = "8 Dec 24 at 19:26";
shapes = (
{
closed = 1;
nodes = (
(354,0,ls),
(602,0,o),
(757,147,o),
(757,380,cs),
(757,613,o),
(602,760,o),
(354,760,cs),
(162,760,l),
(162,607,l),
(338,607,ls),
(487,607,o),
(570,526,o),
(570,380,cs),
(570,234,o),
(487,153,o),
(338,153,cs),
(162,153,l),
(162,0,l)
);
},
{
closed = 1;
nodes = (
(230,0,l),
(230,760,l),
(46,760,l),
(46,0,l)
);
}
);
width = 792;
},
{
anchors = (
{
name = bottom;
pos = (340,0);
},
{
name = center;
pos = (187,380);
},
{
name = top;
pos = (340,760);
}
);
associatedMasterId = m01;
layerId = "6896BBEA-9994-4BD0-A570-EF1A57427804";
name = "19 Jan 25 at 15:39";
shapes = (
{
closed = 1;
nodes = (
(304,0,ls),
(539,0,o),
(686,147,o),
(686,380,cs),
(686,613,o),
(539,760,o),
(304,760,cs),
(127,760,l),
(127,710,l),
(304,710,ls),
(505,710,o),
(631,583,o),
(631,380,cs),
(631,177,o),
(505,50,o),
(304,50,cs),
(127,50,l),
(127,0,l)
);
},
{
closed = 1;
nodes = (
(137,0,l),
(137,760,l),
(84,760,l),
(84,0,l)
);
}
);
width = 740;
},
{
anchors = (
{
name = bottom;
pos = (340,0);
},
{
name = center;
pos = (187,380);
},
{
name = top;
pos = (340,760);
}
);
associatedMasterId = m01;
layerId = "74EA2860-6407-44D1-93A0-02A0D5EFD4DB";
name = "22 Jan 25 at 07:57";
shapes = (
{
closed = 1;
nodes = (
(314,0,ls),
(549,0,o),
(696,147,o),
(696,380,cs),
(696,613,o),
(549,760,o),
(314,760,cs),
(127,760,l),
(127,710,l),
(314,710,ls),
(515,710,o),
(641,583,o),
(641,380,cs),
(641,177,o),
(515,50,o),
(314,50,cs),
(127,50,l),
(127,0,l)
);
},
{
closed = 1;
nodes = (
(137,0,l),
(137,760,l),
(84,760,l),
(84,0,l)
);
}
);
width = 756;
},
{
anchors = (
{
name = bottom;
pos = (372,0);
},
{
name = center;
pos = (204,380);
},
{
name = top;
pos = (372,760);
}
);
associatedMasterId = "7F4E18E3-41A5-4521-AA8A-AE39B7B68B38";
layerId = "A765E759-E399-411B-84D1-778F3E42DD74";
name = "22 Jan 25 at 08:03";
shapes = (
{
closed = 1;
nodes = (
(380,0,ls),
(628,0,o),
(783,147,o),
(783,380,cs),
(783,613,o),
(628,760,o),
(380,760,cs),
(188,760,l),
(188,602,l),
(364,602,ls),
(513,602,o),
(596,522,o),
(596,380,cs),
(596,238,o),
(513,158,o),
(364,158,cs),
(188,158,l),
(188,0,l)
);
},
{
closed = 1;
nodes = (
(256,0,l),
(256,760,l),
(72,760,l),
(72,0,l)
);
}
);
width = 832;
},
{
anchors = (
{
name = bottom;
pos = (360,0);
},
{
name = center;
pos = (207,380);
},
{
name = top;
pos = (360,760);
}
);
associatedMasterId = m01;
layerId = "27E95FF4-4B97-43FD-9967-5759874B4A3C";
name = "31 Jan 25 at 16:49";
shapes = (
{
closed = 1;
nodes = (
(349,0,ls),
(584,0,o),
(731,147,o),
(731,380,cs),
(731,613,o),
(584,760,o),
(349,760,cs),
(147,760,l),
(147,710,l),
(349,710,ls),
(550,710,o),
(676,583,o),
(676,380,cs),
(676,177,o),
(550,50,o),
(349,50,cs),
(147,50,l),
(147,0,l)
);
},
{
closed = 1;
nodes = (
(157,0,l),
(157,760,l),
(104,760,l),
(104,0,l)
);
}
);
width = 811;
},
{
anchors = (
{
name = bottom;
pos = (372,0);
},
{
name = center;
pos = (204,380);
},
{
name = top;
pos = (372,760);
}
);
associatedMasterId = "7F4E18E3-41A5-4521-AA8A-AE39B7B68B38";
layerId = "ED1B2B53-47E7-4F82-B8FB-2510CDDFEDD1";
name = "2 Feb 25 at 14:43";
shapes = (
{
closed = 1;
nodes = (
(367,0,ls),
(615,0,o),
(770,147,o),
(770,380,cs),
(770,613,o),
(615,760,o),
(367,760,cs),
(188,760,l),
(188,602,l),
(351,602,ls),
(500,602,o),
(583,522,o),
(583,380,cs),
(583,238,o),
(500,158,o),
(351,158,cs),
(188,158,l),
(188,0,l)
);
},
{
closed = 1;
nodes = (
(256,0,l),
(256,760,l),
(72,760,l),
(72,0,l)
);
}
);
width = 819;
},
{
anchors = (
{
name = bottom;
pos = (360,0);
},
{
name = center;
pos = (207,380);
},
{
name = top;
pos = (360,760);
}
);
associatedMasterId = m01;
layerId = "4FF11E0D-969E-4EDE-8B81-555F0CE367E7";
name = "1 Jun 26 at 15:15";
shapes = (
{
closed = 1;
nodes = (
(370,0,ls),
(608,0,o),
(758,147,o),
(758,380,cs),
(758,613,o),
(608,760,o),
(370,760,cs),
(147,760,l),
(147,712,l),
(370,712,ls),
(574,712,o),
(702,584,o),
(702,380,cs),
(702,176,o),
(574,48,o),
(370,48,cs),
(147,48,l),
(147,0,l)
);
},
{
closed = 1;
nodes = (
(158,0,l),
(158,760,l),
(104,760,l),
(104,0,l)
);
}
);
width = 838;
},
{
anchors = (
{
name = bottom;
pos = (372,0);
},
{
name = center;
pos = (204,380);
},
{
name = top;
pos = (372,760);
}
);
associatedMasterId = "7F4E18E3-41A5-4521-AA8A-AE39B7B68B38";
layerId = "2EE8FE57-DF25-490E-AFF9-6589B7A7826D";
name = "1 Jun 26 at 15:15";
shapes = (
{
closed = 1;
nodes = (
(379,0,ls),
(627,0,o),
(782,147,o),
(782,380,cs),
(782,613,o),
(627,760,o),
(379,760,cs),
(188,760,l),
(188,602,l),
(363,602,ls),
(512,602,o),
(595,522,o),
(595,380,cs),
(595,238,o),
(512,158,o),
(363,158,cs),
(188,158,l),
(188,0,l)
);
},
{
closed = 1;
nodes = (
(256,0,l),
(256,760,l),
(72,760,l),
(72,0,l)
);
}
);
width = 831;
}
);
metricLeft = "=H";
metricRight = "=O";
unicode = 68;
},
{
glyphname = Dhook;
kernRight = KO_D;
lastChange = "2026-06-14 22:20:33 +0000";
layers = (
{
layerId = m01;
shapes = (
{
closed = 1;
nodes = (
(488,0,l),
(726,0,o),
(876,147,o),
(876,380,cs),
(876,613,o),
(726,760,o),
(488,760,c),
(184,760,ls),
(103,760,o),
(58,724,o),
(58,660,cs),
(58,586,l),
(112,586,l),
(112,660,ls),
(112,696,o),
(134,712,o),
(184,712,cs),
(222,712,l),
(222,0,l)
);
},
{
closed = 1;
nodes = (
(276,712,l),
(488,712,ls),
(692,712,o),
(820,584,o),
(820,380,cs),
(820,176,o),
(692,48,o),
(488,48,cs),
(276,48,l)
);
}
);
width = 956;
},
{
layerId = "7F4E18E3-41A5-4521-AA8A-AE39B7B68B38";
shapes = (
{
closed = 1;
nodes = (
(577,0,l),
(825,0,o),
(980,147,o),
(980,380,cs),
(980,613,o),
(825,760,o),
(577,760,c),
(258,760,ls),
(113,760,o),
(32,687,o),
(32,556,cs),
(32,488,l),
(193,488,l),
(193,542,ls),
(193,584,o),
(207,602,o),
(240,602,cs),
(270,602,l),
(270,0,l)
);
},
{
closed = 1;
nodes = (
(454,602,l),
(561,602,ls),
(710,602,o),
(793,522,o),
(793,380,cs),
(793,238,o),
(710,158,o),
(561,158,cs),
(454,158,l)
);
}
);
width = 1029;
},
{
associatedMasterId = m01;
layerId = "E19DB903-4CB0-4E17-8A5A-E2F3EB72AF2D";
name = "1 Jun 26 at 15:16";
shapes = (
{
closed = 1;
nodes = (
(488,0,ls),
(726,0,o),
(876,147,o),
(876,380,cs),
(876,613,o),
(726,760,o),
(488,760,cs),
(265,760,l),
(265,712,l),
(488,712,ls),
(692,712,o),
(820,584,o),
(820,380,cs),
(820,176,o),
(692,48,o),
(488,48,cs),
(265,48,l),
(265,0,l)
);
},
{
closed = 1;
nodes = (
(276,0,l),
(276,760,l),
(222,760,l),
(222,0,l)
);
},
{
closed = 1;
nodes = (
(112,586,l),
(112,660,ls),
(112,696,o),
(134,712,o),
(184,712,cs),
(229,712,l),
(229,760,l),
(184,760,ls),
(103,760,o),
(58,724,o),
(58,660,cs),
(58,586,l)
);
}
);
width = 956;
},
{
associatedMasterId = "7F4E18E3-41A5-4521-AA8A-AE39B7B68B38";
layerId = "CB720593-C7AF-4A94-9833-E9FB62716651";
name = "1 Jun 26 at 15:16";
shapes = (
{
closed = 1;
nodes = (
(577,0,ls),
(825,0,o),
(980,147,o),
(980,380,cs),
(980,613,o),
(825,760,o),
(577,760,cs),
(386,760,l),
(386,602,l),
(561,602,ls),
(710,602,o),
(793,522,o),
(793,380,cs),
(793,238,o),
(710,158,o),
(561,158,cs),
(386,158,l),
(386,0,l)
);
},
{
closed = 1;
nodes = (
(454,0,l),
(454,760,l),
(270,760,l),
(270,0,l)
);
},
{
closed = 1;
nodes = (
(193,488,l),
(193,542,ls),
(193,584,o),
(207,602,o),
(240,602,c),
(299,602,l),
(299,760,l),
(258,760,l),
(113,760,o),
(32,687,o),
(32,556,cs),
(32,488,l)
);
}
);
width = 1029;
}
);
metricLeft = "=o";
metricRight = "=D";
unicode = 394;
},
{
glyphname = E;
kernLeft = KO_N;
kernRight = KO_E;
lastChange = "2026-06-14 22:20:33 +0000";
layers = (
{
anchors = (
{
name = bottom;
pos = (325,0);
},
{
name = ogonek;
pos = (586,0);
},
{
name = top;
pos = (335,760);
},
{
name = topleft;
pos = (44,760);
}
);
guides = (
{
angle = 90;
pos = (586,132);
}
);
layerId = m01;
shapes = (
{
closed = 1;
nodes = (
(158,0,l),
(158,760,l),
(104,760,l),
(104,0,l)
);
},
{
closed = 1;
nodes = (
(503,389,l),
(503,437,l),
(129,437,l),
(129,389,l)
);
},
{
closed = 1;
nodes = (
(577,712,l),
(577,760,l),
(129,760,l),
(129,712,l)
);
},
{
closed = 1;
nodes = (
(586,0,l),
(586,48,l),
(129,48,l),
(129,0,l)
);
}
);
width = 669;
},
{
anchors = (
{
name = bottom;
pos = (348,0);
},
{
name = ogonek;
pos = (623,0);
},
{
name = top;
pos = (338,760);
},
{
name = topleft;
pos = (46,760);
}
);
layerId = "7F4E18E3-41A5-4521-AA8A-AE39B7B68B38";
shapes = (
{
closed = 1;
nodes = (
(256,0,l),
(256,760,l),
(72,760,l),
(72,0,l)
);
},
{
closed = 1;
nodes = (
(555,316,l),
(555,474,l),
(134,474,l),
(134,316,l)
);
},
{
closed = 1;
nodes = (
(614,602,l),
(614,760,l),
(134,760,l),
(134,602,l)
);
},
{
closed = 1;
nodes = (
(623,0,l),
(623,158,l),
(134,158,l),
(134,0,l)
);
}
);
width = 681;
},
{
anchors = (
{
name = bottom;
pos = (301,0);
},
{
name = ogonek;
pos = (522,0);
},
{
name = top;
pos = (301,760);
},
{
name = topleft;
pos = (20,760);
}
);
associatedMasterId = m01;
guides = (
{
angle = 90;
pos = (542,24);
}
);
layerId = "C497D534-9F88-4427-861E-16C7A2FB308B";
name = "30 Nov 24 at 10:15";
shapes = (
{
closed = 1;
nodes = (
(133,0,l),
(133,760,l),
(80,760,l),
(80,0,l)
);
},
{
closed = 1;
nodes = (
(459,377,l),
(459,425,l),
(105,425,l),
(105,377,l)
);
},
{
closed = 1;
nodes = (
(533,712,l),
(533,760,l),
(105,760,l),
(105,712,l)
);
},
{
closed = 1;
nodes = (
(542,0,l),
(542,48,l),
(105,48,l),
(105,0,l)
);
}
);
width = 622;
},
{
anchors = (
{
name = bottom;
pos = (301,0);
},
{
name = ogonek;
pos = (562,0);
},
{
name = top;
pos = (301,760);
},
{
name = topleft;
pos = (20,760);
}
);
associatedMasterId = "7F4E18E3-41A5-4521-AA8A-AE39B7B68B38";
layerId = "AB6A5B21-9681-49FB-8177-AB07342FE70D";
name = "30 Nov 24 at 10:35";
shapes = (
{
closed = 1;
nodes = (
(270,0,l),
(270,760,l),
(40,760,l),
(40,0,l)
);
},
{
closed = 1;
nodes = (
(519,298,l),
(519,468,l),
(65,468,l),
(65,298,l)
);
},
{
closed = 1;
nodes = (
(573,590,l),
(573,760,l),
(65,760,l),
(65,590,l)
);
},
{
closed = 1;
nodes = (
(582,0,l),
(582,170,l),
(65,170,l),
(65,0,l)
);
}
);
width = 622;
},
{
anchors = (
{
name = bottom;
pos = (307,0);
},
{
name = ogonek;
pos = (568,0);
},
{
name = top;
pos = (307,760);
},
{
name = topleft;
pos = (26,760);
}
);
associatedMasterId = "7F4E18E3-41A5-4521-AA8A-AE39B7B68B38";
background = {
shapes = (
{
closed = 1;
nodes = (
(726,0,l),
(726,760,l),
(496,760,l),
(496,0,l)
);
},
{
closed = 1;
nodes = (
(276,0,l),
(276,760,l),
(46,760,l),
(46,0,l)
);
},
{
closed = 1;
nodes = (
(539,287,l),
(539,487,l),
(234,487,l),
(234,287,l)
);
}
);
};
layerId = "2BC4FCDE-DE76-42E0-B76C-B005FC3E4DD8";
name = "8 Dec 24 at 19:18";
shapes = (
{
closed = 1;
nodes = (
(276,0,l),
(276,760,l),
(46,760,l),
(46,0,l)
);
},
{
closed = 1;
nodes = (
(565,290,l),
(565,475,l),
(71,475,l),
(71,290,l)
);
},
{
closed = 1;
nodes = (
(619,570,l),
(619,760,l),
(71,760,l),
(71,570,l)
);
},
{
closed = 1;
nodes = (
(628,0,l),
(628,190,l),
(71,190,l),
(71,0,l)
);
}
);
width = 674;
},
{
anchors = (
{
name = bottom;
pos = (325,0);
},
{
name = ogonek;
pos = (586,0);
},
{
name = top;
pos = (325,760);
},
{
name = topleft;
pos = (44,760);
}
);
associatedMasterId = m01;
guides = (
{
angle = 90;
pos = (586,132);
}
);
layerId = "70E27F9B-BB47-4ECA-A75A-E0B344BF3A42";
name = "31 Jan 25 at 17:01";
shapes = (
{
closed = 1;
nodes = (
(157,0,l),
(157,760,l),
(104,760,l),
(104,0,l)
);
},
{
closed = 1;
nodes = (
(503,377,l),
(503,427,l),
(129,427,l),
(129,377,l)
);
},
{
closed = 1;
nodes = (
(577,710,l),
(577,760,l),
(129,760,l),
(129,710,l)
);
},
{
closed = 1;
nodes = (
(586,0,l),
(586,50,l),
(129,50,l),
(129,0,l)
);
}
);
width = 690;
}
);
metricLeft = H;
metricRight = "=H*0.8";
unicode = 69;
userData = {
KernOnName = E;
};
},
{
glyphname = Eopen;
lastChange = "2026-06-14 22:20:33 +0000";
layers = (
{
anchors = (
{
name = bottom;
pos = (371,0);
},
{
name = top;
pos = (371,760);
}
);
layerId = m01;
shapes = (
{
closed = 1;
nodes = (
(538,-16,o),
(657,72,o),
(662,198,c),
(608,198,l),
(604,101,o),
(507,33,o),
(374,33,cs),
(228,33,o),
(136,107,o),
(136,224,cs),
(136,322,o),
(209,384,o),
(326,384,cs),
(471,384,l),
(471,394,l),
(471,428,l),
(471,431,l),
(326,431,ls),
(225,431,o),
(162,487,o),
(162,576,cs),
(162,669,o),
(244,727,o),
(374,727,cs),
(494,727,o),
(579,666,o),
(581,580,c),
(636,580,l),
(633,695,o),
(525,776,o),
(374,776,cs),
(209,776,o),
(106,699,o),
(106,576,cs),
(106,487,o),
(159,424,o),
(251,402,c),
(252,421,l),
(144,399,o),
(80,327,o),
(80,224,cs),
(80,77,o),
(193,-16,o),
(374,-16,cs)
);
}
);
width = 742;
},
{
anchors = (
{
name = bottom;
pos = (386,0);
},
{
name = top;
pos = (386,760);
}
);
layerId = "7F4E18E3-41A5-4521-AA8A-AE39B7B68B38";
shapes = (
{
closed = 1;
nodes = (
(579,-16,o),
(720,88,o),
(722,235,c),
(542,235,l),
(529,173,o),
(476,143,o),
(381,143,cs),
(287,143,o),
(235,176,o),
(235,235,cs),
(235,289,o),
(285,319,o),
(375,319,cs),
(478,319,l),
(478,363,l),
(478,436,l),
(478,454,l),
(375,454,ls),
(302,454,o),
(256,483,o),
(256,529,cs),
(256,585,o),
(301,617,o),
(381,617,cs),
(460,617,o),
(510,585,o),
(521,529,c),
(701,529,l),
(699,674,o),
(567,776,o),
(381,776,cs),
(198,776,o),
(70,686,o),
(70,557,cs),
(70,475,o),
(115,419,o),
(204,387,c),
(204,413,l),
(102,381,o),
(49,313,o),
(49,217,cs),
(49,74,o),
(177,-16,o),
(381,-16,cs)
);
}
);
width = 771;
},
{
anchors = (
{
name = bottom;
pos = (371,0);
},
{
name = top;
pos = (371,760);
}
);
associatedMasterId = m01;
layerId = "34212A92-DD9F-43DA-B43E-84004841ED32";
name = "1 Jun 26 at 15:19";
shapes = (
{
closed = 1;
nodes = (
(538,-16,o),
(657,72,o),
(662,198,c),
(608,198,l),
(604,101,o),
(507,33,o),
(374,33,cs),
(228,33,o),
(136,107,o),
(136,224,cs),
(136,322,o),
(209,384,o),
(326,384,cs),
(471,384,l),
(471,428,l),
(326,428,l),
(175,428,o),
(80,349,o),
(80,224,cs),
(80,77,o),
(193,-16,o),
(374,-16,cs)
);
},
{
closed = 1;
nodes = (
(471,431,l),
(326,431,ls),
(225,431,o),
(162,487,o),
(162,576,cs),
(162,669,o),
(244,727,o),
(374,727,cs),
(494,727,o),
(579,666,o),
(581,580,c),
(636,580,l),
(633,695,o),
(525,776,o),
(374,776,cs),
(209,776,o),
(106,699,o),
(106,576,cs),
(106,464,o),
(191,394,o),
(326,394,c),
(471,394,l)
);
}
);
width = 742;
},
{
anchors = (
{
name = bottom;
pos = (386,0);
},
{
name = top;
pos = (386,760);
}
);
associatedMasterId = "7F4E18E3-41A5-4521-AA8A-AE39B7B68B38";
layerId = "3E491037-C882-43E2-A51E-B487F9BE085E";
name = "1 Jun 26 at 15:19";
shapes = (
{
closed = 1;
nodes = (
(579,-16,o),
(720,88,o),
(722,235,c),
(542,235,l),
(529,173,o),
(476,143,o),
(381,143,cs),
(287,143,o),
(235,176,o),
(235,235,cs),
(235,289,o),
(285,319,o),
(375,319,c),
(478,319,l),
(478,436,l),
(371,436,ls),
(164,436,o),
(49,357,o),
(49,217,cs),
(49,74,o),
(177,-16,o),
(381,-16,cs)
);
},
{
closed = 1;
nodes = (
(478,454,l),
(375,454,l),
(302,454,o),
(256,483,o),
(256,529,cs),
(256,585,o),
(301,617,o),
(381,617,cs),
(460,617,o),
(510,585,o),
(521,529,c),
(701,529,l),
(699,674,o),
(567,776,o),
(381,776,cs),
(198,776,o),
(70,686,o),
(70,557,cs),
(70,433,o),
(178,363,o),
(371,363,cs),
(478,363,l)
);
}
);
width = 771;
}
);
metricLeft = "=O";
metricRight = "=O";
unicode = 400;
},
{
glyphname = Esh;
lastChange = "2026-06-14 22:20:33 +0000";
layers = (
{
layerId = m01;
shapes = (
{
closed = 1;
nodes = (
(81,0,l),
(634,0,l),
(634,48,l),
(112,48,l),
(128,14,l),
(431,373,l),
(431,388,l),
(135,747,l),
(119,712,l),
(634,712,l),
(634,760,l),
(80,760,l),
(80,733,l),
(403,344,l),
(403,413,l),
(81,32,l)
);
}
);
width = 714;
},
{
layerId = "7F4E18E3-41A5-4521-AA8A-AE39B7B68B38";
shapes = (
{
closed = 1;
nodes = (
(49,0,l),
(641,0,l),
(641,158,l),
(256,158,l),
(273,123,l),
(481,378,l),
(481,388,l),
(279,637,l),
(262,602,l),
(641,602,l),
(641,760,l),
(49,760,l),
(49,667,l),
(308,345,l),
(308,415,l),
(49,97,l)
);
}
);
width = 690;
},
{
associatedMasterId = m01;
layerId = "C3315885-85D8-4870-9FFE-AEC527C6EFC1";
name = "1 Jun 26 at 15:24";
shapes = (
{
closed = 1;
nodes = (
(142,30,l),
(431,373,l),
(431,388,l),
(147,733,l),
(80,733,l),
(384,367,l),
(385,393,l),
(81,32,l)
);
},
{
closed = 1;
nodes = (
(634,0,l),
(634,48,l),
(107,48,l),
(81,32,l),
(81,0,l)
);
},
{
closed = 1;
nodes = (
(634,712,l),
(634,760,l),
(80,760,l),
(80,733,l),
(112,712,l)
);
}
);
width = 714;
},
{
associatedMasterId = "7F4E18E3-41A5-4521-AA8A-AE39B7B68B38";
layerId = "4133A7A5-3C8F-43DA-9D9A-1A2EEA868C9F";
name = "1 Jun 26 at 15:24";
shapes = (
{
closed = 1;
nodes = (
(251,97,l),
(481,378,l),
(481,388,l),
(254,667,l),
(49,667,l),
(291,367,l),
(291,393,l),
(49,97,l)
);
},
{
closed = 1;
nodes = (
(641,0,l),
(641,158,l),
(151,158,l),
(49,97,l),
(49,0,l)
);
},
{
closed = 1;
nodes = (
(641,602,l),
(641,760,l),
(49,760,l),
(49,667,l),
(147,602,l)
);
}
);
width = 690;
}
);
metricLeft = "=O";
metricRight = "=O";
unicode = 425;
},
{
glyphname = Estroke;
lastChange = "2026-06-14 22:20:33 +0000";
layers = (
{
layerId = m01;
shapes = (
{
ref = E;
},
{
closed = 1;
nodes = (
(189,-61,l),
(539,821,l),
(487,821,l),
(137,-61,l)
);
}
);
width = 669;
},
{
layerId = "7F4E18E3-41A5-4521-AA8A-AE39B7B68B38";
shapes = (
{
ref = E;
},
{
closed = 1;
nodes = (
(241,-68,l),
(591,814,l),
(503,814,l),
(153,-68,l)
);
}
);
width = 681;
}
);
metricLeft = "=E";
metricRight = "=E";
unicode = 582;
},
{
glyphname = Schwa;
kernLeft = KO_O;
kernRight = KO_D;
lastChange = "2026-06-14 22:20:33 +0000";
layers = (
{
anchors = (
{
name = bottom;
pos = (331,210);
},
{
name = ogonekabove;
pos = (170,721);
},
{
name = top;
pos = (331,760);
}
);
layerId = m01;
shapes = (
{
closed = 1;
nodes = (
(233,776,o),
(91,652,o),
(80,477,c),
(132,477,l),
(144,624,o),
(265,727,o),
(423,727,cs),
(595,727,o),
(731,575,o),
(731,381,cs),
(731,177,o),
(604,34,o),
(423,34,cs),
(262,34,o),
(136,164,o),
(136,330,c),
(95,316,l),
(769,316,l),
(769,364,l),
(80,364,l),
(75,142,o),
(216,-15,o),
(423,-15,cs),
(636,-15,o),
(787,148,o),
(787,381,cs),
(787,613,o),
(636,776,o),
(423,776,cs)
);
}
);
width = 867;
},
{
anchors = (
{
name = bottom;
pos = (326,188);
},
{
name = ogonekabove;
pos = (162,735);
},
{
name = top;
pos = (331,760);
}
);
layerId = "7F4E18E3-41A5-4521-AA8A-AE39B7B68B38";
shapes = (
{
closed = 1;
nodes = (
(225,776,o),
(63,657,o),
(55,505,c),
(243,505,l),
(260,573,o),
(329,616,o),
(423,616,cs),
(555,616,o),
(638,525,o),
(638,381,cs),
(638,229,o),
(561,144,o),
(423,144,cs),
(306,144,o),
(232,223,o),
(232,349,c),
(182,295,l),
(672,295,l),
(672,438,l),
(50,438,l),
(34,159,o),
(178,-16,o),
(423,-16,cs),
(657,-16,o),
(822,148,o),
(822,381,cs),
(822,612,o),
(657,776,o),
(423,776,cs)
);
}
);
width = 871;
},
{
anchors = (
{
name = bottom;
pos = (331,210);
},
{
name = ogonekabove;
pos = (170,721);
},
{
name = top;
pos = (331,760);
}
);
associatedMasterId = m01;
layerId = "A65C30D8-6FBD-4FED-BDAD-B144BD724834";
name = "1 Jun 26 at 15:25";
shapes = (
{
closed = 1;
nodes = (
(233,776,o),
(91,652,o),
(80,477,c),
(132,477,l),
(144,624,o),
(265,727,o),
(423,727,cs),
(595,727,o),
(731,575,o),
(731,381,cs),
(731,177,o),
(604,34,o),
(423,34,cs),
(262,34,o),
(136,164,o),
(136,330,c),
(95,316,l),
(769,316,l),
(769,364,l),
(80,364,l),
(75,142,o),
(216,-15,o),
(423,-15,cs),
(636,-15,o),
(787,148,o),
(787,381,cs),
(787,613,o),
(636,776,o),
(423,776,cs)
);
}
);
width = 867;
},
{
anchors = (
{
name = bottom;
pos = (326,188);
},
{
name = ogonekabove;
pos = (162,735);
},
{
name = top;
pos = (331,760);
}
);
associatedMasterId = "7F4E18E3-41A5-4521-AA8A-AE39B7B68B38";
layerId = "DC81F8D5-D906-4008-8C65-A0B2779441FD";
name = "1 Jun 26 at 15:25";
shapes = (
{
closed = 1;
nodes = (
(225,776,o),
(63,657,o),
(55,505,c),
(243,505,l),
(260,573,o),
(329,616,o),
(423,616,cs),
(555,616,o),
(638,525,o),
(638,381,cs),
(638,229,o),
(561,144,o),
(423,144,cs),
(306,144,o),
(232,223,o),
(232,349,c),
(182,295,l),
(672,295,l),
(672,438,l),
(50,438,l),
(34,159,o),
(178,-16,o),
(423,-16,cs),
(657,-16,o),
(822,148,o),
(822,381,cs),
(822,612,o),
(657,776,o),
(423,776,cs)
);
}
);
width = 871;
}
);
metricLeft = "=O";
metricRight = "=O";
unicode = 399;
},
{
glyphname = Ezh;
lastChange = "2026-06-14 22:20:33 +0000";
layers = (
{
anchors = (
{
name = bottom;
pos = (341,0);
},
{
name = top;
pos = (341,760);
}
);
layerId = m01;
shapes = (
{
closed = 1;
nodes = (
(494,-16,o),
(602,85,o),
(602,229,cs),
(602,375,o),
(479,475,o),
(306,464,c),
(313,430,l),
(556,721,l),
(556,760,l),
(132,760,l),
(132,712,l),
(530,712,l),
(514,746,l),
(278,465,l),
(278,421,l),
(333,421,ls),
(459,421,o),
(547,342,o),
(547,229,cs),
(547,113,o),
(462,32,o),
(340,32,cs),
(223,32,o),
(137,101,o),
(133,198,c),
(80,198,l),
(85,72,o),
(192,-16,o),
(340,-16,cs)
);
}
);
width = 682;
},
{
anchors = (
{
name = bottom;
pos = (356,0);
},
{
name = top;
pos = (356,760);
}
);
layerId = "7F4E18E3-41A5-4521-AA8A-AE39B7B68B38";
shapes = (
{
closed = 1;
nodes = (
(546,-16,o),
(662,85,o),
(662,245,cs),
(662,373,o),
(576,461,o),
(431,489,c),
(436,447,l),
(618,656,l),
(618,760,l),
(99,760,l),
(99,602,l),
(399,602,l),
(383,636,l),
(249,481,l),
(249,381,l),
(326,381,ls),
(418,381,o),
(476,335,o),
(476,261,cs),
(476,184,o),
(431,135,o),
(360,135,cs),
(290,135,o),
(243,171,o),
(229,235,c),
(49,235,l),
(51,88,o),
(179,-16,o),
(360,-16,cs)
);
}
);
width = 711;
},
{
anchors = (
{
name = bottom;
pos = (341,0);
},
{
name = top;
pos = (341,760);
}
);
associatedMasterId = m01;
layerId = "BF7B6506-CA48-489A-B397-66D0A7E029A6";
name = "27 Apr 26 at 15:55";
shapes = (
{
closed = 1;
nodes = (
(494,-16,o),
(602,79,o),
(602,214,cs),
(602,350,o),
(498,435,o),
(333,435,c),
(278,435,l),
(278,391,l),
(333,391,ls),
(464,391,o),
(547,323,o),
(547,214,cs),
(547,107,o),
(462,32,o),
(340,32,cs),
(223,32,o),
(137,101,o),
(133,198,c),
(80,198,l),
(85,72,o),
(192,-16,o),
(340,-16,cs)
);
},
{
closed = 1;
nodes = (
(540,712,l),
(540,760,l),
(132,760,l),
(132,712,l)
);
},
{
closed = 1;
nodes = (
(309,396,l),
(556,721,l),
(556,760,l),
(525,760,l),
(278,435,l),
(278,396,l)
);
}
);
width = 682;
},
{
anchors = (
{
name = bottom;
pos = (356,0);
},
{
name = top;
pos = (356,760);
}
);
associatedMasterId = "7F4E18E3-41A5-4521-AA8A-AE39B7B68B38";
layerId = "706E77D5-8058-4F05-8037-FD29EBB7A47F";
name = "27 Apr 26 at 15:55";
shapes = (
{
closed = 1;
nodes = (
(546,-16,o),
(662,81,o),
(662,235,cs),
(662,384,o),
(538,478,o),
(340,478,cs),
(284,478,l),
(284,361,l),
(336,361,l),
(426,361,o),
(476,322,o),
(476,251,cs),
(476,177,o),
(434,135,o),
(360,135,cs),
(290,135,o),
(243,171,o),
(229,235,c),
(49,235,l),
(51,88,o),
(179,-16,o),
(360,-16,cs)
);
},
{
closed = 1;
nodes = (
(513,602,l),
(513,760,l),
(99,760,l),
(99,602,l)
);
},
{
closed = 1;
nodes = (
(390,361,l),
(618,656,l),
(618,760,l),
(490,760,l),
(259,461,l),
(259,361,l)
);
}
);
width = 711;
},
{
anchors = (
{
name = bottom;
pos = (341,0);
},
{
name = top;
pos = (341,760);
}
);
associatedMasterId = m01;
layerId = "55E97B07-96D1-4F44-8991-3C7B5C8B5655";
name = "1 Jun 26 at 15:25";
shapes = (
{
closed = 1;
nodes = (
(494,-16,o),
(602,85,o),
(602,229,cs),
(602,368,o),
(491,465,o),
(333,465,c),
(278,465,l),
(278,421,l),
(333,421,ls),
(459,421,o),
(547,342,o),
(547,229,cs),
(547,113,o),
(462,32,o),
(340,32,cs),
(223,32,o),
(137,101,o),
(133,198,c),
(80,198,l),
(85,72,o),
(192,-16,o),
(340,-16,cs)
);
},
{
closed = 1;
nodes = (
(540,712,l),
(540,760,l),
(132,760,l),
(132,712,l)
);
},
{
closed = 1;
nodes = (
(309,426,l),
(556,721,l),
(556,760,l),
(525,760,l),
(278,465,l),
(278,426,l)
);
}
);
width = 682;
},
{
anchors = (
{
name = bottom;
pos = (356,0);
},
{
name = top;
pos = (356,760);
}
);
associatedMasterId = "7F4E18E3-41A5-4521-AA8A-AE39B7B68B38";
layerId = "E20A7E59-8E80-4DC3-904C-FE9D1A8C755A";
name = "1 Jun 26 at 15:25";
shapes = (
{
closed = 1;
nodes = (
(546,-16,o),
(662,85,o),
(662,245,cs),
(662,400,o),
(534,498,o),
(330,498,cs),
(274,498,l),
(274,381,l),
(326,381,l),
(418,381,o),
(476,335,o),
(476,261,cs),
(476,184,o),
(431,135,o),
(360,135,cs),
(290,135,o),
(243,171,o),
(229,235,c),
(49,235,l),
(51,88,o),
(179,-16,o),
(360,-16,cs)
);
},
{
closed = 1;
nodes = (
(513,602,l),
(513,760,l),
(99,760,l),
(99,602,l)
);
},
{
closed = 1;
nodes = (
(380,381,l),
(618,656,l),
(618,760,l),
(490,760,l),
(249,481,l),
(249,381,l)
);
}
);
width = 711;
}
);
metricLeft = "=S";
metricRight = "=S";
unicode = 439;
},
{
glyphname = F;
kernLeft = KO_N;
kernRight = KO_F;
lastChange = "2026-06-14 22:20:33 +0000";
layers = (
{
anchors = (
{
name = bottom;
pos = (315,0);
},
{
name = top;
pos = (315,760);
}
);
layerId = m01;
shapes = (
{
closed = 1;
nodes = (
(158,0,l),
(158,760,l),
(104,760,l),
(104,0,l)
);
},
{
closed = 1;
nodes = (
(493,375,l),
(493,423,l),
(129,423,l),
(129,375,l)
);
},
{
closed = 1;
nodes = (
(557,712,l),
(557,760,l),
(129,760,l),
(129,712,l)
);
}
);
width = 630;
},
{
anchors = (
{
name = bottom;
pos = (330,0);
},
{
name = top;
pos = (330,760);
}
);
layerId = "7F4E18E3-41A5-4521-AA8A-AE39B7B68B38";
shapes = (
{
closed = 1;
nodes = (
(256,0,l),
(256,760,l),
(72,760,l),
(72,0,l)
);
},
{
closed = 1;
nodes = (
(550,296,l),
(550,454,l),
(134,454,l),
(134,296,l)
);
},
{
closed = 1;
nodes = (
(609,602,l),
(609,760,l),
(134,760,l),
(134,602,l)
);
}
);
width = 659;
},
{
associatedMasterId = m01;
layerId = "1D28FEFF-12ED-4901-9673-E80879C5EC5A";
name = "30 Nov 24 at 10:35";
shapes = (
{
closed = 1;
nodes = (
(133,0,l),
(133,760,l),
(80,760,l),
(80,0,l)
);
},
{
closed = 1;
nodes = (
(469,367,l),
(469,415,l),
(105,415,l),
(105,367,l)
);
},
{
closed = 1;
nodes = (
(533,712,l),
(533,760,l),
(105,760,l),
(105,712,l)
);
}
);
width = 613;
},
{
associatedMasterId = "7F4E18E3-41A5-4521-AA8A-AE39B7B68B38";
layerId = "F6E7E1A1-8079-4041-B35A-F262C1BB2A8B";
name = "30 Nov 24 at 10:35";
shapes = (
{
closed = 1;
nodes = (
(270,0,l),
(270,760,l),
(40,760,l),
(40,0,l)
);
},
{
closed = 1;
nodes = (
(519,278,l),
(519,448,l),
(65,448,l),
(65,278,l)
);
},
{
closed = 1;
nodes = (
(573,590,l),
(573,760,l),
(65,760,l),
(65,590,l)
);
}
);
width = 613;
},
{
associatedMasterId = "7F4E18E3-41A5-4521-AA8A-AE39B7B68B38";
layerId = "4CDDC1BE-D82C-430A-9888-2A90BF8AB8CC";
name = "8 Dec 24 at 19:20";
shapes = (
{
closed = 1;
nodes = (
(276,0,l),
(276,760,l),
(46,760,l),
(46,0,l)
);
},
{
closed = 1;
nodes = (
(565,263,l),
(565,448,l),
(71,448,l),
(71,263,l)
);
},
{
closed = 1;
nodes = (
(619,570,l),
(619,760,l),
(71,760,l),
(71,570,l)
);
}
);
width = 665;
}
);
metricLeft = "=H";
metricRight = "=H*0.7";
unicode = 70;
userData = {
KernOnName = F;
};
},
{
glyphname = Fhook;
kernLeft = KO_N;
kernRight = KO_F;
lastChange = "2026-06-14 22:20:33 +0000";
layers = (
{
layerId = m01;
shapes = (
{
closed = 1;
nodes = (
(-1,-240,l),
(114,-240,o),
(158,-188,o),
(158,-54,cs),
(158,760,l),
(104,760,l),
(104,-64,ls),
(104,-160,o),
(80,-192,o),
(9,-192,cs),
(-63,-192,l),
(-63,-240,l)
);
},
{
closed = 1;
nodes = (
(493,375,l),
(493,423,l),
(129,423,l),
(129,375,l)
);
},
{
closed = 1;
nodes = (
(557,712,l),
(557,760,l),
(129,760,l),
(129,712,l)
);
}
);
width = 630;
},
{
layerId = "7F4E18E3-41A5-4521-AA8A-AE39B7B68B38";
shapes = (
{
closed = 1;
nodes = (
(-23,-240,l),
(171,-240,o),
(256,-167,o),
(256,0,cs),
(256,760,l),
(72,760,l),
(72,-32,ls),
(72,-64,o),
(54,-82,o),
(23,-82,cs),
(-59,-82,l),
(-59,-240,l)
);
},
{
closed = 1;
nodes = (
(550,296,l),
(550,454,l),
(134,454,l),
(134,296,l)
);
},
{
closed = 1;
nodes = (
(609,602,l),
(609,760,l),
(134,760,l),
(134,602,l)
);
}
);
width = 659;
}
);
metricLeft = "=F@100";
metricRight = "=F";
unicode = 401;
},
{
glyphname = G;
kernLeft = KO_O;
kernRight = KO_G;
lastChange = "2026-06-14 22:20:33 +0000";
layers = (
{
anchors = (
{
name = bottom;
pos = (442,0);
},
{
name = top;
pos = (442,760);
}
);
guides = (
{
angle = 90;
pos = (442,65);
}
);
layerId = "7F4E18E3-41A5-4521-AA8A-AE39B7B68B38";
shapes = (
{
closed = 1;
nodes = (
(560,-16,o),
(644,37,o),
(684,131,c),
(657,147,l),
(706,0,l),
(803,0,l),
(803,444,l),
(441,444,l),
(441,298,l),
(678,298,l),
(634,333,l),
(637,207,o),
(573,144,o),
(442,144,cs),
(321,144,o),
(236,241,o),
(236,380,cs),
(236,519,o),
(321,616,o),
(442,616,cs),
(516,616,o),
(584,575,o),
(596,510,c),
(779,510,l),
(769,666,o),
(622,776,o),
(442,776,cs),
(211,776,o),
(49,613,o),
(49,380,cs),
(49,147,o),
(211,-16,o),
(442,-16,cs)
);
}
);
width = 875;
},
{
associatedMasterId = m01;
backgroundImage = {
imagePath = "/var/folders/5k/6t5s5z6x64zbq6w952rby05w0000gn/T/TemporaryItems/NSIRD_screencaptureui_qhIZL0/Screenshot 2024-11-20 at 1.40.06 pm.png";
locked = 1;
pos = (16,-160);
scale = (4.6155,4.6155);
};
layerId = "522354C9-46FB-4E3F-AE08-DF8C6738DB28";
name = "20 Nov 24 at 13:45";
shapes = (
{
closed = 1;
nodes = (
(453,349,l),
(453,302,l),
(650,302,l),
(650,0,l),
(704,0,l),
(704,349,l)
);
},
{
closed = 1;
nodes = (
(236,34,o),
(105,173,o),
(105,350,cs),
(105,527,o),
(236,666,o),
(403,666,cs),
(527,666,o),
(614,597,o),
(614,500,c),
(669,500,l),
(669,627,o),
(559,716,o),
(403,716,cs),
(196,716,o),
(50,565,o),
(50,350,cs),
(50,135,o),
(196,-16,o),
(403,-16,cs),
(535,-16,o),
(603,26,o),
(646,121,c),
(676,121,l),
(676,300,l),
(650,300,l),
(650,137,o),
(562,34,o),
(403,34,cs)
);
}
);
width = 734;
},
{
associatedMasterId = m01;
layerId = "2196F18B-6AA2-4B4C-AA95-822895F1A82E";
name = "20 Nov 24 at 14:11";
shapes = (
{
closed = 1;
nodes = (
(453,349,l),
(453,302,l),
(650,302,l),
(650,0,l),
(704,0,l),
(704,349,l)
);
},
{
closed = 1;
nodes = (
(236,34,o),
(105,173,o),
(105,350,cs),
(105,527,o),
(236,666,o),
(403,666,cs),
(527,666,o),
(624,593,o),
(624,500,c),
(679,500,l),
(679,621,o),
(558,716,o),
(403,716,cs),
(196,716,o),
(50,565,o),
(50,350,cs),
(50,135,o),
(196,-16,o),
(403,-16,cs),
(519,-16,o),
(606,33,o),
(646,121,c),
(676,121,l),
(676,300,l),
(650,300,l),
(650,129,o),
(561,34,o),
(403,34,cs)
);
}
);
width = 754;
},
{
associatedMasterId = "7F4E18E3-41A5-4521-AA8A-AE39B7B68B38";
layerId = "8CE768A2-3A0D-48A1-A727-C2DA497E0DB1";
name = "25 Nov 24 at 20:43";
shapes = (
{
closed = 1;
nodes = (
(431,399,l),
(431,262,l),
(594,262,l),
(594,48,l),
(641,0,l),
(768,0,l),
(768,399,l)
);
},
{
closed = 1;
nodes = (
(325,164,o),
(260,241,o),
(260,350,cs),
(260,459,o),
(317,536,o),
(398,536,cs),
(457,536,o),
(499,505,o),
(499,460,c),
(734,460,l),
(734,610,o),
(595,716,o),
(398,716,cs),
(169,716,o),
(25,575,o),
(25,350,cs),
(25,125,o),
(169,-16,o),
(398,-16,cs),
(475,-16,o),
(545,7,o),
(594,48,c),
(650,48,l),
(650,262,l),
(574,262,l),
(556,196,o),
(504,164,o),
(417,164,cs)
);
}
);
width = 793;
},
{
associatedMasterId = m01;
background = {
shapes = (
{
closed = 1;
nodes = (
(610,-16,o),
(756,135,o),
(756,350,cs),
(756,565,o),
(610,716,o),
(403,716,cs),
(196,716,o),
(50,565,o),
(50,350,cs),
(50,135,o),
(196,-16,o),
(403,-16,cs)
);
},
{
closed = 1;
nodes = (
(228,34,o),
(105,164,o),
(105,350,cs),
(105,536,o),
(228,666,o),
(403,666,cs),
(578,666,o),
(701,536,o),
(701,350,cs),
(701,164,o),
(578,34,o),
(403,34,cs)
);
}
);
};
layerId = "1465B157-22F3-468A-B09E-D9E6D291C719";
name = "26 Nov 24 at 09:25";
shapes = (
{
closed = 1;
nodes = (
(563,-16,o),
(677,52,o),
(709,148,c),
(738,148,l),
(738,306,l),
(709,306,l),
(709,145,o),
(602,34,o),
(432,34,cs),
(240,34,o),
(105,177,o),
(105,380,cs),
(105,583,o),
(240,726,o),
(432,726,cs),
(570,726,o),
(678,645,o),
(678,542,c),
(731,542,l),
(731,673,o),
(599,776,o),
(432,776,cs),
(208,776,o),
(50,613,o),
(50,380,cs),
(50,147,o),
(208,-16,o),
(432,-16,cs)
);
},
{
closed = 1;
nodes = (
(763,0,l),
(763,386,l),
(496,386,l),
(496,338,l),
(709,338,l),
(709,148,l),
(709,0,l)
);
}
);
width = 843;
},
{
associatedMasterId = "7F4E18E3-41A5-4521-AA8A-AE39B7B68B38";
layerId = "FC4FC2EF-80E2-48FD-862F-92F5C0E51A34";
name = "27 Nov 24 at 16:11";
shapes = (
{
closed = 1;
nodes = (
(514,-16,o),
(586,12,o),
(629,63,c),
(690,63,l),
(690,305,l),
(629,305,l),
(629,222,o),
(559,164,o),
(459,164,cs),
(337,164,o),
(260,247,o),
(260,380,cs),
(260,513,o),
(325,596,o),
(428,596,cs),
(493,596,o),
(539,559,o),
(549,499,c),
(779,499,l),
(769,669,o),
(633,776,o),
(428,776,cs),
(191,776,o),
(25,613,o),
(25,380,cs),
(25,147,o),
(191,-16,o),
(428,-16,cs)
);
},
{
closed = 1;
nodes = (
(828,0,l),
(828,443,l),
(434,443,l),
(434,283,l),
(629,283,l),
(629,63,l),
(696,0,l)
);
}
);
width = 868;
},
{
anchors = (
{
name = bottom;
pos = (428,0);
},
{
name = top;
pos = (428,760);
}
);
associatedMasterId = "7F4E18E3-41A5-4521-AA8A-AE39B7B68B38";
layerId = "8628596E-1843-4DA2-BB0B-0CFC0159F731";
name = "30 Nov 24 at 10:36";
shapes = (
{
closed = 1;
nodes = (
(526,-16,o),
(605,16,o),
(649,73,c),
(710,73,l),
(710,283,l),
(649,283,l),
(638,207,o),
(570,164,o),
(459,164,cs),
(337,164,o),
(260,247,o),
(260,380,cs),
(260,513,o),
(325,596,o),
(428,596,cs),
(493,596,o),
(539,559,o),
(549,499,c),
(779,499,l),
(769,669,o),
(633,776,o),
(428,776,cs),
(191,776,o),
(25,613,o),
(25,380,cs),
(25,147,o),
(191,-16,o),
(428,-16,cs)
);
},
{
closed = 1;
nodes = (
(828,0,l),
(828,443,l),
(434,443,l),
(434,283,l),
(649,283,l),
(649,73,l),
(716,0,l)
);
}
);
width = 868;
},
{
anchors = (
{
name = bottom;
pos = (432,0);
},
{
name = top;
pos = (432,760);
}
);
associatedMasterId = m01;
background = {
shapes = (
{
closed = 1;
nodes = (
(610,-16,o),
(756,135,o),
(756,350,cs),
(756,565,o),
(610,716,o),
(403,716,cs),
(196,716,o),
(50,565,o),
(50,350,cs),
(50,135,o),
(196,-16,o),
(403,-16,cs)
);
},
{
closed = 1;
nodes = (
(228,34,o),
(105,164,o),
(105,350,cs),
(105,536,o),
(228,666,o),
(403,666,cs),
(578,666,o),
(701,536,o),
(701,350,cs),
(701,164,o),
(578,34,o),
(403,34,cs)
);
}
);
};
layerId = "5F2CB1CA-12D8-4289-8B64-2C78CB751DF2";
name = "30 Nov 24 at 10:38";
shapes = (
{
closed = 1;
nodes = (
(574,-16,o),
(697,52,o),
(729,148,c),
(758,148,l),
(758,306,l),
(729,306,l),
(729,139,o),
(614,34,o),
(432,34,cs),
(240,34,o),
(105,177,o),
(105,380,cs),
(105,583,o),
(240,726,o),
(432,726,cs),
(576,726,o),
(673,655,o),
(683,542,c),
(736,542,l),
(726,679,o),
(600,776,o),
(432,776,cs),
(208,776,o),
(50,613,o),
(50,380,cs),
(50,147,o),
(208,-16,o),
(432,-16,cs)
);
},
{
closed = 1;
nodes = (
(783,0,l),
(783,386,l),
(486,386,l),
(486,338,l),
(729,338,l),
(729,148,l),
(729,0,l)
);
}
);
width = 863;
},
{
anchors = (
{
name = bottom;
pos = (432,0);
},
{
name = top;
pos = (432,760);
}
);
associatedMasterId = m01;
background = {
shapes = (
{
closed = 1;
nodes = (
(610,-16,o),
(756,135,o),
(756,350,cs),
(756,565,o),
(610,716,o),
(403,716,cs),
(196,716,o),
(50,565,o),
(50,350,cs),
(50,135,o),
(196,-16,o),
(403,-16,cs)
);
},
{
closed = 1;
nodes = (
(228,34,o),
(105,164,o),
(105,350,cs),
(105,536,o),
(228,666,o),
(403,666,cs),
(578,666,o),
(701,536,o),
(701,350,cs),
(701,164,o),
(578,34,o),
(403,34,cs)
);
}
);
};
layerId = "2394F626-0842-4F68-84B5-E02A8BD9F058";
name = "2 Dec 24 at 11:46";
shapes = (
{
closed = 1;
nodes = (
(574,-16,o),
(697,52,o),
(729,148,c),
(758,148,l),
(758,371,l),
(729,371,l),
(729,306,l),
(729,139,o),
(614,34,o),
(432,34,cs),
(240,34,o),
(105,177,o),
(105,380,cs),
(105,583,o),
(240,726,o),
(432,726,cs),
(576,726,o),
(673,655,o),
(683,542,c),
(736,542,l),
(726,679,o),
(600,776,o),
(432,776,cs),
(208,776,o),
(50,613,o),
(50,380,cs),
(50,147,o),
(208,-16,o),
(432,-16,cs)
);
},
{
closed = 1;
nodes = (
(782,0,l),
(782,388,l),
(486,388,l),
(486,338,l),
(729,338,l),
(729,148,l),
(729,0,l)
);
}
);
width = 862;
},
{
anchors = (
{
name = bottom;
pos = (438,0);
},
{
name = top;
pos = (438,760);
}
);
associatedMasterId = "7F4E18E3-41A5-4521-AA8A-AE39B7B68B38";
layerId = "D9827D67-A1EF-462B-8EBA-8706A331B3DD";
name = "8 Dec 24 at 22:07";
shapes = (
{
closed = 1;
nodes = (
(536,-16,o),
(615,16,o),
(659,73,c),
(720,73,l),
(720,360,l),
(639,360,l),
(639,283,l),
(631,225,o),
(561,184,o),
(469,184,cs),
(341,184,o),
(270,254,o),
(270,380,cs),
(270,500,o),
(335,576,o),
(438,576,cs),
(502,576,o),
(545,548,o),
(559,499,c),
(789,499,l),
(776,669,o),
(641,776,o),
(438,776,cs),
(201,776,o),
(35,613,o),
(35,380,cs),
(35,147,o),
(201,-16,o),
(438,-16,cs)
);
},
{
closed = 1;
nodes = (
(838,0,l),
(838,443,l),
(444,443,l),
(444,283,l),
(659,283,l),
(659,73,l),
(726,0,l)
);
}
);
width = 884;
},
{
anchors = (
{
name = bottom;
pos = (436,0);
},
{
name = top;
pos = (436,760);
}
);
associatedMasterId = m01;
background = {
shapes = (
{
closed = 1;
nodes = (
(622,-16,o),
(757,102,o),
(771,291,c),
(717,291,l),
(703,133,o),
(589,33,o),
(422,33,cs),
(239,33,o),
(110,176,o),
(110,380,cs),
(110,584,o),
(239,727,o),
(422,727,cs),
(589,727,o),
(703,627,o),
(717,469,c),
(771,469,l),
(757,658,o),
(622,776,o),
(422,776,cs),
(206,776,o),
(54,613,o),
(54,380,cs),
(54,147,o),
(206,-16,o),
(422,-16,cs)
);
}
);
};
layerId = "DFEA312A-AA0E-482B-A0D3-D7EB1646EDCC";
name = "2 Feb 25 at 21:21";
shapes = (
{
closed = 1;
nodes = (
(578,-16,o),
(701,52,o),
(733,148,c),
(762,148,l),
(762,371,l),
(733,371,l),
(733,306,l),
(733,139,o),
(618,34,o),
(436,34,cs),
(244,34,o),
(109,177,o),
(109,380,cs),
(109,583,o),
(244,726,o),
(436,726,cs),
(567,726,o),
(671,650,o),
(687,542,c),
(740,542,l),
(723,679,o),
(597,776,o),
(436,776,cs),
(212,776,o),
(54,613,o),
(54,380,cs),
(54,147,o),
(212,-16,o),
(436,-16,cs)
);
},
{
closed = 1;
nodes = (
(786,0,l),
(786,388,l),
(490,388,l),
(490,338,l),
(733,338,l),
(733,148,l),
(733,0,l)
);
}
);
width = 870;
},
{
anchors = (
{
name = bottom;
pos = (452,0);
},
{
name = top;
pos = (452,760);
}
);
associatedMasterId = "7F4E18E3-41A5-4521-AA8A-AE39B7B68B38";
layerId = "88B64B75-7BAE-4B04-8607-1EE9168405DC";
name = "3 Feb 25 at 15:47";
shapes = (
{
closed = 1;
nodes = (
(546,-16,o),
(631,18,o),
(673,73,c),
(734,73,l),
(734,360,l),
(673,360,l),
(673,292,l),
(673,205,o),
(591,144,o),
(475,144,cs),
(328,144,o),
(236,235,o),
(236,380,cs),
(236,525,o),
(319,616,o),
(452,616,cs),
(527,616,o),
(585,575,o),
(602,510,c),
(785,510,l),
(775,666,o),
(638,776,o),
(452,776,cs),
(215,776,o),
(49,613,o),
(49,380,cs),
(49,147,o),
(215,-16,o),
(452,-16,cs)
);
},
{
closed = 1;
nodes = (
(833,0,l),
(833,444,l),
(466,444,l),
(466,298,l),
(673,298,l),
(673,73,l),
(736,0,l)
);
}
);
width = 905;
},
{
anchors = (
{
name = bottom;
pos = (448,0);
},
{
name = top;
pos = (448,760);
}
);
associatedMasterId = m01;
background = {
shapes = (
{
closed = 1;
nodes = (
(648,-16,o),
(783,102,o),
(797,291,c),
(743,291,l),
(729,133,o),
(615,33,o),
(448,33,cs),
(265,33,o),
(136,176,o),
(136,380,cs),
(136,584,o),
(265,727,o),
(448,727,cs),
(615,727,o),
(729,627,o),
(743,469,c),
(797,469,l),
(783,658,o),
(648,776,o),
(448,776,cs),
(232,776,o),
(80,613,o),
(80,380,cs),
(80,147,o),
(232,-16,o),
(448,-16,cs)
);
}
);
};
layerId = "4BF4CF0E-A891-4800-8A46-EFB25F865E7C";
name = "23 Feb 25 at 16:10";
shapes = (
{
closed = 1;
nodes = (
(665,-16,o),
(801,119,o),
(801,333,c),
(763,333,l),
(763,149,o),
(642,33,o),
(448,33,cs),
(265,33,o),
(136,176,o),
(136,380,cs),
(136,584,o),
(265,727,o),
(448,727,cs),
(587,727,o),
(697,651,o),
(713,542,c),
(766,542,l),
(749,679,o),
(618,776,o),
(448,776,cs),
(232,776,o),
(80,613,o),
(80,380,cs),
(80,147,o),
(232,-16,o),
(448,-16,cs)
);
},
{
closed = 1;
nodes = (
(817,0,l),
(817,398,l),
(520,398,l),
(520,350,l),
(763,350,l),
(763,165,l),
(763,0,l)
);
}
);
width = 921;
},
{
anchors = (
{
name = bottom;
pos = (448,0);
},
{
name = top;
pos = (448,760);
}
);
associatedMasterId = m01;
background = {
shapes = (
{
closed = 1;
nodes = (
(648,-16,o),
(783,102,o),
(797,291,c),
(743,291,l),
(729,133,o),
(615,33,o),
(448,33,cs),
(265,33,o),
(136,176,o),
(136,380,cs),
(136,584,o),
(265,727,o),
(448,727,cs),
(615,727,o),
(729,627,o),
(743,469,c),
(797,469,l),
(783,658,o),
(648,776,o),
(448,776,cs),
(232,776,o),
(80,613,o),
(80,380,cs),
(80,147,o),
(232,-16,o),
(448,-16,cs)
);
}
);
};
layerId = "13452600-5BB3-4F31-9E5A-B4175359EDAD";
name = "24 Feb 25 at 21:44";
shapes = (
{
closed = 1;
nodes = (
(665,-16,o),
(801,119,o),
(801,333,c),
(763,333,l),
(763,149,o),
(642,33,o),
(448,33,cs),
(265,33,o),
(136,176,o),
(136,380,cs),
(136,584,o),
(265,727,o),
(448,727,cs),
(587,727,o),
(697,651,o),
(713,542,c),
(766,542,l),
(749,679,o),
(618,776,o),
(448,776,cs),
(232,776,o),
(80,613,o),
(80,380,cs),
(80,147,o),
(232,-16,o),
(448,-16,cs)
);
},
{
closed = 1;
nodes = (
(817,0,l),
(817,398,l),
(520,398,l),
(520,350,l),
(763,350,l),
(763,165,l),
(763,0,l)
);
}
);
width = 921;
},
{
anchors = (
{
name = bottom;
pos = (442,0);
},
{
name = top;
pos = (442,760);
}
);
associatedMasterId = "7F4E18E3-41A5-4521-AA8A-AE39B7B68B38";
background = {
shapes = (
{
closed = 1;
nodes = (
(650,-16,o),
(803,120,o),
(813,313,c),
(631,313,l),
(620,214,o),
(542,144,o),
(442,144,cs),
(321,144,o),
(236,241,o),
(236,380,cs),
(236,519,o),
(321,616,o),
(442,616,cs),
(542,616,o),
(620,546,o),
(631,447,c),
(813,447,l),
(803,640,o),
(650,776,o),
(442,776,cs),
(211,776,o),
(49,613,o),
(49,380,cs),
(49,147,o),
(211,-16,o),
(442,-16,cs)
);
}
);
};
guides = (
{
angle = 90;
pos = (442,65);
}
);
layerId = "D54FC6E4-3FBE-4113-8DF1-6A0B21F1641D";
name = "3 Mar 25 at 19:55";
shapes = (
{
closed = 1;
nodes = (
(631,-16,o),
(736,94,o),
(736,292,c),
(633,292,l),
(633,197,o),
(565,144,o),
(442,144,cs),
(321,144,o),
(236,241,o),
(236,380,cs),
(236,519,o),
(321,616,o),
(442,616,cs),
(516,616,o),
(584,575,o),
(596,510,c),
(779,510,l),
(769,666,o),
(622,776,o),
(442,776,cs),
(211,776,o),
(49,613,o),
(49,380,cs),
(49,147,o),
(211,-16,o),
(442,-16,cs)
);
},
{
closed = 1;
nodes = (
(803,0,l),
(803,444,l),
(446,444,l),
(446,298,l),
(633,298,l),
(643,138,l),
(706,0,l)
);
}
);
width = 875;
},
{
anchors = (
{
name = bottom;
pos = (448,0);
},
{
name = top;
pos = (448,760);
}
);
associatedMasterId = m01;
background = {
shapes = (
{
closed = 1;
nodes = (
(645,-16,o),
(780,102,o),
(792,291,c),
(738,291,l),
(726,133,o),
(612,33,o),
(443,33,cs),
(263,33,o),
(136,176,o),
(136,380,cs),
(136,584,o),
(263,727,o),
(443,727,cs),
(612,727,o),
(726,627,o),
(738,469,c),
(792,469,l),
(780,658,o),
(645,776,o),
(443,776,cs),
(230,776,o),
(80,613,o),
(80,380,cs),
(80,147,o),
(230,-16,o),
(443,-16,cs)
);
}
);
};
layerId = "B170FA1F-1686-47F6-AD74-DCBD04159BF4";
name = "3 Mar 25 at 19:58";
shapes = (
{
closed = 1;
nodes = (
(623,-16,o),
(740,79,o),
(769,248,c),
(738,248,l),
(691,104,o),
(593,33,o),
(443,33,cs),
(263,33,o),
(136,176,o),
(136,380,cs),
(136,584,o),
(263,727,o),
(443,727,cs),
(582,727,o),
(692,651,o),
(708,542,c),
(761,542,l),
(744,679,o),
(613,776,o),
(443,776,cs),
(230,776,o),
(80,613,o),
(80,380,cs),
(80,147,o),
(230,-16,o),
(443,-16,cs)
);
},
{
closed = 1;
nodes = (
(792,0,l),
(792,408,l),
(475,408,l),
(475,360,l),
(738,360,l),
(738,165,l),
(738,0,l)
);
}
);
width = 896;
},
{
anchors = (
{
name = bottom;
pos = (448,0);
},
{
name = top;
pos = (448,760);
}
);
background = {
shapes = (
{
closed = 1;
nodes = (
(645,-16,o),
(780,102,o),
(792,291,c),
(738,291,l),
(726,133,o),
(612,33,o),
(443,33,cs),
(263,33,o),
(136,176,o),
(136,380,cs),
(136,584,o),
(263,727,o),
(443,727,cs),
(612,727,o),
(726,627,o),
(738,469,c),
(792,469,l),
(780,658,o),
(645,776,o),
(443,776,cs),
(230,776,o),
(80,613,o),
(80,380,cs),
(80,147,o),
(230,-16,o),
(443,-16,cs)
);
}
);
};
layerId = m01;
name = ExtraLight;
shapes = (
{
closed = 1;
nodes = (
(606,-16,o),
(700,47,o),
(738,186,c),
(726,200,l),
(736,0,l),
(780,0,l),
(780,408,l),
(453,408,l),
(453,360,l),
(771,360,l),
(725,402,l),
(736,145,o),
(652,33,o),
(443,33,cs),
(263,33,o),
(136,176,o),
(136,380,cs),
(136,584,o),
(263,727,o),
(443,727,cs),
(582,727,o),
(692,651,o),
(708,542,c),
(761,542,l),
(744,679,o),
(613,776,o),
(443,776,cs),
(230,776,o),
(80,613,o),
(80,380,cs),
(80,147,o),
(230,-16,o),
(443,-16,cs)
);
}
);
width = 884;
},
{
anchors = (
{
name = bottom;
pos = (448,0);
},
{
name = top;
pos = (448,760);
}
);
associatedMasterId = m01;
background = {
shapes = (
{
closed = 1;
nodes = (
(645,-16,o),
(780,102,o),
(792,291,c),
(738,291,l),
(726,133,o),
(612,33,o),
(443,33,cs),
(263,33,o),
(136,176,o),
(136,380,cs),
(136,584,o),
(263,727,o),
(443,727,cs),
(612,727,o),
(726,627,o),
(738,469,c),
(792,469,l),
(780,658,o),
(645,776,o),
(443,776,cs),
(230,776,o),
(80,613,o),
(80,380,cs),
(80,147,o),
(230,-16,o),
(443,-16,cs)
);
}
);
};
layerId = "3A1A8FF3-BAF4-4C0F-ABA4-0B58E9A41508";
name = "3 Mar 25 at 19:58";
shapes = (
{
closed = 1;
nodes = (
(657,-16,o),
(776,113,o),
(776,343,c),
(738,343,l),
(738,144,o),
(632,33,o),
(443,33,cs),
(263,33,o),
(136,176,o),
(136,380,cs),
(136,584,o),
(263,727,o),
(443,727,cs),
(582,727,o),
(692,651,o),
(708,542,c),
(761,542,l),
(744,679,o),
(613,776,o),
(443,776,cs),
(230,776,o),
(80,613,o),
(80,380,cs),
(80,147,o),
(230,-16,o),
(443,-16,cs)
);
},
{
closed = 1;
nodes = (
(792,0,l),
(792,408,l),
(475,408,l),
(475,360,l),
(738,360,l),
(738,165,l),
(738,0,l)
);
}
);
width = 896;
},
{
anchors = (
{
name = bottom;
pos = (448,0);
},
{
name = top;
pos = (448,760);
}
);
associatedMasterId = m01;
background = {
shapes = (
{
closed = 1;
nodes = (
(645,-16,o),
(780,102,o),
(792,291,c),
(738,291,l),
(726,133,o),
(612,33,o),
(443,33,cs),
(263,33,o),
(136,176,o),
(136,380,cs),
(136,584,o),
(263,727,o),
(443,727,cs),
(612,727,o),
(726,627,o),
(738,469,c),
(792,469,l),
(780,658,o),
(645,776,o),
(443,776,cs),
(230,776,o),
(80,613,o),
(80,380,cs),
(80,147,o),
(230,-16,o),
(443,-16,cs)
);
}
);
};
layerId = "FBD5B95D-98AF-4215-89C6-8FC34F300252";
name = "6 Mar 25 at 16:17";
shapes = (
{
closed = 1;
nodes = (
(664,-16,o),
(761,98,o),
(761,360,c),
(728,360,l),
(728,141,o),
(634,33,o),
(443,33,cs),
(263,33,o),
(136,176,o),
(136,380,cs),
(136,584,o),
(263,727,o),
(443,727,cs),
(582,727,o),
(692,651,o),
(708,542,c),
(761,542,l),
(744,679,o),
(613,776,o),
(443,776,cs),
(230,776,o),
(80,613,o),
(80,380,cs),
(80,147,o),
(230,-16,o),
(443,-16,cs)
);
},
{
closed = 1;
nodes = (
(782,0,l),
(782,408,l),
(455,408,l),
(455,360,l),
(728,360,l),
(728,165,l),
(728,0,l)
);
}
);
width = 886;
},
{
anchors = (
{
name = bottom;
pos = (442,0);
},
{
name = top;
pos = (442,760);
}
);
associatedMasterId = "7F4E18E3-41A5-4521-AA8A-AE39B7B68B38";
background = {
shapes = (
{
closed = 1;
nodes = (
(650,-16,o),
(803,120,o),
(813,313,c),
(631,313,l),
(620,214,o),
(542,144,o),
(442,144,cs),
(321,144,o),
(236,241,o),
(236,380,cs),
(236,519,o),
(321,616,o),
(442,616,cs),
(542,616,o),
(620,546,o),
(631,447,c),
(813,447,l),
(803,640,o),
(650,776,o),
(442,776,cs),
(211,776,o),
(49,613,o),
(49,380,cs),
(49,147,o),
(211,-16,o),
(442,-16,cs)
);
}
);
};
guides = (
{
angle = 90;
pos = (442,65);
}
);
layerId = "D6B6055A-9F1F-4FEA-93BB-36C684CFDC70";
name = "6 Mar 25 at 16:24";
shapes = (
{
closed = 1;
nodes = (
(623,-16,o),
(724,97,o),
(724,298,c),
(633,298,l),
(624,199,o),
(555,144,o),
(442,144,cs),
(321,144,o),
(236,241,o),
(236,380,cs),
(236,519,o),
(321,616,o),
(442,616,cs),
(516,616,o),
(584,575,o),
(596,510,c),
(779,510,l),
(769,666,o),
(622,776,o),
(442,776,cs),
(211,776,o),
(49,613,o),
(49,380,cs),
(49,147,o),
(211,-16,o),
(442,-16,cs)
);
},
{
closed = 1;
nodes = (
(803,0,l),
(803,444,l),
(441,444,l),
(441,298,l),
(643,298,l),
(643,138,l),
(706,0,l)
);
}
);
width = 875;
},
{
anchors = (
{
name = bottom;
pos = (448,0);
},
{
name = top;
pos = (448,760);
}
);
associatedMasterId = m01;
background = {
shapes = (
{
closed = 1;
nodes = (
(645,-16,o),
(780,102,o),
(792,291,c),
(738,291,l),
(726,133,o),
(612,33,o),
(443,33,cs),
(263,33,o),
(136,176,o),
(136,380,cs),
(136,584,o),
(263,727,o),
(443,727,cs),
(612,727,o),
(726,627,o),
(738,469,c),
(792,469,l),
(780,658,o),
(645,776,o),
(443,776,cs),
(230,776,o),
(80,613,o),
(80,380,cs),
(80,147,o),
(230,-16,o),
(443,-16,cs)
);
}
);
};
layerId = "A6779462-089E-446D-A070-571C08BCDC7C";
name = "1 Jun 26 at 15:36";
shapes = (
{
closed = 1;
nodes = (
(662,-16,o),
(758,98,o),
(758,360,c),
(726,360,l),
(726,133,o),
(640,33,o),
(443,33,cs),
(263,33,o),
(136,176,o),
(136,380,cs),
(136,584,o),
(263,727,o),
(443,727,cs),
(582,727,o),
(692,651,o),
(708,542,c),
(761,542,l),
(744,679,o),
(613,776,o),
(443,776,cs),
(230,776,o),
(80,613,o),
(80,380,cs),
(80,147,o),
(230,-16,o),
(443,-16,cs)
);
},
{
closed = 1;
nodes = (
(780,0,l),
(780,408,l),
(453,408,l),
(453,360,l),
(726,360,l),
(726,205,l),
(736,0,l)
);
}
);
width = 884;
},
{
anchors = (
{
name = bottom;
pos = (442,0);
},
{
name = top;
pos = (442,760);
}
);
associatedMasterId = "7F4E18E3-41A5-4521-AA8A-AE39B7B68B38";
guides = (
{
angle = 90;
pos = (442,65);
}
);
layerId = "E5829BFC-71F4-4F9E-80B6-CBE53DBD08E7";
name = "1 Jun 26 at 15:36";
shapes = (
{
closed = 1;
nodes = (
(617,-16,o),
(715,97,o),
(715,298,c),
(633,298,l),
(624,195,o),
(560,144,o),
(442,144,cs),
(321,144,o),
(236,241,o),
(236,380,cs),
(236,519,o),
(321,616,o),
(442,616,cs),
(516,616,o),
(584,575,o),
(596,510,c),
(779,510,l),
(769,666,o),
(622,776,o),
(442,776,cs),
(211,776,o),
(49,613,o),
(49,380,cs),
(49,147,o),
(211,-16,o),
(442,-16,cs)
);
},
{
closed = 1;
nodes = (
(803,0,l),
(803,444,l),
(441,444,l),
(441,298,l),
(643,298,l),
(643,188,l),
(706,0,l)
);
}
);
width = 875;
}
);
metricLeft = "=O";
metricRight = "=H";
unicode = 71;
userData = {
KernOnName = G;
};
},
{
glyphname = Ghook;
lastChange = "2026-06-14 22:20:33 +0000";
layers = (
{
layerId = m01;
shapes = (
{
closed = 1;
nodes = (
(606,-16,o),
(700,47,o),
(738,186,c),
(726,200,l),
(736,0,l),
(780,0,l),
(780,408,l),
(453,408,l),
(453,360,l),
(771,360,l),
(725,402,l),
(736,145,o),
(652,33,o),
(443,33,cs),
(263,33,o),
(136,176,o),
(136,380,cs),
(136,584,o),
(263,727,o),
(443,727,cs),
(582,727,o),
(692,651,o),
(708,542,c),
(710,542,l),
(751,542,l),
(761,542,l),
(761,678,ls),
(761,774,o),
(785,806,o),
(856,806,cs),
(928,806,l),
(928,854,l),
(866,854,ls),
(753,854,o),
(710,802,o),
(710,668,cs),
(710,605,l),
(724,627,l),
(676,717,o),
(570,776,o),
(443,776,cs),
(230,776,o),
(80,613,o),
(80,380,cs),
(80,147,o),
(230,-16,o),
(443,-16,cs)
);
}
);
width = 884;
},
{
layerId = "7F4E18E3-41A5-4521-AA8A-AE39B7B68B38";
shapes = (
{
closed = 1;
nodes = (
(560,-16,o),
(644,37,o),
(684,131,c),
(657,147,l),
(706,0,l),
(803,0,l),
(803,444,l),
(441,444,l),
(441,298,l),
(678,298,l),
(634,333,l),
(637,207,o),
(573,144,o),
(442,144,cs),
(321,144,o),
(236,241,o),
(236,380,cs),
(236,519,o),
(321,616,o),
(442,616,cs),
(516,616,o),
(584,575,o),
(596,510,c),
(625,510,l),
(715,510,l),
(779,510,l),
(779,730,ls),
(779,762,o),
(797,780,o),
(828,780,cs),
(910,780,l),
(910,928,l),
(874,928,ls),
(685,928,o),
(624,867,o),
(625,682,c),
(625,673,l),
(645,703,l),
(601,751,o),
(532,776,o),
(442,776,cs),
(211,776,o),
(49,613,o),
(49,380,cs),
(49,147,o),
(211,-16,o),
(442,-16,cs)
);
}
);
width = 875;
},
{
associatedMasterId = m01;
layerId = "688F6322-5CFC-4B2C-BEB5-40EBC54FDA30";
name = "1 Jun 26 at 15:37";
shapes = (
{
closed = 1;
nodes = (
(662,-16,o),
(758,98,o),
(758,360,c),
(726,360,l),
(726,133,o),
(640,33,o),
(443,33,cs),
(263,33,o),
(136,176,o),
(136,380,cs),
(136,584,o),
(263,727,o),
(443,727,cs),
(582,727,o),
(692,651,o),
(708,542,c),
(751,542,l),
(734,679,o),
(607,776,o),
(443,776,cs),
(230,776,o),
(80,613,o),
(80,380,cs),
(80,147,o),
(230,-16,o),
(443,-16,cs)
);
},
{
closed = 1;
nodes = (
(780,0,l),
(780,408,l),
(453,408,l),
(453,360,l),
(726,360,l),
(726,205,l),
(736,0,l)
);
},
{
closed = 1;
nodes = (
(761,542,l),
(761,678,ls),
(761,774,o),
(785,806,o),
(856,806,cs),
(928,806,l),
(928,854,l),
(866,854,l),
(753,854,o),
(710,802,o),
(710,668,c),
(710,542,l)
);
}
);
width = 884;
},
{
associatedMasterId = "7F4E18E3-41A5-4521-AA8A-AE39B7B68B38";
layerId = "E01E7A9B-11D4-4813-AE53-F936867F24AD";
name = "1 Jun 26 at 15:37";
shapes = (
{
closed = 1;
nodes = (
(617,-16,o),
(715,97,o),
(715,298,c),
(633,298,l),
(624,195,o),
(560,144,o),
(442,144,cs),
(321,144,o),
(236,241,o),
(236,380,cs),
(236,519,o),
(321,616,o),
(442,616,cs),
(516,616,o),
(584,575,o),
(596,510,c),
(715,510,l),
(704,688,o),
(614,776,o),
(442,776,cs),
(211,776,o),
(49,613,o),
(49,380,cs),
(49,147,o),
(211,-16,o),
(442,-16,cs)
);
},
{
closed = 1;
nodes = (
(803,0,l),
(803,444,l),
(441,444,l),
(441,298,l),
(643,298,l),
(643,188,l),
(706,0,l)
);
},
{
closed = 1;
nodes = (
(779,510,l),
(779,730,l),
(779,762,o),
(797,780,o),
(828,780,cs),
(910,780,l),
(910,928,l),
(874,928,l),
(687,928,o),
(625,868,o),
(625,688,cs),
(625,510,l)
);
}
);
width = 912;
}
);
metricLeft = "=G";
metricRight = "=G@50";
unicode = 403;
},
{
glyphname = Glottalstopsmall;
lastChange = "2026-06-14 22:20:33 +0000";
layers = (
{
layerId = m01;
shapes = (
{
closed = 1;
nodes = (
(319,0,l),
(319,154,ls),
(319,346,o),
(528,388,o),
(528,550,cs),
(528,689,o),
(437,776,o),
(292,776,cs),
(151,776,o),
(60,689,o),
(56,550,c),
(110,550,l),
(113,659,o),
(183,727,o),
(292,727,cs),
(403,727,o),
(472,659,o),
(472,550,cs),
(472,406,o),
(265,362,o),
(265,156,cs),
(265,0,l)
);
}
);
width = 584;
},
{
layerId = "7F4E18E3-41A5-4521-AA8A-AE39B7B68B38";
shapes = (
{
closed = 1;
nodes = (
(415,0,l),
(415,93,ls),
(415,244,o),
(619,285,o),
(619,516,cs),
(619,676,o),
(505,776,o),
(323,776,cs),
(157,776,o),
(38,662,o),
(34,501,c),
(215,501,l),
(218,572,o),
(259,616,o),
(322,616,cs),
(390,616,o),
(432,577,o),
(432,516,cs),
(432,342,o),
(231,362,o),
(231,94,cs),
(231,0,l)
);
}
);
width = 653;
}
);
metricLeft = "=question";
metricRight = "=question";
unicode = 577;
},
{
glyphname = Gstroke;
kernLeft = KO_O;
lastChange = "2026-06-14 22:20:33 +0000";
layers = (
{
layerId = m01;
shapes = (
{
ref = G;
},
{
closed = 1;
nodes = (
(845,295,l),
(453,295,l),
(453,251,l),
(845,251,l)
);
}
);
width = 884;
},
{
layerId = "7F4E18E3-41A5-4521-AA8A-AE39B7B68B38";
shapes = (
{
ref = G;
},
{
closed = 1;
nodes = (
(882,273,l),
(441,273,l),
(441,183,l),
(882,183,l)
);
}
);
width = 875;
}
);
metricLeft = "=G";
metricRight = "=G@100";
unicode = 484;
},
{
glyphname = H;
kernLeft = KO_N;
kernRight = KO_H;
lastChange = "2026-06-14 22:20:33 +0000";
layers = (
{
anchors = (
{
name = bottom;
pos = (385,0);
},
{
name = center;
pos = (385,616);
},
{
name = top;
pos = (385,760);
},
{
name = topleft;
pos = (63,760);
}
);
layerId = m01;
shapes = (
{
closed = 1;
nodes = (
(666,0,l),
(666,760,l),
(612,760,l),
(612,0,l)
);
},
{
closed = 1;
nodes = (
(158,0,l),
(158,760,l),
(104,760,l),
(104,0,l)
);
},
{
closed = 1;
nodes = (
(639,378,l),
(639,426,l),
(130,426,l),
(130,378,l)
);
}
);
width = 770;
},
{
anchors = (
{
name = bottom;
pos = (397,0);
},
{
name = center;
pos = (397,593);
},
{
name = top;
pos = (397,760);
},
{
name = topleft;
pos = (39,760);
}
);
layerId = "7F4E18E3-41A5-4521-AA8A-AE39B7B68B38";
shapes = (
{
closed = 1;
nodes = (
(722,0,l),
(722,760,l),
(538,760,l),
(538,0,l)
);
},
{
closed = 1;
nodes = (
(256,0,l),
(256,760,l),
(72,760,l),
(72,0,l)
);
},
{
closed = 1;
nodes = (
(572,311,l),
(572,469,l),
(175,469,l),
(175,311,l)
);
}
);
width = 794;
},
{
associatedMasterId = m01;
layerId = "7250BF6A-9EE0-4CEA-8A6C-13A8281C3F71";
name = "25 Nov 24 at 09:38";
shapes = (
{
closed = 1;
nodes = (
(569,0,l),
(569,700,l),
(516,700,l),
(516,0,l)
);
},
{
closed = 1;
nodes = (
(133,0,l),
(133,700,l),
(80,700,l),
(80,0,l)
);
},
{
closed = 1;
nodes = (
(543,347,l),
(543,395,l),
(105,395,l),
(105,347,l)
);
}
);
width = 649;
},
{
associatedMasterId = "7F4E18E3-41A5-4521-AA8A-AE39B7B68B38";
layerId = "D9B8A6BF-2130-4DFC-B05E-244660DA09E8";
name = "25 Nov 24 at 11:39";
shapes = (
{
closed = 1;
nodes = (
(710,0,l),
(710,700,l),
(477,700,l),
(477,0,l)
);
},
{
closed = 1;
nodes = (
(273,0,l),
(273,700,l),
(40,700,l),
(40,0,l)
);
},
{
closed = 1;
nodes = (
(543,275,l),
(543,445,l),
(228,445,l),
(228,275,l)
);
}
);
width = 750;
},
{
anchors = (
{
name = bottom;
pos = (409,0);
},
{
name = center;
pos = (409,593);
},
{
name = top;
pos = (409,760);
},
{
name = topleft;
pos = (51,760);
}
);
associatedMasterId = "7F4E18E3-41A5-4521-AA8A-AE39B7B68B38";
layerId = "9C8F24DC-E385-449D-BE54-04B8439D4692";
name = "22 Jan 25 at 08:03";
shapes = (
{
closed = 1;
nodes = (
(746,0,l),
(746,760,l),
(562,760,l),
(562,0,l)
);
},
{
closed = 1;
nodes = (
(256,0,l),
(256,760,l),
(72,760,l),
(72,0,l)
);
},
{
closed = 1;
nodes = (
(596,315,l),
(596,473,l),
(175,473,l),
(175,315,l)
);
}
);
width = 818;
},
{
anchors = (
{
name = bottom;
pos = (384,0);
},
{
name = center;
pos = (384,616);
},
{
name = top;
pos = (384,760);
},
{
name = topleft;
pos = (62,760);
}
);
associatedMasterId = m01;
layerId = "4496BDA3-9A1D-4975-BA2E-771082FFF6E1";
name = "31 Jan 25 at 16:47";
shapes = (
{
closed = 1;
nodes = (
(664,0,l),
(664,760,l),
(611,760,l),
(611,0,l)
);
},
{
closed = 1;
nodes = (
(157,0,l),
(157,760,l),
(104,760,l),
(104,0,l)
);
},
{
closed = 1;
nodes = (
(638,377,l),
(638,427,l),
(129,427,l),
(129,377,l)
);
}
);
width = 768;
},
{
anchors = (
{
name = bottom;
pos = (384,0);
},
{
name = center;
pos = (384,616);
},
{
name = top;
pos = (384,760);
},
{
name = topleft;
pos = (62,760);
}
);
associatedMasterId = m01;
layerId = "0A8C9E09-06DA-46E8-862A-9B15D8A2493F";
name = "2 Feb 25 at 10:37";
shapes = (
{
closed = 1;
nodes = (
(664,0,l),
(664,760,l),
(610,760,l),
(610,0,l)
);
},
{
closed = 1;
nodes = (
(158,0,l),
(158,760,l),
(104,760,l),
(104,0,l)
);
},
{
closed = 1;
nodes = (
(638,378,l),
(638,426,l),
(129,426,l),
(129,378,l)
);
}
);
width = 768;
}
);
unicode = 72;
userData = {
KernOnName = H;
};
},
{
glyphname = Hbar;
lastChange = "2026-06-14 22:20:33 +0000";
layers = (
{
layerId = m01;
shapes = (
{
pos = (770,0);
ref = H;
scale = (-1,1);
},
{
pos = (18,44);
ref = strokelongcomb.case;
}
);
width = 770;
},
{
layerId = "7F4E18E3-41A5-4521-AA8A-AE39B7B68B38";
shapes = (
{
pos = (794,0);
ref = H;
scale = (-1,1);
},
{
pos = (-11,-21);
ref = strokelongcomb.case;
}
);
width = 794;
},
{
associatedMasterId = "7F4E18E3-41A5-4521-AA8A-AE39B7B68B38";
layerId = "86B071C7-B6E6-4CD0-BC3E-8ACD24F276F5";
name = "9 Dec 24 at 20:23";
shapes = (
{
pos = (792,0);
ref = H;
scale = (-1,1);
},
{
closed = 1;
nodes = (
(830,663,l),
(-38,663,l),
(-38,558,l),
(830,558,l)
);
}
);
width = 792;
}
);
metricLeft = "=H@100";
metricRight = "=H@100";
unicode = 294;
},
{
glyphname = Heng;
lastChange = "2026-06-14 22:20:33 +0000";
layers = (
{
layerId = m01;
shapes = (
{
closed = 1;
nodes = (
(507,-240,l),
(622,-240,o),
(666,-188,o),
(666,-54,cs),
(666,760,l),
(612,760,l),
(612,-64,ls),
(612,-160,o),
(590,-192,o),
(517,-192,cs),
(425,-192,l),
(425,-240,l)
);
},
{
closed = 1;
nodes = (
(158,0,l),
(158,760,l),
(104,760,l),
(104,0,l)
);
},
{
closed = 1;
nodes = (
(639,378,l),
(639,426,l),
(130,426,l),
(130,378,l)
);
}
);
width = 770;
},
{
layerId = "7F4E18E3-41A5-4521-AA8A-AE39B7B68B38";
shapes = (
{
closed = 1;
nodes = (
(443,-240,l),
(637,-240,o),
(722,-167,o),
(722,0,cs),
(722,760,l),
(538,760,l),
(538,-32,ls),
(538,-64,o),
(521,-82,o),
(490,-82,cs),
(362,-82,l),
(362,-240,l)
);
},
{
closed = 1;
nodes = (
(256,0,l),
(256,760,l),
(72,760,l),
(72,0,l)
);
},
{
closed = 1;
nodes = (
(572,311,l),
(572,469,l),
(175,469,l),
(175,311,l)
);
}
);
width = 794;
}
);
metricLeft = "=H";
metricRight = "=H";
unicode = 42790;
},
{
glyphname = Hhook;
lastChange = "2026-06-14 22:20:33 +0000";
layers = (
{
layerId = m01;
shapes = (
{
closed = 1;
nodes = (
(784,0,l),
(784,760,l),
(730,760,l),
(730,0,l)
);
},
{
closed = 1;
nodes = (
(276,0,l),
(276,760,l),
(222,760,l),
(184,760,ls),
(103,760,o),
(58,724,o),
(58,660,cs),
(58,586,l),
(112,586,l),
(112,660,ls),
(112,696,o),
(134,712,o),
(184,712,cs),
(222,712,l),
(222,0,l)
);
},
{
closed = 1;
nodes = (
(757,378,l),
(757,426,l),
(248,426,l),
(248,378,l)
);
}
);
width = 888;
},
{
layerId = "7F4E18E3-41A5-4521-AA8A-AE39B7B68B38";
shapes = (
{
closed = 1;
nodes = (
(920,0,l),
(920,760,l),
(736,760,l),
(736,0,l)
);
},
{
closed = 1;
nodes = (
(454,0,l),
(454,760,l),
(270,760,l),
(258,760,ls),
(113,760,o),
(32,687,o),
(32,556,cs),
(32,488,l),
(193,488,l),
(193,542,ls),
(193,584,o),
(207,602,o),
(240,602,cs),
(270,602,l),
(270,0,l)
);
},
{
closed = 1;
nodes = (
(770,311,l),
(770,469,l),
(373,469,l),
(373,311,l)
);
}
);
width = 992;
},
{
associatedMasterId = m01;
layerId = "AC251090-BB11-4930-9414-E3196E172960";
name = "1 Jun 26 at 15:39";
shapes = (
{
closed = 1;
nodes = (
(784,0,l),
(784,760,l),
(730,760,l),
(730,0,l)
);
},
{
closed = 1;
nodes = (
(276,0,l),
(276,760,l),
(222,760,l),
(222,0,l)
);
},
{
closed = 1;
nodes = (
(757,378,l),
(757,426,l),
(248,426,l),
(248,378,l)
);
},
{
closed = 1;
nodes = (
(112,586,l),
(112,660,ls),
(112,696,o),
(134,712,o),
(184,712,cs),
(229,712,l),
(229,760,l),
(184,760,ls),
(103,760,o),
(58,724,o),
(58,660,cs),
(58,586,l)
);
}
);
width = 888;
},
{
associatedMasterId = "7F4E18E3-41A5-4521-AA8A-AE39B7B68B38";
layerId = "70BCC346-BED7-42CE-B76F-ABF02B2CFDD7";
name = "1 Jun 26 at 15:39";
shapes = (
{
closed = 1;
nodes = (
(920,0,l),
(920,760,l),
(736,760,l),
(736,0,l)
);
},
{
closed = 1;
nodes = (
(454,0,l),
(454,760,l),
(270,760,l),
(270,0,l)
);
},
{
closed = 1;
nodes = (
(770,311,l),
(770,469,l),
(373,469,l),
(373,311,l)
);
},
{
closed = 1;
nodes = (
(193,488,l),
(193,542,ls),
(193,584,o),
(207,602,o),
(240,602,c),
(299,602,l),
(299,760,l),
(258,760,l),
(113,760,o),
(32,687,o),
(32,556,cs),
(32,488,l)
);
}
);
width = 992;
}
);
metricLeft = "=o";
metricRight = "=H";
unicode = 42922;
},
{
glyphname = Hturned;
lastChange = "2026-06-14 22:20:33 +0000";
layers = (
{
layerId = m01;
shapes = (
{
closed = 1;
nodes = (
(609,358,l),
(609,406,l),
(230,406,ls),
(180,406,o),
(158,422,o),
(158,458,cs),
(158,760,l),
(104,760,l),
(104,458,ls),
(104,394,o),
(149,358,o),
(230,358,cs)
);
},
{
closed = 1;
nodes = (
(636,0,l),
(636,760,l),
(582,760,l),
(582,0,l)
);
}
);
width = 740;
},
{
layerId = "7F4E18E3-41A5-4521-AA8A-AE39B7B68B38";
shapes = (
{
closed = 1;
nodes = (
(552,286,l),
(552,444,l),
(291,444,ls),
(265,444,o),
(256,455,o),
(256,486,cs),
(256,760,l),
(72,760,l),
(72,486,ls),
(72,336,o),
(131,286,o),
(309,286,cs)
);
},
{
closed = 1;
nodes = (
(702,0,l),
(702,760,l),
(518,760,l),
(518,0,l)
);
}
);
width = 774;
}
);
metricLeft = "=H";
metricRight = "=H";
unicode = 42893;
},
{
glyphname = I;
kernLeft = KO_N;
kernRight = KO_H;
lastChange = "2026-06-14 22:20:33 +0000";
layers = (
{
anchors = (
{
name = bottom;
pos = (164,0);
},
{
name = ogonek;
pos = (256,0);
},
{
name = top;
pos = (164,760);
},
{
name = topleft;
pos = (-47,760);
}
);
layerId = "7F4E18E3-41A5-4521-AA8A-AE39B7B68B38";
name = ExtraBold;
shapes = (
{
closed = 1;
nodes = (
(256,0,l),
(256,760,l),
(72,760,l),
(72,0,l)
);
}
);
width = 328;
},
{
anchors = (
{
name = bottom;
pos = (131,0);
},
{
name = ogonek;
pos = (158,0);
},
{
name = top;
pos = (131,760);
},
{
name = topleft;
pos = (-44,760);
}
);
guides = (
{
angle = 90;
pos = (131,767);
}
);
layerId = m01;
name = ExtraLight;
shapes = (
{
closed = 1;
nodes = (
(158,0,l),
(158,760,l),
(104,760,l),
(104,0,l)
);
}
);
width = 262;
},
{
anchors = (
{
name = bottom;
pos = (187,0);
},
{
name = ogonek;
pos = (301,0);
},
{
name = top;
pos = (187,760);
},
{
name = topleft;
pos = (12,760);
}
);
associatedMasterId = m01;
layerId = "4FD1078D-05E7-4697-B594-F02EB1CA3F42";
name = "19 Jan 25 at 14:37";
shapes = (
{
closed = 1;
nodes = (
(213,0,l),
(213,760,l),
(160,760,l),
(160,0,l)
);
},
{
closed = 1;
nodes = (
(331,710,l),
(331,760,l),
(42,760,l),
(42,710,l)
);
},
{
closed = 1;
nodes = (
(331,0,l),
(331,50,l),
(42,50,l),
(42,0,l)
);
}
);
width = 373;
},
{
anchors = (
{
name = bottom;
pos = (227,0);
},
{
name = ogonek;
pos = (418,0);
},
{
name = top;
pos = (227,760);
},
{
name = topleft;
pos = (16,760);
}
);
associatedMasterId = "7F4E18E3-41A5-4521-AA8A-AE39B7B68B38";
layerId = "20E742C8-4C50-4DCD-8B2A-123A22E666D3";
name = "19 Jan 25 at 14:37";
shapes = (
{
closed = 1;
nodes = (
(319,0,l),
(319,760,l),
(135,760,l),
(135,0,l)
);
},
{
closed = 1;
nodes = (
(418,602,l),
(418,760,l),
(36,760,l),
(36,602,l)
);
},
{
closed = 1;
nodes = (
(418,0,l),
(418,158,l),
(36,158,l),
(36,0,l)
);
}
);
width = 454;
},
{
anchors = (
{
name = bottom;
pos = (247,0);
},
{
name = ogonek;
pos = (438,0);
},
{
name = top;
pos = (247,760);
},
{
name = topleft;
pos = (36,760);
}
);
associatedMasterId = "7F4E18E3-41A5-4521-AA8A-AE39B7B68B38";
layerId = "5F91AF1C-574C-4BC9-B04D-C6B866E66D23";
name = "19 Jan 25 at 15:54";
shapes = (
{
closed = 1;
nodes = (
(339,0,l),
(339,760,l),
(155,760,l),
(155,0,l)
);
},
{
closed = 1;
nodes = (
(458,602,l),
(458,760,l),
(36,760,l),
(36,602,l)
);
},
{
closed = 1;
nodes = (
(458,0,l),
(458,158,l),
(36,158,l),
(36,0,l)
);
}
);
width = 494;
},
{
anchors = (
{
name = bottom;
pos = (207,0);
},
{
name = ogonek;
pos = (321,0);
},
{
name = top;
pos = (207,760);
},
{
name = topleft;
pos = (32,760);
}
);
associatedMasterId = m01;
layerId = "9ACA778D-09F1-4A52-BA17-C7269969F74B";
name = "19 Jan 25 at 15:54";
shapes = (
{
closed = 1;
nodes = (
(233,0,l),
(233,760,l),
(180,760,l),
(180,0,l)
);
},
{
closed = 1;
nodes = (
(371,710,l),
(371,760,l),
(42,760,l),
(42,710,l)
);
},
{
closed = 1;
nodes = (
(371,0,l),
(371,50,l),
(42,50,l),
(42,0,l)
);
}
);
width = 413;
}
);
metricLeft = "=H";
metricRight = "=H";
unicode = 73;
},
{
glyphname = Icapitalsmall;
lastChange = "2026-06-14 22:20:33 +0000";
layers = (
{
layerId = m01;
shapes = (
{
closed = 1;
nodes = (
(305,0,l),
(305,760,l),
(251,760,l),
(251,0,l)
);
},
{
closed = 1;
nodes = (
(482,712,l),
(482,760,l),
(73,760,l),
(73,712,l)
);
},
{
closed = 1;
nodes = (
(482,0,l),
(482,48,l),
(73,48,l),
(73,0,l)
);
}
);
width = 555;
},
{
layerId = "7F4E18E3-41A5-4521-AA8A-AE39B7B68B38";
shapes = (
{
closed = 1;
nodes = (
(370,0,l),
(370,760,l),
(186,760,l),
(186,0,l)
);
},
{
closed = 1;
nodes = (
(507,602,l),
(507,760,l),
(50,760,l),
(50,602,l)
);
},
{
closed = 1;
nodes = (
(507,0,l),
(507,158,l),
(50,158,l),
(50,0,l)
);
}
);
width = 557;
}
);
metricLeft = "=|F";
metricRight = "=F";
unicode = 42926;
},
{
glyphname = "Iota-latin";
kernLeft = KO_A;
lastChange = "2026-06-14 22:20:33 +0000";
layers = (
{
layerId = m01;
shapes = (
{
closed = 1;
nodes = (
(314,0,l),
(314,50,l),
(253,50,ls),
(182,50,o),
(158,82,o),
(158,176,cs),
(158,760,l),
(104,760,l),
(104,186,ls),
(104,52,o),
(148,0,o),
(263,0,c)
);
}
);
width = 352;
},
{
layerId = "7F4E18E3-41A5-4521-AA8A-AE39B7B68B38";
shapes = (
{
closed = 1;
nodes = (
(379,0,l),
(379,158,l),
(305,158,ls),
(274,158,o),
(256,176,o),
(256,208,cs),
(256,760,l),
(72,760,l),
(72,208,ls),
(72,58,o),
(137,0,o),
(308,0,c)
);
}
);
width = 394;
}
);
metricLeft = "=I";
metricRight = "=A";
unicode = 406;
},
{
glyphname = Istroke;
lastChange = "2026-06-14 22:20:33 +0000";
layers = (
{
layerId = m01;
shapes = (
{
pos = (116,0);
ref = I;
},
{
closed = 1;
nodes = (
(422,423,l),
(73,423,l),
(73,379,l),
(422,379,l)
);
}
);
width = 495;
},
{
layerId = "7F4E18E3-41A5-4521-AA8A-AE39B7B68B38";
shapes = (
{
pos = (106,0);
ref = I;
},
{
closed = 1;
nodes = (
(491,432,l),
(50,432,l),
(50,342,l),
(491,342,l)
);
}
);
width = 541;
}
);
metricLeft = "=|F";
metricRight = "=F";
unicode = 407;
},
{
glyphname = J;
kernLeft = KO_J;
kernRight = KO_U;
lastChange = "2026-06-14 22:20:33 +0000";
layers = (
{
anchors = (
{
name = bottom;
pos = (282,0);
},
{
name = top;
pos = (435,760);
}
);
layerId = m01;
shapes = (
{
closed = 1;
nodes = (
(217,0,ls),
(386,0,o),
(460,71,o),
(460,233,cs),
(460,760,l),
(406,760,l),
(406,233,ls),
(406,104,o),
(348,48,o),
(216,48,cs),
(52,48,l),
(52,0,l)
);
}
);
width = 564;
},
{
anchors = (
{
name = bottom;
pos = (296,0);
},
{
name = top;
pos = (427,760);
}
);
layerId = "7F4E18E3-41A5-4521-AA8A-AE39B7B68B38";
shapes = (
{
closed = 1;
nodes = (
(229,0,l),
(439,0,o),
(520,75,o),
(520,271,c),
(520,760,l),
(336,760,l),
(336,271,ls),
(336,186,o),
(310,158,o),
(232,158,c),
(36,158,l),
(36,0,l)
);
}
);
width = 592;
},
{
associatedMasterId = "7F4E18E3-41A5-4521-AA8A-AE39B7B68B38";
layerId = "26C26F77-4DE0-43AD-964F-ECDFAB12E932";
name = "30 Nov 24 at 11:20";
shapes = (
{
closed = 1;
nodes = (
(589,-16,o),
(677,94,o),
(677,380,c),
(677,760,l),
(442,760,l),
(442,360,ls),
(442,228,o),
(421,184,o),
(359,184,cs),
(298,184,o),
(276,233,o),
(270,380,c),
(40,380,l),
(50,94,o),
(138,-16,o),
(359,-16,cs)
);
}
);
width = 717;
},
{
associatedMasterId = "7F4E18E3-41A5-4521-AA8A-AE39B7B68B38";
background = {
shapes = (
{
closed = 1;
nodes = (
(621,-16,o),
(787,147,o),
(787,380,cs),
(787,613,o),
(621,776,o),
(384,776,cs),
(147,776,o),
(-19,613,o),
(-19,380,cs),
(-19,147,o),
(147,-16,o),
(384,-16,cs)
);
},
{
closed = 1;
nodes = (
(281,184,o),
(216,260,o),
(216,380,cs),
(216,500,o),
(281,576,o),
(384,576,cs),
(487,576,o),
(552,500,o),
(552,380,cs),
(552,260,o),
(487,184,o),
(384,184,cs)
);
}
);
};
layerId = "FB8C4D98-3B9D-4424-A4FD-8FE9F5E4DB41";
name = "9 Dec 24 at 21:06";
shapes = (
{
closed = 1;
nodes = (
(619,-16,o),
(722,98,o),
(722,360,c),
(722,760,l),
(487,760,l),
(487,340,ls),
(487,227,o),
(458,184,o),
(384,184,cs),
(310,184,o),
(281,227,o),
(281,340,cs),
(281,421,l),
(46,421,l),
(46,360,l),
(46,98,o),
(149,-16,o),
(384,-16,cs)
);
}
);
width = 768;
},
{
associatedMasterId = m01;
layerId = "1225F287-9396-4209-AFEF-965A0519B9A0";
name = "2 Feb 25 at 21:28";
shapes = (
{
closed = 1;
nodes = (
(494,-16,o),
(568,73,o),
(568,276,cs),
(568,760,l),
(515,760,l),
(515,276,ls),
(515,108,o),
(457,34,o),
(326,34,cs),
(195,34,o),
(137,108,o),
(137,276,cs),
(137,361,l),
(84,361,l),
(84,276,ls),
(84,73,o),
(158,-16,o),
(326,-16,cs)
);
}
);
width = 652;
},
{
associatedMasterId = "7F4E18E3-41A5-4521-AA8A-AE39B7B68B38";
layerId = "0D668404-C350-4F8F-9841-9FF4B15EE281";
name = "2 Feb 25 at 21:31";
shapes = (
{
closed = 1;
nodes = (
(596,-16,o),
(682,85,o),
(682,350,c),
(682,760,l),
(498,760,l),
(498,330,ls),
(498,201,o),
(460,144,o),
(372,144,cs),
(288,144,o),
(256,196,o),
(256,330,cs),
(256,421,l),
(72,421,l),
(72,350,l),
(72,85,o),
(155,-16,o),
(372,-16,cs)
);
}
);
width = 754;
},
{
associatedMasterId = m01;
layerId = "FAF68869-0B95-4848-998D-EF52C815D425";
name = "23 Feb 25 at 16:13";
shapes = (
{
closed = 1;
nodes = (
(262,0,ls),
(358,0,o),
(405,44,o),
(405,133,cs),
(405,760,l),
(351,760,l),
(351,133,ls),
(351,76,o),
(321,48,o),
(261,48,cs),
(52,48,l),
(52,0,l)
);
}
);
width = 509;
},
{
associatedMasterId = "7F4E18E3-41A5-4521-AA8A-AE39B7B68B38";
layerId = "AF3C28A6-48ED-47DB-A11B-D42B5571B50C";
name = "23 Feb 25 at 16:14";
shapes = (
{
closed = 1;
nodes = (
(209,0,l),
(390,0,o),
(450,60,o),
(450,238,c),
(450,760,l),
(266,760,l),
(266,221,ls),
(266,175,o),
(251,158,o),
(212,158,c),
(36,158,l),
(36,0,l)
);
}
);
width = 522;
},
{
associatedMasterId = m01;
layerId = "CA04B7CC-C59F-438D-A392-A8DD74B5B859";
name = "24 Feb 25 at 22:08";
shapes = (
{
closed = 1;
nodes = (
(202,0,ls),
(349,0,o),
(405,53,o),
(405,193,cs),
(405,760,l),
(351,760,l),
(351,193,ls),
(351,84,o),
(314,48,o),
(201,48,cs),
(52,48,l),
(52,0,l)
);
}
);
width = 509;
}
);
metricLeft = "=H*0.5";
metricRight = "=H";
unicode = 74;
},
{
glyphname = Jcrossedtail;
lastChange = "2026-06-14 22:20:33 +0000";
layers = (
{
layerId = m01;
shapes = (
{
closed = 1;
nodes = (
(260,-256,ls),
(382,-256,o),
(458,-180,o),
(458,-58,cs),
(458,760,l),
(404,760,l),
(404,-58,ls),
(404,-150,o),
(348,-208,o),
(260,-208,cs),
(242,-208,ls),
(166,-208,o),
(128,-183,o),
(128,-134,cs),
(128,-85,o),
(166,-60,o),
(242,-60,cs),
(541,-60,l),
(541,-16,l),
(242,-16,l),
(138,-16,o),
(80,-58,o),
(80,-134,cs),
(80,-212,o),
(138,-256,o),
(242,-256,cs)
);
}
);
width = 621;
},
{
layerId = "7F4E18E3-41A5-4521-AA8A-AE39B7B68B38";
shapes = (
{
closed = 1;
nodes = (
(250,-256,l),
(424,-256,o),
(521,-179,o),
(521,-40,c),
(521,760,l),
(337,760,l),
(337,-40,ls),
(337,-108,o),
(305,-150,o),
(253,-150,c),
(242,-150,ls),
(188,-150,o),
(158,-125,o),
(158,-79,cs),
(158,-41,o),
(188,-20,o),
(242,-20,cs),
(634,-20,l),
(634,70,l),
(246,70,ls),
(130,70,o),
(49,4,o),
(49,-90,cs),
(49,-187,o),
(127,-256,o),
(238,-256,cs)
);
}
);
width = 683;
},
{
associatedMasterId = "7F4E18E3-41A5-4521-AA8A-AE39B7B68B38";
layerId = "2034E6DF-D8E3-46B4-AF00-752EA2DBA87C";
name = "29 Apr 26 at 08:13";
shapes = (
{
closed = 1;
nodes = (
(315,-256,l),
(489,-256,o),
(586,-159,o),
(586,15,c),
(586,760,l),
(402,760,l),
(402,-9,ls),
(402,-75,o),
(374,-108,o),
(318,-108,c),
(307,-108,ls),
(243,-108,o),
(208,-83,o),
(208,-38,cs),
(208,7,o),
(243,32,o),
(307,32,cs),
(699,32,l),
(699,152,l),
(311,152,ls),
(150,152,o),
(49,71,o),
(49,-58,cs),
(49,-174,o),
(154,-256,o),
(303,-256,cs)
);
}
);
width = 748;
},
{
associatedMasterId = m01;
layerId = "A280CD1D-96EC-4939-A54F-A56D127F59A1";
name = "11 Jun 26 at 08:38";
shapes = (
{
closed = 1;
nodes = (
(280,-256,ls),
(402,-256,o),
(478,-180,o),
(478,-58,cs),
(478,760,l),
(424,760,l),
(424,-58,ls),
(424,-150,o),
(368,-208,o),
(280,-208,cs),
(242,-208,ls),
(166,-208,o),
(128,-183,o),
(128,-134,cs),
(128,-85,o),
(166,-60,o),
(242,-60,cs),
(561,-60,l),
(561,-16,l),
(242,-16,l),
(138,-16,o),
(80,-58,o),
(80,-134,cs),
(80,-212,o),
(138,-256,o),
(242,-256,cs)
);
}
);
width = 641;
}
);
metricLeft = "=O";
metricRight = "=O";
unicode = 42930;
},
{
glyphname = Jstroke;
lastChange = "2026-06-14 22:20:33 +0000";
layers = (
{
layerId = m01;
shapes = (
{
ref = J;
},
{
closed = 1;
nodes = (
(544,423,l),
(195,423,l),
(195,379,l),
(544,379,l)
);
}
);
width = 617;
},
{
layerId = "7F4E18E3-41A5-4521-AA8A-AE39B7B68B38";
shapes = (
{
ref = J;
},
{
closed = 1;
nodes = (
(616,432,l),
(175,432,l),
(175,342,l),
(616,342,l)
);
}
);
width = 666;
}
);
metricLeft = "=J";
metricRight = "=F";
unicode = 584;
},
{
glyphname = K;
kernLeft = KO_N;
kernRight = KO_K;
lastChange = "2026-06-14 22:20:33 +0000";
layers = (
{
anchors = (
{
name = bottom;
pos = (341,0);
},
{
name = top;
pos = (341,760);
}
);
layerId = m01;
shapes = (
{
closed = 1;
nodes = (
(158,0,l),
(158,291,l),
(127,213,l),
(363,466,l),
(308,471,l),
(611,0,l),
(675,0,l),
(346,512,l),
(339,441,l),
(637,760,l),
(574,760,l),
(127,281,l),
(158,269,l),
(158,760,l),
(104,760,l),
(104,0,l)
);
}
);
width = 700;
},
{
anchors = (
{
name = bottom;
pos = (406,0);
},
{
name = top;
pos = (406,760);
}
);
layerId = "7F4E18E3-41A5-4521-AA8A-AE39B7B68B38";
shapes = (
{
closed = 1;
nodes = (
(256,0,l),
(256,248,l),
(225,170,l),
(394,351,l),
(339,356,l),
(567,0,l),
(787,0,l),
(469,495,l),
(462,424,l),
(775,760,l),
(548,760,l),
(225,414,l),
(256,402,l),
(256,760,l),
(72,760,l),
(72,0,l)
);
}
);
width = 789;
},
{
associatedMasterId = m01;
layerId = "D6F75E61-F7C0-4D02-8666-6CFD73826E62";
name = "30 Nov 24 at 16:54";
shapes = (
{
closed = 1;
nodes = (
(133,0,l),
(133,760,l),
(80,760,l),
(80,0,l)
);
},
{
closed = 1;
nodes = (
(572,760,l),
(513,760,l),
(95,254,l),
(98,188,l)
);
},
{
closed = 1;
nodes = (
(271,429,l),
(560,0,l),
(625,0,l),
(314,461,l)
);
}
);
width = 632;
},
{
anchors = (
{
name = bottom;
pos = (426,0);
},
{
name = top;
pos = (426,760);
}
);
associatedMasterId = "7F4E18E3-41A5-4521-AA8A-AE39B7B68B38";
layerId = "32F883BC-B818-4329-9527-159F2B4C1912";
name = "9 Dec 24 at 21:03";
shapes = (
{
closed = 1;
nodes = (
(276,0,l),
(276,760,l),
(46,760,l),
(46,0,l)
);
},
{
closed = 1;
nodes = (
(823,760,l),
(547,760,l),
(68,254,l),
(227,130,l)
);
},
{
closed = 1;
nodes = (
(293,429,l),
(568,0,l),
(835,0,l),
(493,518,l)
);
}
);
width = 845;
},
{
anchors = (
{
name = bottom;
pos = (298,0);
},
{
name = top;
pos = (298,760);
}
);
associatedMasterId = m01;
layerId = "F7097FC5-985B-448D-8F38-E67DD3AA67CA";
name = "12 Dec 24 at 18:19";
shapes = (
{
closed = 1;
nodes = (
(554,760,l),
(492,760,l),
(74,254,l),
(80,188,l)
);
},
{
closed = 1;
nodes = (
(115,0,l),
(115,760,l),
(62,760,l),
(62,0,l)
);
},
{
closed = 1;
nodes = (
(604,0,l),
(293,461,l),
(253,429,l),
(542,0,l)
);
}
);
width = 614;
},
{
anchors = (
{
name = bottom;
pos = (380,0);
},
{
name = top;
pos = (380,760);
}
);
associatedMasterId = "7F4E18E3-41A5-4521-AA8A-AE39B7B68B38";
layerId = "22AB99FE-DB7C-4C32-9C1D-C139C0960BF6";
name = "12 Dec 24 at 18:22";
shapes = (
{
closed = 1;
nodes = (
(748,760,l),
(529,760,l),
(110,301,l),
(178,138,l)
);
},
{
closed = 1;
nodes = (
(230,0,l),
(230,760,l),
(46,760,l),
(46,0,l)
);
},
{
closed = 1;
nodes = (
(770,0,l),
(417,518,l),
(263,429,l),
(552,0,l)
);
}
);
width = 796;
},
{
anchors = (
{
name = bottom;
pos = (406,0);
},
{
name = top;
pos = (406,760);
}
);
associatedMasterId = "7F4E18E3-41A5-4521-AA8A-AE39B7B68B38";
layerId = "056F29BC-D87E-410A-9E51-158A68D81E77";
name = "13 Dec 24 at 14:27";
shapes = (
{
closed = 1;
nodes = (
(805,760,l),
(582,760,l),
(120,239,l),
(207,120,l)
);
},
{
closed = 1;
nodes = (
(256,0,l),
(256,760,l),
(72,760,l),
(72,0,l)
);
},
{
closed = 1;
nodes = (
(820,0,l),
(496,461,l),
(346,365,l),
(598,0,l)
);
}
);
width = 822;
},
{
anchors = (
{
name = bottom;
pos = (341,0);
},
{
name = top;
pos = (341,760);
}
);
associatedMasterId = m01;
layerId = "9FA7A763-2283-40C8-978C-22459708D4FA";
name = "24 Feb 25 at 21:50";
shapes = (
{
closed = 1;
nodes = (
(655,760,l),
(592,760,l),
(119,254,l),
(121,188,l)
);
},
{
closed = 1;
nodes = (
(158,0,l),
(158,760,l),
(104,760,l),
(104,0,l)
);
},
{
closed = 1;
nodes = (
(698,0,l),
(336,461,l),
(292,429,l),
(629,0,l)
);
}
);
width = 706;
},
{
anchors = (
{
name = bottom;
pos = (406,0);
},
{
name = top;
pos = (406,760);
}
);
associatedMasterId = "7F4E18E3-41A5-4521-AA8A-AE39B7B68B38";
layerId = "6A158DB0-A968-4760-8471-45F8904920D2";
name = "24 Feb 25 at 21:50";
shapes = (
{
closed = 1;
nodes = (
(784,760,l),
(552,760,l),
(90,239,l),
(186,120,l)
);
},
{
closed = 1;
nodes = (
(256,0,l),
(256,760,l),
(72,760,l),
(72,0,l)
);
},
{
closed = 1;
nodes = (
(820,0,l),
(475,451,l),
(318,355,l),
(590,0,l)
);
}
);
width = 822;
},
{
anchors = (
{
name = bottom;
pos = (341,0);
},
{
name = top;
pos = (341,760);
}
);
associatedMasterId = m01;
layerId = "DAD39BF5-C817-4D09-AD70-60D6BDDD13BF";
name = "1 Jun 26 at 15:40";
shapes = (
{
closed = 1;
nodes = (
(637,760,l),
(574,760,l),
(139,294,l),
(141,228,l)
);
},
{
closed = 1;
nodes = (
(158,0,l),
(158,760,l),
(104,760,l),
(104,0,l)
);
},
{
closed = 1;
nodes = (
(675,0,l),
(365,482,l),
(315,460,l),
(611,0,l)
);
}
);
width = 700;
},
{
anchors = (
{
name = bottom;
pos = (406,0);
},
{
name = top;
pos = (406,760);
}
);
associatedMasterId = "7F4E18E3-41A5-4521-AA8A-AE39B7B68B38";
layerId = "82FDCC80-9F67-407E-A445-DFBDDC8C8F18";
name = "1 Jun 26 at 15:40";
shapes = (
{
closed = 1;
nodes = (
(775,760,l),
(548,760,l),
(113,294,l),
(139,78,l)
);
},
{
closed = 1;
nodes = (
(256,0,l),
(256,760,l),
(72,760,l),
(72,0,l)
);
},
{
closed = 1;
nodes = (
(787,0,l),
(445,532,l),
(293,426,l),
(567,0,l)
);
}
);
width = 789;
}
);
metricLeft = H;
metricRight = "=V";
unicode = 75;
},
{
glyphname = Khook;
kernLeft = KO_N;
lastChange = "2026-06-14 22:20:33 +0000";
layers = (
{
layerId = m01;
shapes = (
{
closed = 1;
nodes = (
(158,0,l),
(158,291,l),
(127,213,l),
(363,466,l),
(308,471,l),
(611,0,l),
(675,0,l),
(346,512,l),
(339,441,l),
(527,643,ls),
(575,694,o),
(607,712,o),
(658,712,cs),
(712,712,l),
(712,760,l),
(658,760,ls),
(595,760,o),
(554,739,o),
(496,677,cs),
(127,281,l),
(158,269,l),
(158,760,l),
(104,760,l),
(104,0,l)
);
}
);
width = 737;
},
{
layerId = "7F4E18E3-41A5-4521-AA8A-AE39B7B68B38";
shapes = (
{
closed = 1;
nodes = (
(256,0,l),
(256,249,l),
(225,171,l),
(393,351,l),
(338,356,l),
(567,0,l),
(787,0,l),
(468,496,l),
(461,425,l),
(572,544,ls),
(613,588,o),
(646,602,o),
(710,602,cs),
(799,602,l),
(799,760,l),
(706,760,ls),
(587,760,o),
(525,736,o),
(457,663,cs),
(225,414,l),
(256,402,l),
(256,760,l),
(72,760,l),
(72,0,l)
);
}
);
width = 801;
},
{
associatedMasterId = m01;
layerId = "C30787CF-BE5D-449D-90DA-94D0A287DAC8";
name = "22 Apr 26 at 11:54";
shapes = (
{
closed = 1;
nodes = (
(571,690,ls),
(600,721,o),
(619,731,o),
(646,731,cs),
(667,731,o),
(674,722,o),
(674,696,cs),
(674,602,l),
(728,602,l),
(728,696,ls),
(728,756,o),
(708,776,o),
(648,776,cs),
(603,776,o),
(570,757,o),
(518,701,cs),
(139,294,l),
(141,228,l)
);
},
{
closed = 1;
nodes = (
(158,0,l),
(158,760,l),
(104,760,l),
(104,0,l)
);
},
{
closed = 1;
nodes = (
(675,0,l),
(365,482,l),
(315,460,l),
(611,0,l)
);
}
);
width = 753;
},
{
associatedMasterId = m01;
layerId = "24945EF8-8632-456C-93A3-43F54BD1968B";
name = "1 Jun 26 at 15:41";
shapes = (
{
closed = 1;
nodes = (
(158,0,l),
(158,760,l),
(104,760,l),
(104,0,l)
);
},
{
closed = 1;
nodes = (
(527,643,ls),
(574,695,o),
(607,712,o),
(658,712,cs),
(712,712,l),
(712,760,l),
(658,760,ls),
(595,760,o),
(554,739,o),
(496,677,cs),
(139,294,l),
(141,228,l)
);
},
{
closed = 1;
nodes = (
(675,0,l),
(365,482,l),
(315,460,l),
(611,0,l)
);
}
);
width = 737;
},
{
associatedMasterId = "7F4E18E3-41A5-4521-AA8A-AE39B7B68B38";
layerId = "3B000052-F367-45F2-A1A2-675D27E0A438";
name = "1 Jun 26 at 15:41";
shapes = (
{
closed = 1;
nodes = (
(256,0,l),
(256,760,l),
(72,760,l),
(72,0,l)
);
},
{
closed = 1;
nodes = (
(572,544,ls),
(612,588,o),
(646,602,o),
(710,602,cs),
(799,602,l),
(799,760,l),
(706,760,ls),
(587,760,o),
(525,736,o),
(457,663,cs),
(113,294,l),
(139,78,l)
);
},
{
closed = 1;
nodes = (
(787,0,l),
(445,532,l),
(293,426,l),
(567,0,l)
);
}
);
width = 801;
}
);
metricLeft = "=K";
metricRight = "=K";
unicode = 408;
},
{
glyphname = Kstroke;
lastChange = "2026-06-14 22:20:33 +0000";
layers = (
{
layerId = m01;
shapes = (
{
ref = K;
},
{
closed = 1;
nodes = (
(359,656,l),
(10,656,l),
(10,612,l),
(359,612,l)
);
}
);
width = 700;
},
{
layerId = "7F4E18E3-41A5-4521-AA8A-AE39B7B68B38";
shapes = (
{
ref = K;
},
{
closed = 1;
nodes = (
(362,695,l),
(-22,695,l),
(-22,605,l),
(362,605,l)
);
}
);
width = 789;
}
);
metricLeft = "=K@100";
metricRight = "=K";
unicode = 42816;
},
{
glyphname = L;
kernLeft = KO_N;
kernRight = KO_L;
lastChange = "2026-06-14 22:20:33 +0000";
layers = (
{
anchors = (
{
name = bottom;
pos = (325,0);
},
{
name = center;
pos = (325,380);
},
{
name = top;
pos = (135,760);
},
{
name = topright;
pos = (197,760);
}
);
layerId = m01;
shapes = (
{
closed = 1;
nodes = (
(158,0,l),
(158,760,l),
(104,760,l),
(104,0,l)
);
},
{
closed = 1;
nodes = (
(557,0,l),
(557,48,l),
(129,48,l),
(129,0,l)
);
}
);
width = 619;
},
{
anchors = (
{
name = bottom;
pos = (323,0);
},
{
name = center;
pos = (323,380);
},
{
name = top;
pos = (187,760);
},
{
name = topright;
pos = (332,760);
}
);
layerId = "7F4E18E3-41A5-4521-AA8A-AE39B7B68B38";
shapes = (
{
closed = 1;
nodes = (
(256,0,l),
(256,760,l),
(72,760,l),
(72,0,l)
);
},
{
closed = 1;
nodes = (
(599,0,l),
(599,158,l),
(134,158,l),
(134,0,l)
);
}
);
width = 642;
},
{
anchors = (
{
name = bottom;
pos = (291,0);
},
{
name = center;
pos = (291,380);
},
{
name = top;
pos = (155,760);
},
{
name = topright;
pos = (300,760);
}
);
associatedMasterId = "7F4E18E3-41A5-4521-AA8A-AE39B7B68B38";
layerId = "1DFF62EA-AE1F-49D4-810A-2CE395C32E32";
name = "30 Nov 24 at 10:53";
shapes = (
{
closed = 1;
nodes = (
(270,0,l),
(270,760,l),
(40,760,l),
(40,0,l)
);
},
{
closed = 1;
nodes = (
(541,0,l),
(541,170,l),
(65,170,l),
(65,0,l)
);
}
);
width = 581;
},
{
anchors = (
{
name = bottom;
pos = (301,0);
},
{
name = center;
pos = (301,380);
},
{
name = top;
pos = (111,760);
},
{
name = topright;
pos = (173,760);
}
);
associatedMasterId = m01;
layerId = "299B67CD-B6DA-47E0-A7F5-47F07F66B96A";
name = "30 Nov 24 at 10:53";
shapes = (
{
closed = 1;
nodes = (
(133,0,l),
(133,760,l),
(80,760,l),
(80,0,l)
);
},
{
closed = 1;
nodes = (
(522,0,l),
(522,48,l),
(105,48,l),
(105,0,l)
);
}
);
width = 602;
},
{
anchors = (
{
name = bottom;
pos = (297,0);
},
{
name = center;
pos = (297,380);
},
{
name = top;
pos = (161,760);
},
{
name = topright;
pos = (306,760);
}
);
associatedMasterId = "7F4E18E3-41A5-4521-AA8A-AE39B7B68B38";
layerId = "AB6216D7-6F7D-4691-933F-80AC1F6AD471";
name = "8 Dec 24 at 19:23";
shapes = (
{
closed = 1;
nodes = (
(276,0,l),
(276,760,l),
(46,760,l),
(46,0,l)
);
},
{
closed = 1;
nodes = (
(596,0,l),
(596,190,l),
(71,190,l),
(71,0,l)
);
}
);
width = 642;
},
{
anchors = (
{
name = bottom;
pos = (325,0);
},
{
name = center;
pos = (325,380);
},
{
name = top;
pos = (135,760);
},
{
name = topright;
pos = (197,760);
}
);
associatedMasterId = m01;
layerId = "8C6F515D-FF4E-4AAE-AFC3-FCC8EB326809";
name = "31 Jan 25 at 17:02";
shapes = (
{
closed = 1;
nodes = (
(157,0,l),
(157,760,l),
(104,760,l),
(104,0,l)
);
},
{
closed = 1;
nodes = (
(557,0,l),
(557,50,l),
(129,50,l),
(129,0,l)
);
}
);
width = 661;
}
);
metricLeft = "=H";
metricRight = "=H*0.6";
unicode = 76;
userData = {
KernOnName = L;
};
},
{
glyphname = Lbelt;
lastChange = "2026-06-14 22:20:33 +0000";
layers = (
{
layerId = m01;
shapes = (
{
closed = 1;
nodes = (
(354,316,l),
(354,360,l),
(168,360,ls),
(107,360,o),
(73,386,o),
(73,433,cs),
(73,480,o),
(107,506,o),
(168,506,cs),
(208,506,l),
(208,550,l),
(168,550,l),
(80,550,o),
(25,505,o),
(25,433,cs),
(25,361,o),
(80,316,o),
(168,316,c)
);
},
{
closed = 1;
nodes = (
(621,0,l),
(621,48,l),
(193,48,l),
(193,0,l)
);
},
{
closed = 1;
nodes = (
(222,0,l),
(222,760,l),
(168,760,l),
(168,0,l)
);
}
);
width = 683;
},
{
layerId = "7F4E18E3-41A5-4521-AA8A-AE39B7B68B38";
shapes = (
{
closed = 1;
nodes = (
(510,316,l),
(510,406,l),
(166,406,ls),
(124,406,o),
(97,425,o),
(97,455,cs),
(97,482,o),
(125,501,o),
(166,501,cs),
(206,501,l),
(206,572,l),
(166,572,ls),
(70,572,o),
(2,518,o),
(2,441,cs),
(2,364,o),
(65,316,o),
(166,316,c)
);
},
{
closed = 1;
nodes = (
(693,0,l),
(693,158,l),
(228,158,l),
(228,0,l)
);
},
{
closed = 1;
nodes = (
(350,0,l),
(350,760,l),
(166,760,l),
(166,0,l)
);
}
);
width = 736;
},
{
associatedMasterId = m01;
layerId = "0629BD9C-B949-4F2F-BF97-8A77B23256D3";
name = "29 Apr 26 at 07:54";
shapes = (
{
closed = 1;
nodes = (
(387,316,l),
(387,364,l),
(201,364,ls),
(146,364,o),
(112,391,o),
(112,433,cs),
(112,475,o),
(146,502,o),
(201,502,cs),
(241,502,l),
(241,550,l),
(201,550,l),
(113,550,o),
(58,505,o),
(58,433,cs),
(58,361,o),
(113,316,o),
(201,316,c)
);
},
{
closed = 1;
nodes = (
(654,0,l),
(654,48,l),
(226,48,l),
(226,0,l)
);
},
{
closed = 1;
nodes = (
(255,0,l),
(255,760,l),
(201,760,l),
(201,0,l)
);
}
);
width = 716;
},
{
associatedMasterId = "7F4E18E3-41A5-4521-AA8A-AE39B7B68B38";
layerId = "8B838BAA-6E76-4562-9F72-B0CD78DC0B4C";
name = "29 Apr 26 at 07:54";
shapes = (
{
closed = 1;
nodes = (
(570,270,l),
(570,390,l),
(226,390,ls),
(182,390,o),
(157,408,o),
(157,439,cs),
(157,465,o),
(184,481,o),
(226,481,cs),
(266,481,l),
(266,572,l),
(226,572,ls),
(107,572,o),
(32,514,o),
(32,421,cs),
(32,332,o),
(112,270,o),
(226,270,c)
);
},
{
closed = 1;
nodes = (
(753,0,l),
(753,158,l),
(288,158,l),
(288,0,l)
);
},
{
closed = 1;
nodes = (
(410,0,l),
(410,760,l),
(226,760,l),
(226,0,l)
);
}
);
width = 796;
},
{
associatedMasterId = "7F4E18E3-41A5-4521-AA8A-AE39B7B68B38";
layerId = "6FC60B06-7F14-4D94-9ED5-BAF563974991";
name = "29 Apr 26 at 08:02";
shapes = (
{
closed = 1;
nodes = (
(570,270,l),
(570,390,l),
(226,390,ls),
(182,390,o),
(157,408,o),
(157,439,cs),
(157,465,o),
(184,481,o),
(226,481,cs),
(266,481,l),
(266,572,l),
(226,572,ls),
(107,572,o),
(32,514,o),
(32,421,cs),
(32,332,o),
(112,270,o),
(226,270,c)
);
},
{
closed = 1;
nodes = (
(753,0,l),
(753,158,l),
(288,158,l),
(288,0,l)
);
},
{
closed = 1;
nodes = (
(410,0,l),
(410,760,l),
(226,760,l),
(226,0,l)
);
}
);
width = 796;
}
);
metricLeft = "=V";
metricRight = "=L";
unicode = 42925;
},
{
glyphname = Lmiddletilde;
lastChange = "2026-06-14 22:20:33 +0000";
layers = (
{
layerId = m01;
shapes = (
{
pos = (123,0);
ref = L;
},
{
closed = 1;
nodes = (
(145,351,l),
(185,408,ls),
(200,430,o),
(213,433,o),
(236,420,cs),
(341,361,ls),
(382,339,o),
(424,352,o),
(450,396,cs),
(495,467,l),
(454,467,l),
(414,410,ls),
(399,388,o),
(386,385,o),
(363,398,cs),
(258,457,ls),
(217,479,o),
(176,466,o),
(149,422,cs),
(104,351,l)
);
}
);
width = 742;
},
{
layerId = "7F4E18E3-41A5-4521-AA8A-AE39B7B68B38";
shapes = (
{
pos = (167,0);
ref = L;
},
{
closed = 1;
nodes = (
(187,336,l),
(226,370,ls),
(247,389,o),
(263,391,o),
(293,378,cs),
(376,342,ls),
(454,308,o),
(539,327,o),
(580,388,cs),
(647,481,l),
(531,481,l),
(493,447,ls),
(472,428,o),
(455,426,o),
(425,439,cs),
(342,475,ls),
(264,509,o),
(180,490,o),
(139,429,cs),
(72,336,l)
);
}
);
width = 809;
}
);
metricLeft = "=L";
metricRight = "=L";
unicode = 11362;
},
{
glyphname = M;
kernLeft = KO_N;
kernRight = KO_H;
lastChange = "2026-06-14 22:20:33 +0000";
layers = (
{
anchors = (
{
name = bottom;
pos = (472,0);
},
{
name = top;
pos = (472,760);
}
);
layerId = m01;
shapes = (
{
closed = 1;
nodes = (
(158,0,l),
(158,713,l),
(126,713,l),
(458,0,l),
(489,0,l),
(821,713,l),
(789,713,l),
(789,0,l),
(843,0,l),
(843,760,l),
(789,760,l),
(457,47,l),
(494,47,l),
(162,760,l),
(104,760,l),
(104,0,l)
);
}
);
width = 947;
},
{
associatedMasterId = "7F4E18E3-41A5-4521-AA8A-AE39B7B68B38";
layerId = "F1D51CA9-9E0D-4C62-8E06-C24721212893";
name = "30 Nov 24 at 11:34";
shapes = (
{
closed = 1;
nodes = (
(270,0,l),
(270,713,l),
(134,713,l),
(436,0,l),
(575,0,l),
(877,713,l),
(741,713,l),
(741,0,l),
(971,0,l),
(971,760,l),
(657,760,l),
(477,336,l),
(534,336,l),
(354,760,l),
(40,760,l),
(40,0,l)
);
}
);
width = 1011;
},
{
associatedMasterId = "7F4E18E3-41A5-4521-AA8A-AE39B7B68B38";
layerId = "E68A2920-DC43-4E5C-9E94-A7893EDCCCC4";
name = "30 Nov 24 at 11:37";
shapes = (
{
closed = 1;
nodes = (
(270,0,l),
(270,713,l),
(144,713,l),
(436,0,l),
(575,0,l),
(867,713,l),
(741,713,l),
(741,0,l),
(971,0,l),
(971,760,l),
(657,760,l),
(487,336,l),
(524,336,l),
(354,760,l),
(40,760,l),
(40,0,l)
);
}
);
width = 1011;
},
{
anchors = (
{
name = bottom;
pos = (470,0);
},
{
name = top;
pos = (470,760);
}
);
associatedMasterId = "7F4E18E3-41A5-4521-AA8A-AE39B7B68B38";
background = {
shapes = (
{
closed = 1;
nodes = (
(706,-16,o),
(872,147,o),
(872,380,cs),
(872,613,o),
(706,776,o),
(469,776,cs),
(232,776,o),
(66,613,o),
(66,380,cs),
(66,147,o),
(232,-16,o),
(469,-16,cs)
);
},
{
closed = 1;
nodes = (
(366,184,o),
(301,260,o),
(301,380,cs),
(301,500,o),
(366,576,o),
(469,576,cs),
(572,576,o),
(637,500,o),
(637,380,cs),
(637,260,o),
(572,184,o),
(469,184,cs)
);
}
);
};
layerId = "ADED8529-5F11-4CAF-8AA1-11D8AAFFB02B";
name = "30 Nov 24 at 12:35";
shapes = (
{
closed = 1;
nodes = (
(260,0,l),
(260,713,l),
(109,713,l),
(421,0,l),
(518,0,l),
(830,713,l),
(679,713,l),
(679,0,l),
(909,0,l),
(909,760,l),
(625,760,l),
(440,336,l),
(499,336,l),
(314,760,l),
(40,760,l),
(40,0,l)
);
}
);
width = 949;
},
{
anchors = (
{
name = bottom;
pos = (490,0);
},
{
name = top;
pos = (490,760);
}
);
associatedMasterId = "7F4E18E3-41A5-4521-AA8A-AE39B7B68B38";
background = {
shapes = (
{
closed = 1;
nodes = (
(726,-16,o),
(892,147,o),
(892,380,cs),
(892,613,o),
(726,776,o),
(489,776,cs),
(252,776,o),
(86,613,o),
(86,380,cs),
(86,147,o),
(252,-16,o),
(489,-16,cs)
);
},
{
closed = 1;
nodes = (
(386,184,o),
(321,260,o),
(321,380,cs),
(321,500,o),
(386,576,o),
(489,576,cs),
(592,576,o),
(657,500,o),
(657,380,cs),
(657,260,o),
(592,184,o),
(489,184,cs)
);
}
);
};
layerId = "1C1A97AF-850C-4330-9ACD-621A105770CD";
name = "30 Nov 24 at 12:36";
shapes = (
{
closed = 1;
nodes = (
(260,0,l),
(260,713,l),
(109,713,l),
(441,0,l),
(538,0,l),
(870,713,l),
(719,713,l),
(719,0,l),
(949,0,l),
(949,760,l),
(665,760,l),
(460,336,l),
(519,336,l),
(314,760,l),
(40,760,l),
(40,0,l)
);
}
);
width = 989;
},
{
anchors = (
{
name = bottom;
pos = (418,0);
},
{
name = top;
pos = (418,760);
}
);
associatedMasterId = m01;
layerId = "716169EF-116E-48F9-8976-96778B88A8B7";
name = "30 Nov 24 at 12:44";
shapes = (
{
closed = 1;
nodes = (
(133,0,l),
(133,713,l),
(102,713,l),
(411,-16,l),
(425,-16,l),
(734,713,l),
(703,713,l),
(703,0,l),
(756,0,l),
(756,760,l),
(700,760,l),
(397,47,l),
(439,47,l),
(136,760,l),
(80,760,l),
(80,0,l)
);
}
);
width = 836;
},
{
anchors = (
{
name = bottom;
pos = (500,0);
},
{
name = top;
pos = (500,760);
}
);
associatedMasterId = "7F4E18E3-41A5-4521-AA8A-AE39B7B68B38";
background = {
shapes = (
{
closed = 1;
nodes = (
(736,-16,o),
(902,147,o),
(902,380,cs),
(902,613,o),
(736,776,o),
(499,776,cs),
(262,776,o),
(96,613,o),
(96,380,cs),
(96,147,o),
(262,-16,o),
(499,-16,cs)
);
},
{
closed = 1;
nodes = (
(396,184,o),
(331,260,o),
(331,380,cs),
(331,500,o),
(396,576,o),
(499,576,cs),
(602,576,o),
(667,500,o),
(667,380,cs),
(667,260,o),
(602,184,o),
(499,184,cs)
);
}
);
};
layerId = "FA7F735F-358B-47FF-85FE-39A4516F7449";
name = "2 Dec 24 at 11:52";
shapes = (
{
closed = 1;
nodes = (
(270,0,l),
(270,713,l),
(124,713,l),
(436,0,l),
(563,0,l),
(875,713,l),
(729,713,l),
(729,0,l),
(969,0,l),
(969,760,l),
(671,760,l),
(485,336,l),
(514,336,l),
(328,760,l),
(40,760,l),
(40,0,l)
);
}
);
width = 1009;
},
{
anchors = (
{
name = bottom;
pos = (500,0);
},
{
name = top;
pos = (500,760);
}
);
associatedMasterId = "7F4E18E3-41A5-4521-AA8A-AE39B7B68B38";
background = {
shapes = (
{
closed = 1;
nodes = (
(736,-16,o),
(902,147,o),
(902,380,cs),
(902,613,o),
(736,776,o),
(499,776,cs),
(262,776,o),
(96,613,o),
(96,380,cs),
(96,147,o),
(262,-16,o),
(499,-16,cs)
);
},
{
closed = 1;
nodes = (
(396,184,o),
(331,260,o),
(331,380,cs),
(331,500,o),
(396,576,o),
(499,576,cs),
(602,576,o),
(667,500,o),
(667,380,cs),
(667,260,o),
(602,184,o),
(499,184,cs)
);
}
);
};
layerId = "AAA9E4F4-B6BD-413C-BE4C-BCC40DA4FD78";
name = "4 Dec 24 at 21:50";
shapes = (
{
closed = 1;
nodes = (
(270,0,l),
(270,713,l),
(144,713,l),
(456,0,l),
(543,0,l),
(855,713,l),
(729,713,l),
(729,0,l),
(969,0,l),
(969,760,l),
(671,760,l),
(485,336,l),
(514,336,l),
(328,760,l),
(40,760,l),
(40,0,l)
);
}
);
width = 1009;
},
{
anchors = (
{
name = bottom;
pos = (481,0);
},
{
name = top;
pos = (486,760);
}
);
associatedMasterId = "7F4E18E3-41A5-4521-AA8A-AE39B7B68B38";
background = {
shapes = (
{
closed = 1;
nodes = (
(722,-16,o),
(888,147,o),
(888,380,cs),
(888,613,o),
(722,776,o),
(485,776,cs),
(248,776,o),
(82,613,o),
(82,380,cs),
(82,147,o),
(248,-16,o),
(485,-16,cs)
);
},
{
closed = 1;
nodes = (
(382,184,o),
(317,260,o),
(317,380,cs),
(317,500,o),
(382,576,o),
(485,576,cs),
(588,576,o),
(653,500,o),
(653,380,cs),
(653,260,o),
(588,184,o),
(485,184,cs)
);
}
);
};
guides = (
{
angle = 90;
pos = (486,528);
}
);
layerId = "89F884B8-F010-4094-A912-B373EA81EB13";
name = "8 Dec 24 at 22:23";
shapes = (
{
closed = 1;
nodes = (
(271,0,l),
(271,713,l),
(150,713,l),
(434,0,l),
(527,0,l),
(811,713,l),
(690,713,l),
(690,0,l),
(925,0,l),
(925,760,l),
(637,760,l),
(471,346,l),
(500,346,l),
(334,760,l),
(46,760,l),
(46,0,l)
);
}
);
width = 971;
},
{
anchors = (
{
name = bottom;
pos = (464,0);
},
{
name = top;
pos = (464,760);
}
);
associatedMasterId = "7F4E18E3-41A5-4521-AA8A-AE39B7B68B38";
background = {
shapes = (
{
closed = 1;
nodes = (
(222,0,l),
(222,480,l),
(424,-4,l),
(496,-4,l),
(698,480,l),
(698,0,l),
(884,0,l),
(884,760,l),
(658,760,l),
(464,302,l),
(269,760,l),
(43,760,l),
(43,0,l)
);
}
);
};
guides = (
{
angle = 90;
pos = (464,528);
}
);
layerId = "1261645B-D4AB-4DDD-B55D-DB77D684378C";
name = "12 Dec 24 at 15:57";
shapes = (
{
closed = 1;
nodes = (
(230,0,l),
(230,713,l),
(133,713,l),
(410,0,l),
(518,0,l),
(795,713,l),
(698,713,l),
(698,0,l),
(882,0,l),
(882,760,l),
(630,760,l),
(413,233,l),
(520,233,l),
(303,760,l),
(46,760,l),
(46,0,l)
);
}
);
width = 928;
},
{
anchors = (
{
name = bottom;
pos = (492,0);
},
{
name = top;
pos = (492,760);
}
);
associatedMasterId = "7F4E18E3-41A5-4521-AA8A-AE39B7B68B38";
background = {
shapes = (
{
closed = 1;
nodes = (
(250,0,l),
(250,480,l),
(452,-4,l),
(524,-4,l),
(726,480,l),
(726,0,l),
(912,0,l),
(912,760,l),
(686,760,l),
(492,302,l),
(297,760,l),
(71,760,l),
(71,0,l)
);
}
);
};
guides = (
{
angle = 90;
pos = (492,528);
}
);
layerId = "0783D54E-E2CA-4E51-85B8-4E09882AF250";
name = "13 Dec 24 at 11:28";
shapes = (
{
closed = 1;
nodes = (
(244,0,l),
(244,713,l),
(151,713,l),
(438,0,l),
(546,0,l),
(833,713,l),
(740,713,l),
(740,0,l),
(920,0,l),
(920,760,l),
(675,760,l),
(462,233,l),
(528,233,l),
(314,760,l),
(64,760,l),
(64,0,l)
);
}
);
width = 984;
},
{
anchors = (
{
name = bottom;
pos = (510,0);
},
{
name = top;
pos = (510,760);
}
);
associatedMasterId = "7F4E18E3-41A5-4521-AA8A-AE39B7B68B38";
background = {
shapes = (
{
closed = 1;
nodes = (
(268,0,l),
(268,480,l),
(470,-4,l),
(542,-4,l),
(744,480,l),
(744,0,l),
(930,0,l),
(930,760,l),
(704,760,l),
(510,302,l),
(315,760,l),
(89,760,l),
(89,0,l)
);
}
);
};
guides = (
{
angle = 90;
pos = (510,528);
}
);
layerId = "4620C0AF-98FD-4D73-B2F0-3536010552BB";
name = "3 Feb 25 at 16:53";
shapes = (
{
closed = 1;
nodes = (
(252,0,l),
(252,713,l),
(159,713,l),
(456,0,l),
(564,0,l),
(861,713,l),
(768,713,l),
(768,0,l),
(948,0,l),
(948,760,l),
(703,760,l),
(480,233,l),
(546,233,l),
(322,760,l),
(72,760,l),
(72,0,l)
);
}
);
width = 1020;
},
{
anchors = (
{
name = bottom;
pos = (510,0);
},
{
name = top;
pos = (510,760);
}
);
associatedMasterId = "7F4E18E3-41A5-4521-AA8A-AE39B7B68B38";
background = {
shapes = (
{
closed = 1;
nodes = (
(268,0,l),
(268,480,l),
(470,-4,l),
(542,-4,l),
(744,480,l),
(744,0,l),
(930,0,l),
(930,760,l),
(704,760,l),
(510,302,l),
(315,760,l),
(89,760,l),
(89,0,l)
);
}
);
};
guides = (
{
angle = 90;
pos = (515,528);
}
);
layerId = "518F9713-F7BC-43E9-B975-52B25C91ECE7";
name = "2 Mar 25 at 18:12";
shapes = (
{
closed = 1;
nodes = (
(256,0,l),
(256,713,l),
(159,713,l),
(456,0,l),
(574,0,l),
(871,713,l),
(774,713,l),
(774,0,l),
(958,0,l),
(958,760,l),
(709,760,l),
(490,233,l),
(546,233,l),
(332,760,l),
(72,760,l),
(72,0,l)
);
}
);
width = 1030;
},
{
anchors = (
{
name = bottom;
pos = (515,0);
},
{
name = top;
pos = (515,760);
}
);
associatedMasterId = "7F4E18E3-41A5-4521-AA8A-AE39B7B68B38";
guides = (
{
angle = 90;
pos = (520,528);
}
);
layerId = "0D3A889E-BBE9-44E5-B03F-6C2F6EBCFD75";
name = "6 Mar 25 at 16:38";
shapes = (
{
closed = 1;
nodes = (
(256,0,l),
(256,713,l),
(114,713,l),
(458,0,l),
(582,0,l),
(926,713,l),
(784,713,l),
(784,0,l),
(968,0,l),
(968,760,l),
(774,760,l),
(505,243,l),
(541,243,l),
(277,760,l),
(72,760,l),
(72,0,l)
);
}
);
width = 1040;
},
{
anchors = (
{
name = bottom;
pos = (515,0);
},
{
name = top;
pos = (515,760);
}
);
associatedMasterId = "7F4E18E3-41A5-4521-AA8A-AE39B7B68B38";
guides = (
{
angle = 90;
pos = (520,528);
}
);
layerId = "8174BC23-A5DC-4E94-8C33-601D52D56ED1";
name = "16 Mar 25 at 19:02";
shapes = (
{
closed = 1;
nodes = (
(256,0,l),
(256,713,l),
(114,713,l),
(458,0,l),
(582,0,l),
(926,713,l),
(784,713,l),
(784,0,l),
(968,0,l),
(968,760,l),
(768,760,l),
(518,243,l),
(541,243,l),
(277,760,l),
(72,760,l),
(72,0,l)
);
}
);
width = 1040;
},
{
anchors = (
{
name = bottom;
pos = (510,0);
},
{
name = top;
pos = (510,760);
}
);
associatedMasterId = "7F4E18E3-41A5-4521-AA8A-AE39B7B68B38";
guides = (
{
angle = 90;
pos = (515,528);
}
);
layerId = "A0465F82-4E64-4626-AA5C-F4271712C2C5";
name = "26 Dec 25 at 17:32";
shapes = (
{
closed = 1;
nodes = (
(256,0,l),
(256,713,l),
(106,713,l),
(453,0,l),
(577,0,l),
(924,713,l),
(774,713,l),
(774,0,l),
(958,0,l),
(958,760,l),
(765,760,l),
(512,237,l),
(537,237,l),
(270,760,l),
(72,760,l),
(72,0,l)
);
}
);
width = 1030;
},
{
anchors = (
{
name = bottom;
pos = (510,0);
},
{
name = top;
pos = (510,760);
}
);
guides = (
{
angle = 90;
pos = (515,528);
}
);
layerId = "7F4E18E3-41A5-4521-AA8A-AE39B7B68B38";
name = ExtraBold;
shapes = (
{
closed = 1;
nodes = (
(256,0,l),
(256,713,l),
(115,713,l),
(462,0,l),
(568,0,l),
(915,713,l),
(774,713,l),
(774,0,l),
(958,0,l),
(958,760,l),
(756,760,l),
(503,237,l),
(546,237,l),
(279,760,l),
(72,760,l),
(72,0,l)
);
}
);
width = 1030;
}
);
metricLeft = "=H";
metricRight = "=H";
unicode = 77;
},
{
glyphname = Mturned;
lastChange = "2026-06-14 22:20:33 +0000";
layers = (
{
layerId = m01;
shapes = (
{
closed = 1;
nodes = (
(422,-16,o),
(502,45,o),
(534,149,c),
(515,152,l),
(535,43,o),
(604,-16,o),
(714,-16,cs),
(818,-16,o),
(894,37,o),
(929,130,c),
(914,146,l),
(921,0,l),
(968,0,l),
(968,760,l),
(914,760,l),
(914,250,ls),
(914,117,o),
(837,33,o),
(714,33,cs),
(617,33,o),
(563,100,o),
(563,220,cs),
(563,760,l),
(509,760,l),
(509,250,ls),
(509,117,o),
(432,33,o),
(309,33,cs),
(212,33,o),
(158,100,o),
(158,220,cs),
(158,760,l),
(104,760,l),
(104,220,ls),
(104,69,o),
(178,-16,o),
(309,-16,cs)
);
}
);
width = 1072;
},
{
layerId = "7F4E18E3-41A5-4521-AA8A-AE39B7B68B38";
shapes = (
{
closed = 1;
nodes = (
(396,-16,o),
(465,32,o),
(496,124,c),
(472,125,l),
(502,32,o),
(571,-16,o),
(675,-16,cs),
(769,-16,o),
(831,27,o),
(862,110,c),
(835,124,l),
(876,0,l),
(1026,0,l),
(1026,760,l),
(842,760,l),
(842,287,ls),
(842,195,o),
(806,149,o),
(734,149,cs),
(667,149,o),
(641,185,o),
(641,278,cs),
(641,760,l),
(457,760,l),
(457,287,ls),
(457,195,o),
(421,149,o),
(349,149,cs),
(282,149,o),
(256,185,o),
(256,278,cs),
(256,760,l),
(72,760,l),
(72,236,ls),
(72,74,o),
(150,-16,o),
(290,-16,cs)
);
}
);
width = 1098;
},
{
associatedMasterId = m01;
layerId = "92451A83-9569-4E65-AFC5-DBD445837070";
name = "1 Jun 26 at 15:41";
shapes = (
{
closed = 1;
nodes = (
(455,-16,o),
(547,87,o),
(547,250,c),
(509,250,l),
(509,117,o),
(432,33,o),
(309,33,cs),
(212,33,o),
(158,100,o),
(158,220,cs),
(158,760,l),
(104,760,l),
(104,220,ls),
(104,69,o),
(178,-16,o),
(309,-16,cs)
);
},
{
closed = 1;
nodes = (
(858,-16,o),
(949,87,o),
(949,250,c),
(914,250,l),
(914,117,o),
(837,33,o),
(714,33,cs),
(617,33,o),
(563,100,o),
(563,220,cs),
(563,760,l),
(509,760,l),
(509,220,ls),
(509,69,o),
(583,-16,o),
(714,-16,cs)
);
},
{
closed = 1;
nodes = (
(968,0,l),
(968,760,l),
(914,760,l),
(914,143,l),
(921,0,l)
);
}
);
width = 1072;
},
{
associatedMasterId = "7F4E18E3-41A5-4521-AA8A-AE39B7B68B38";
layerId = "85FA2A1F-E471-4B09-BC88-BC195701FD97";
name = "1 Jun 26 at 15:41";
shapes = (
{
closed = 1;
nodes = (
(442,-16,o),
(517,81,o),
(517,277,c),
(457,287,l),
(457,195,o),
(421,149,o),
(349,149,cs),
(282,149,o),
(256,185,o),
(256,278,cs),
(256,760,l),
(72,760,l),
(72,236,ls),
(72,74,o),
(150,-16,o),
(290,-16,cs)
);
},
{
closed = 1;
nodes = (
(817,-16,o),
(887,81,o),
(887,277,c),
(842,287,l),
(842,195,o),
(806,149,o),
(734,149,cs),
(667,149,o),
(641,185,o),
(641,278,cs),
(641,760,l),
(457,760,l),
(457,236,ls),
(457,74,o),
(535,-16,o),
(675,-16,cs)
);
},
{
closed = 1;
nodes = (
(1026,0,l),
(1026,760,l),
(842,760,l),
(842,103,l),
(876,0,l)
);
}
);
width = 1098;
}
);
metricLeft = "=U";
metricRight = "=U";
unicode = 412;
},
{
glyphname = N;
kernLeft = KO_N;
kernRight = KO_H;
lastChange = "2026-06-14 22:20:33 +0000";
layers = (
{
anchors = (
{
name = bottom;
pos = (387,0);
},
{
name = top;
pos = (387,760);
}
);
layerId = m01;
shapes = (
{
closed = 1;
nodes = (
(158,0,l),
(158,713,l),
(124,713,l),
(617,0,l),
(669,0,l),
(669,760,l),
(615,760,l),
(615,47,l),
(648,47,l),
(155,760,l),
(104,760,l),
(104,0,l)
);
}
);
width = 773;
},
{
anchors = (
{
name = bottom;
pos = (394,0);
},
{
name = top;
pos = (394,760);
}
);
layerId = "7F4E18E3-41A5-4521-AA8A-AE39B7B68B38";
shapes = (
{
closed = 1;
nodes = (
(256,0,l),
(256,638,l),
(123,638,l),
(572,0,l),
(755,0,l),
(755,760,l),
(571,760,l),
(571,122,l),
(704,122,l),
(255,760,l),
(72,760,l),
(72,0,l)
);
}
);
width = 827;
},
{
associatedMasterId = m01;
backgroundImage = {
imagePath = "/var/folders/5k/6t5s5z6x64zbq6w952rby05w0000gn/T/TemporaryItems/NSIRD_screencaptureui_3by0HM/Screenshot 2024-11-20 at 3.06.23 pm.png";
locked = 1;
pos = (-36,-98);
scale = (4.6184,4.6184);
};
layerId = "5C24A42F-6AD3-4FC0-B06B-FA1505665D41";
name = "20 Nov 24 at 15:09";
shapes = (
{
closed = 1;
nodes = (
(97,0,l),
(97,653,l),
(66,653,l),
(489,0,l),
(571,0,l),
(571,700,l),
(517,700,l),
(517,47,l),
(548,47,l),
(125,700,l),
(43,700,l),
(43,0,l)
);
}
);
width = 600;
},
{
associatedMasterId = m01;
layerId = "CEBFCE95-75A8-4790-AB0C-D244FC4D052B";
name = "26 Nov 24 at 11:14";
shapes = (
{
closed = 1;
nodes = (
(133,0,l),
(133,713,l),
(102,713,l),
(564,0,l),
(615,0,l),
(615,760,l),
(562,760,l),
(562,47,l),
(593,47,l),
(131,760,l),
(80,760,l),
(80,0,l)
);
}
);
width = 695;
},
{
anchors = (
{
name = bottom;
pos = (386,0);
},
{
name = top;
pos = (386,760);
}
);
associatedMasterId = "7F4E18E3-41A5-4521-AA8A-AE39B7B68B38";
layerId = "C9C92F20-6BC9-4AEA-8EDF-32C8A975BC99";
name = "30 Nov 24 at 11:44";
shapes = (
{
closed = 1;
nodes = (
(270,0,l),
(270,638,l),
(77,638,l),
(520,0,l),
(732,0,l),
(732,760,l),
(502,760,l),
(502,122,l),
(695,122,l),
(252,760,l),
(40,760,l),
(40,0,l)
);
}
);
width = 772;
},
{
anchors = (
{
name = bottom;
pos = (396,0);
},
{
name = top;
pos = (396,760);
}
);
associatedMasterId = "7F4E18E3-41A5-4521-AA8A-AE39B7B68B38";
layerId = "8D4B2481-C102-4F54-ACA4-393518354C6B";
name = "2 Dec 24 at 11:52";
shapes = (
{
closed = 1;
nodes = (
(270,0,l),
(270,638,l),
(72,638,l),
(530,0,l),
(752,0,l),
(752,760,l),
(522,760,l),
(522,122,l),
(720,122,l),
(262,760,l),
(40,760,l),
(40,0,l)
);
}
);
width = 792;
},
{
anchors = (
{
name = bottom;
pos = (402,0);
},
{
name = top;
pos = (402,760);
}
);
associatedMasterId = "7F4E18E3-41A5-4521-AA8A-AE39B7B68B38";
layerId = "2A4A2BAC-BFDB-442E-88AA-62DA705A9999";
name = "8 Dec 24 at 22:20";
shapes = (
{
closed = 1;
nodes = (
(276,0,l),
(276,638,l),
(88,638,l),
(546,0,l),
(758,0,l),
(758,760,l),
(528,760,l),
(528,122,l),
(716,122,l),
(258,760,l),
(46,760,l),
(46,0,l)
);
}
);
width = 804;
},
{
anchors = (
{
name = bottom;
pos = (377,0);
},
{
name = top;
pos = (377,760);
}
);
associatedMasterId = "7F4E18E3-41A5-4521-AA8A-AE39B7B68B38";
background = {
shapes = (
{
closed = 1;
nodes = (
(243,0,l),
(243,452,l),
(564,0,l),
(733,0,l),
(733,760,l),
(550,760,l),
(550,308,l),
(229,760,l),
(60,760,l),
(60,0,l)
);
}
);
};
layerId = "9BF295B0-0243-4CF2-A377-058725A35AD7";
name = "12 Dec 24 at 15:57";
shapes = (
{
closed = 1;
nodes = (
(248,0,l),
(248,638,l),
(101,638,l),
(559,0,l),
(728,0,l),
(728,760,l),
(544,760,l),
(544,122,l),
(692,122,l),
(234,760,l),
(64,760,l),
(64,0,l)
);
}
);
width = 792;
},
{
anchors = (
{
name = bottom;
pos = (363,0);
},
{
name = top;
pos = (363,760);
}
);
associatedMasterId = m01;
layerId = "0E09A650-47E7-4B2F-8DA5-73DC744F3241";
name = "13 Dec 24 at 11:29";
shapes = (
{
closed = 1;
nodes = (
(133,0,l),
(133,713,l),
(102,713,l),
(594,0,l),
(645,0,l),
(645,760,l),
(592,760,l),
(592,47,l),
(623,47,l),
(131,760,l),
(80,760,l),
(80,0,l)
);
}
);
width = 725;
},
{
anchors = (
{
name = bottom;
pos = (397,0);
},
{
name = top;
pos = (397,760);
}
);
associatedMasterId = m01;
layerId = "F4A7019A-F33A-4979-8FCA-A32B061139DE";
name = "6 Mar 25 at 16:26";
shapes = (
{
closed = 1;
nodes = (
(158,0,l),
(158,713,l),
(125,713,l),
(637,0,l),
(689,0,l),
(689,760,l),
(635,760,l),
(635,47,l),
(667,47,l),
(155,760,l),
(104,760,l),
(104,0,l)
);
}
);
width = 793;
},
{
anchors = (
{
name = bottom;
pos = (399,0);
},
{
name = top;
pos = (399,760);
}
);
associatedMasterId = "7F4E18E3-41A5-4521-AA8A-AE39B7B68B38";
layerId = "F46273F3-30B6-4539-AE8E-6A6016F11186";
name = "6 Mar 25 at 16:27";
shapes = (
{
closed = 1;
nodes = (
(256,0,l),
(256,638,l),
(119,638,l),
(587,0,l),
(765,0,l),
(765,760,l),
(581,760,l),
(581,122,l),
(718,122,l),
(250,760,l),
(72,760,l),
(72,0,l)
);
}
);
width = 837;
}
);
metricLeft = "=H";
metricRight = "=H";
unicode = 78;
},
{
glyphname = Nhookleft;
kernRight = KO_H;
lastChange = "2026-06-14 22:20:33 +0000";
layers = (
{
layerId = m01;
shapes = (
{
closed = 1;
nodes = (
(-1,-240,l),
(114,-240,o),
(158,-188,o),
(158,-54,cs),
(158,713,l),
(124,713,l),
(617,0,l),
(669,0,l),
(669,760,l),
(615,760,l),
(615,47,l),
(648,47,l),
(155,760,l),
(104,760,l),
(104,-64,ls),
(104,-160,o),
(80,-192,o),
(9,-192,cs),
(-63,-192,l),
(-63,-240,l)
);
}
);
width = 773;
},
{
layerId = "7F4E18E3-41A5-4521-AA8A-AE39B7B68B38";
shapes = (
{
closed = 1;
nodes = (
(-23,-240,l),
(171,-240,o),
(256,-167,o),
(256,0,cs),
(256,638,l),
(123,638,l),
(572,0,l),
(755,0,l),
(755,760,l),
(571,760,l),
(571,122,l),
(704,122,l),
(255,760,l),
(72,760,l),
(72,-32,ls),
(72,-64,o),
(54,-82,o),
(23,-82,cs),
(-59,-82,l),
(-59,-240,l)
);
}
);
width = 827;
}
);
metricLeft = "=N@20";
metricRight = "=N";
unicode = 413;
},
{
glyphname = Nlongrightleg;
lastChange = "2026-06-14 22:20:33 +0000";
layers = (
{
layerId = m01;
shapes = (
{
closed = 1;
nodes = (
(713,-240,l),
(713,453,ls),
(713,669,o),
(623,776,o),
(440,776,cs),
(301,776,o),
(192,695,o),
(144,571,c),
(158,554,l),
(150,760,l),
(104,760,l),
(104,0,l),
(158,0,l),
(158,412,ls),
(158,597,o),
(274,727,o),
(440,727,cs),
(586,727,o),
(659,636,o),
(659,453,cs),
(659,-240,l)
);
}
);
width = 817;
},
{
layerId = "7F4E18E3-41A5-4521-AA8A-AE39B7B68B38";
shapes = (
{
closed = 1;
nodes = (
(738,-240,l),
(738,443,ls),
(738,657,o),
(647,777,o),
(483,777,cs),
(365,777,o),
(280,720,o),
(234,612,c),
(262,598,l),
(211,754,l),
(72,754,l),
(72,0,l),
(256,0,l),
(256,389,ls),
(256,515,o),
(318,603,o),
(407,603,cs),
(501,603,o),
(554,540,o),
(554,427,cs),
(554,-240,l)
);
}
);
width = 810;
},
{
associatedMasterId = m01;
layerId = "F8F19016-ED43-4736-91F0-05D50C73011C";
name = "1 Jun 26 at 15:42";
shapes = (
{
closed = 1;
nodes = (
(713,-240,l),
(713,453,ls),
(713,669,o),
(623,776,o),
(440,776,cs),
(250,776,o),
(116,626,o),
(116,412,c),
(158,412,l),
(158,597,o),
(274,727,o),
(440,727,cs),
(586,727,o),
(659,636,o),
(659,453,cs),
(659,-240,l)
);
},
{
closed = 1;
nodes = (
(158,0,l),
(158,558,l),
(150,760,l),
(104,760,l),
(104,0,l)
);
}
);
width = 817;
},
{
associatedMasterId = "7F4E18E3-41A5-4521-AA8A-AE39B7B68B38";
layerId = "93EC62B8-502E-4927-9605-9B0590977D93";
name = "1 Jun 26 at 15:42";
shapes = (
{
closed = 1;
nodes = (
(738,-240,l),
(738,443,ls),
(738,657,o),
(647,777,o),
(483,777,cs),
(299,777,o),
(196,638,o),
(196,389,c),
(256,389,l),
(256,515,o),
(318,603,o),
(407,603,cs),
(501,603,o),
(554,540,o),
(554,427,cs),
(554,-240,l)
);
},
{
closed = 1;
nodes = (
(256,0,l),
(256,618,l),
(211,754,l),
(72,754,l),
(72,0,l)
);
}
);
width = 810;
}
);
metricLeft = "=N";
metricRight = "=N";
unicode = 544;
},
{
glyphname = Eng;
kernLeft = KO_N;
kernRight = KO_H;
lastChange = "2026-06-14 22:20:33 +0000";
layers = (
{
anchors = (
{
name = bottom;
pos = (369,-240);
},
{
name = top;
pos = (369,760);
}
);
layerId = m01;
shapes = (
{
closed = 1;
nodes = (
(510,-240,l),
(625,-240,o),
(669,-188,o),
(669,-54,c),
(669,760,l),
(615,760,l),
(615,47,l),
(648,47,l),
(155,760,l),
(104,760,l),
(104,0,l),
(158,0,l),
(158,713,l),
(124,713,l),
(643,-37,l),
(617,45,l),
(617,-64,l),
(617,-160,o),
(593,-192,o),
(520,-192,cs),
(428,-192,l),
(428,-240,l)
);
}
);
width = 773;
},
{
anchors = (
{
name = bottom;
pos = (417,-240);
},
{
name = top;
pos = (417,760);
}
);
guides = (
{
angle = 90;
pos = (602,97);
}
);
layerId = "7F4E18E3-41A5-4521-AA8A-AE39B7B68B38";
shapes = (
{
closed = 1;
nodes = (
(476,-240,l),
(670,-240,o),
(755,-167,o),
(755,0,c),
(755,760,l),
(571,760,l),
(571,122,l),
(704,122,l),
(255,760,l),
(72,760,l),
(72,0,l),
(256,0,l),
(256,638,l),
(123,638,l),
(598,-37,l),
(572,45,l),
(572,-32,l),
(572,-64,o),
(554,-82,o),
(523,-82,cs),
(395,-82,l),
(395,-240,l)
);
}
);
width = 827;
},
{
associatedMasterId = "7F4E18E3-41A5-4521-AA8A-AE39B7B68B38";
guides = (
{
angle = 90;
pos = (522,160);
}
);
layerId = "289DF962-4F5D-45DE-9EB9-40FA6567A0EE";
name = "9 Dec 24 at 08:49";
shapes = (
{
closed = 1;
nodes = (
(420,-240,l),
(655,-240,o),
(758,-167,o),
(758,0,c),
(758,47,l),
(528,47,l),
(528,-10,l),
(528,-37,o),
(508,-50,o),
(469,-50,cs),
(359,-50,l),
(359,-240,l)
);
},
{
ref = N;
}
);
width = 792;
},
{
anchors = (
{
name = bottom;
pos = (377,0);
},
{
name = top;
pos = (377,760);
}
);
associatedMasterId = "7F4E18E3-41A5-4521-AA8A-AE39B7B68B38";
background = {
shapes = (
{
closed = 0;
nodes = (
(546,18,l),
(546,-7,ls),
(546,-50,o),
(502,-87,o),
(452,-87,qs),
(358,-87,l),
(358,-240,l),
(416,-240,ls),
(579,-240,o),
(728,-125,o),
(728,0,qs)
);
}
);
};
guides = (
{
angle = 90;
pos = (549,97);
}
);
layerId = "886FBF25-F1EA-4EEC-9D23-9B07D25EC5A1";
name = "13 Dec 24 at 11:30";
shapes = (
{
closed = 1;
nodes = (
(419,-240,l),
(642,-240,o),
(728,-173,o),
(728,0,c),
(728,47,l),
(549,47,l),
(549,-32,l),
(549,-64,o),
(531,-82,o),
(500,-82,cs),
(358,-82,l),
(358,-240,l)
);
},
{
closed = 1;
nodes = (
(244,0,l),
(244,638,l),
(111,638,l),
(569,0,l),
(728,0,l),
(728,760,l),
(548,760,l),
(548,122,l),
(682,122,l),
(224,760,l),
(64,760,l),
(64,0,l)
);
}
);
width = 792;
},
{
anchors = (
{
name = bottom;
pos = (377,0);
},
{
name = top;
pos = (377,760);
}
);
associatedMasterId = m01;
layerId = "9C5CAF14-253C-4EE4-A9A0-B52B7AD76372";
name = "20 Dec 24 at 14:55";
shapes = (
{
closed = 1;
nodes = (
(427,-240,l),
(595,-240,o),
(669,-167,o),
(669,0,c),
(669,68,l),
(619,68,l),
(619,0,l),
(619,-137,o),
(566,-190,o),
(427,-190,cs),
(378,-190,l),
(378,-240,l)
);
},
{
closed = 1;
nodes = (
(137,0,l),
(137,713,l),
(106,713,l),
(618,0,l),
(669,0,l),
(669,760,l),
(616,760,l),
(616,47,l),
(647,47,l),
(135,760,l),
(84,760,l),
(84,0,l)
);
}
);
width = 753;
},
{
anchors = (
{
name = bottom;
pos = (385,0);
},
{
name = top;
pos = (385,760);
}
);
associatedMasterId = "7F4E18E3-41A5-4521-AA8A-AE39B7B68B38";
background = {
shapes = (
{
closed = 0;
nodes = (
(554,18,l),
(554,-7,ls),
(554,-50,o),
(510,-87,o),
(460,-87,qs),
(366,-87,l),
(366,-240,l),
(424,-240,ls),
(587,-240,o),
(736,-125,o),
(736,0,qs)
);
}
);
};
guides = (
{
angle = 90;
pos = (557,97);
}
);
layerId = "3D403459-2F24-4FBF-B61F-9A36AB530D0E";
name = "22 Apr 26 at 13:11";
shapes = (
{
closed = 1;
nodes = (
(457,-240,l),
(651,-240,o),
(736,-167,o),
(736,0,c),
(736,47,l),
(557,47,l),
(557,-32,l),
(557,-64,o),
(539,-82,o),
(508,-82,cs),
(376,-82,l),
(376,-240,l)
);
},
{
closed = 1;
nodes = (
(252,0,l),
(252,638,l),
(119,638,l),
(577,0,l),
(736,0,l),
(736,760,l),
(556,760,l),
(556,122,l),
(690,122,l),
(232,760,l),
(72,760,l),
(72,0,l)
);
}
);
width = 808;
},
{
anchors = (
{
name = bottom;
pos = (411,0);
},
{
name = top;
pos = (411,760);
}
);
associatedMasterId = m01;
layerId = "9CCEDBD9-4DD4-4A85-B1B7-5A5193F8D9FC";
name = "10 Jun 26 at 18:01";
shapes = (
{
closed = 1;
nodes = (
(554,-240,ls),
(669,-240,o),
(713,-188,o),
(713,-54,cs),
(713,453,ls),
(713,669,o),
(623,776,o),
(440,776,cs),
(301,776,o),
(192,695,o),
(144,571,c),
(158,554,l),
(150,760,l),
(104,760,l),
(104,0,l),
(158,0,l),
(158,412,ls),
(158,597,o),
(274,727,o),
(440,727,cs),
(586,727,o),
(659,636,o),
(659,453,cs),
(659,-64,ls),
(659,-160,o),
(635,-192,o),
(564,-192,cs),
(472,-192,l),
(472,-240,l)
);
}
);
width = 817;
},
{
anchors = (
{
name = bottom;
pos = (430,0);
},
{
name = top;
pos = (430,760);
}
);
associatedMasterId = "7F4E18E3-41A5-4521-AA8A-AE39B7B68B38";
guides = (
{
angle = 90;
pos = (602,97);
}
);
layerId = "63D8FF05-B278-4C07-B0E6-75893E1F09A0";
name = "10 Jun 26 at 18:01";
shapes = (
{
closed = 1;
nodes = (
(459,-240,ls),
(653,-240,o),
(738,-167,o),
(738,0,cs),
(738,443,ls),
(738,657,o),
(647,777,o),
(483,777,cs),
(365,777,o),
(280,720,o),
(234,612,c),
(262,598,l),
(211,754,l),
(72,754,l),
(72,0,l),
(256,0,l),
(256,389,ls),
(256,515,o),
(318,603,o),
(407,603,cs),
(501,603,o),
(554,540,o),
(554,427,cs),
(554,-32,ls),
(554,-64,o),
(536,-82,o),
(505,-82,cs),
(377,-82,l),
(377,-240,l)
);
}
);
width = 810;
}
);
metricLeft = "=N";
metricRight = "=N";
unicode = 330;
},
{
glyphname = O;
kernLeft = KO_O;
kernRight = KO_D;
lastChange = "2026-06-14 22:20:33 +0000";
layers = (
{
anchors = (
{
name = bottom;
pos = (456,0);
},
{
name = center;
pos = (456,380);
},
{
name = ogonek;
pos = (571,0);
},
{
name = qtail;
pos = (458,0);
},
{
name = top;
pos = (456,760);
},
{
name = topleft;
pos = (44,760);
},
{
name = topright;
pos = (628,738);
}
);
guides = (
{
pos = (564,741);
},
{
pos = (102,380);
},
{
angle = 90;
pos = (456,8);
}
);
layerId = m01;
shapes = (
{
closed = 1;
nodes = (
(677,-16,o),
(832,147,o),
(832,380,cs),
(832,613,o),
(677,776,o),
(456,776,cs),
(235,776,o),
(80,613,o),
(80,380,cs),
(80,147,o),
(235,-16,o),
(456,-16,cs)
);
},
{
closed = 1;
nodes = (
(268,33,o),
(136,176,o),
(136,380,cs),
(136,584,o),
(268,727,o),
(456,727,cs),
(644,727,o),
(776,584,o),
(776,380,cs),
(776,176,o),
(644,33,o),
(456,33,cs)
);
}
);
width = 912;
},
{
anchors = (
{
name = bottom;
pos = (452,0);
},
{
name = center;
pos = (452,380);
},
{
name = ogonek;
pos = (576,0);
},
{
name = qtail;
pos = (457,0);
},
{
name = top;
pos = (452,760);
},
{
name = topleft;
pos = (44,760);
},
{
name = topright;
pos = (669,721);
}
);
guides = (
{
pos = (600,726);
},
{
pos = (148,380);
},
{
angle = 90;
pos = (452,64);
}
);
layerId = "7F4E18E3-41A5-4521-AA8A-AE39B7B68B38";
shapes = (
{
closed = 1;
nodes = (
(689,-16,o),
(855,147,o),
(855,380,cs),
(855,613,o),
(689,776,o),
(452,776,cs),
(215,776,o),
(49,613,o),
(49,380,cs),
(49,147,o),
(215,-16,o),
(452,-16,cs)
);
},
{
closed = 1;
nodes = (
(325,144,o),
(236,241,o),
(236,380,cs),
(236,519,o),
(325,616,o),
(452,616,cs),
(579,616,o),
(668,519,o),
(668,380,cs),
(668,241,o),
(579,144,o),
(452,144,cs)
);
}
);
width = 904;
},
{
associatedMasterId = m01;
layerId = "030D75A1-F628-4A93-944C-CCD77382870A";
name = "25 Nov 24 at 09:37";
shapes = (
{
closed = 1;
nodes = (
(610,-16,o),
(756,135,o),
(756,350,cs),
(756,565,o),
(610,716,o),
(403,716,cs),
(196,716,o),
(50,565,o),
(50,350,cs),
(50,135,o),
(196,-16,o),
(403,-16,cs)
);
},
{
closed = 1;
nodes = (
(228,34,o),
(105,164,o),
(105,350,cs),
(105,536,o),
(228,666,o),
(403,666,cs),
(578,666,o),
(701,536,o),
(701,350,cs),
(701,164,o),
(578,34,o),
(403,34,cs)
);
}
);
width = 806;
},
{
associatedMasterId = "7F4E18E3-41A5-4521-AA8A-AE39B7B68B38";
layerId = "C27CC0FD-FCCF-435B-BA31-6404B2F1255B";
name = "25 Nov 24 at 11:26";
shapes = (
{
closed = 1;
nodes = (
(627,-16,o),
(771,125,o),
(771,350,cs),
(771,575,o),
(627,716,o),
(398,716,cs),
(169,716,o),
(25,575,o),
(25,350,cs),
(25,125,o),
(169,-16,o),
(398,-16,cs)
);
},
{
closed = 1;
nodes = (
(317,164,o),
(260,241,o),
(260,350,cs),
(260,459,o),
(317,536,o),
(398,536,cs),
(479,536,o),
(536,459,o),
(536,350,cs),
(536,241,o),
(479,164,o),
(398,164,cs)
);
}
);
width = 796;
},
{
anchors = (
{
name = bottom;
pos = (428,0);
},
{
name = center;
pos = (428,380);
},
{
name = ogonek;
pos = (770,10);
},
{
name = top;
pos = (428,760);
},
{
name = topleft;
pos = (20,760);
},
{
name = topright;
pos = (636,726);
}
);
associatedMasterId = "7F4E18E3-41A5-4521-AA8A-AE39B7B68B38";
guides = (
{
pos = (576,726);
}
);
layerId = "5805BCA3-1BCA-4B12-81F6-194A0ADB61BD";
name = "30 Nov 24 at 10:25";
shapes = (
{
closed = 1;
nodes = (
(665,-16,o),
(831,147,o),
(831,380,cs),
(831,613,o),
(665,776,o),
(428,776,cs),
(191,776,o),
(25,613,o),
(25,380,cs),
(25,147,o),
(191,-16,o),
(428,-16,cs)
);
},
{
closed = 1;
nodes = (
(325,164,o),
(260,247,o),
(260,380,cs),
(260,513,o),
(325,596,o),
(428,596,cs),
(531,596,o),
(596,513,o),
(596,380,cs),
(596,247,o),
(531,164,o),
(428,164,cs)
);
}
);
width = 856;
},
{
anchors = (
{
name = bottom;
pos = (436,0);
},
{
name = center;
pos = (436,380);
},
{
name = ogonek;
pos = (782,10);
},
{
name = qtail;
pos = (478,0);
},
{
name = top;
pos = (436,760);
},
{
name = topleft;
pos = (24,760);
},
{
name = topright;
pos = (604,741);
}
);
associatedMasterId = m01;
guides = (
{
pos = (544,741);
},
{
pos = (82,380);
},
{
angle = 90;
pos = (436,9);
}
);
layerId = "15BFAAD3-5017-40F8-9E13-54DCA2B6B1B9";
name = "19 Jan 25 at 15:36";
shapes = (
{
closed = 1;
nodes = (
(660,-16,o),
(818,147,o),
(818,380,cs),
(818,613,o),
(660,776,o),
(436,776,cs),
(212,776,o),
(54,613,o),
(54,380,cs),
(54,147,o),
(212,-16,o),
(436,-16,cs)
);
},
{
closed = 1;
nodes = (
(244,34,o),
(109,177,o),
(109,380,cs),
(109,583,o),
(244,726,o),
(436,726,cs),
(628,726,o),
(763,583,o),
(763,380,cs),
(763,177,o),
(628,34,o),
(436,34,cs)
);
}
);
width = 872;
},
{
anchors = (
{
name = bottom;
pos = (447,0);
},
{
name = center;
pos = (447,380);
},
{
name = ogonek;
pos = (789,10);
},
{
name = qtail;
pos = (586,0);
},
{
name = top;
pos = (447,760);
},
{
name = topleft;
pos = (39,760);
},
{
name = topright;
pos = (658,723);
}
);
associatedMasterId = "7F4E18E3-41A5-4521-AA8A-AE39B7B68B38";
guides = (
{
pos = (595,726);
},
{
pos = (143,380);
},
{
angle = 90;
pos = (447,64);
}
);
layerId = "92890D16-CC66-48A4-8812-1D886AD0822C";
name = "19 Jan 25 at 15:36";
shapes = (
{
closed = 1;
nodes = (
(681,-16,o),
(845,147,o),
(845,380,cs),
(845,613,o),
(681,776,o),
(447,776,cs),
(213,776,o),
(49,613,o),
(49,380,cs),
(49,147,o),
(213,-16,o),
(447,-16,cs)
);
},
{
closed = 1;
nodes = (
(317,144,o),
(236,235,o),
(236,380,cs),
(236,525,o),
(317,616,o),
(447,616,cs),
(577,616,o),
(658,525,o),
(658,380,cs),
(658,235,o),
(577,144,o),
(447,144,cs)
);
}
);
width = 894;
},
{
anchors = (
{
name = bottom;
pos = (436,0);
},
{
name = center;
pos = (436,380);
},
{
name = ogonek;
pos = (782,10);
},
{
name = qtail;
pos = (478,0);
},
{
name = top;
pos = (436,760);
},
{
name = topleft;
pos = (24,760);
},
{
name = topright;
pos = (604,741);
}
);
associatedMasterId = m01;
guides = (
{
pos = (544,741);
},
{
pos = (82,380);
},
{
angle = 90;
pos = (436,9);
}
);
layerId = "15EC8570-224E-4870-AB28-0CBB2CA1343E";
name = "19 Jan 25 at 15:38";
shapes = (
{
closed = 1;
nodes = (
(660,-16,o),
(818,147,o),
(818,380,cs),
(818,613,o),
(660,776,o),
(436,776,cs),
(212,776,o),
(54,613,o),
(54,380,cs),
(54,147,o),
(212,-16,o),
(436,-16,cs)
);
},
{
closed = 1;
nodes = (
(244,36,o),
(109,178,o),
(109,380,cs),
(109,582,o),
(244,724,o),
(436,724,cs),
(628,724,o),
(763,582,o),
(763,380,cs),
(763,178,o),
(628,36,o),
(436,36,cs)
);
}
);
width = 872;
},
{
anchors = (
{
name = bottom;
pos = (456,0);
},
{
name = center;
pos = (456,380);
},
{
name = ogonek;
pos = (802,10);
},
{
name = qtail;
pos = (498,0);
},
{
name = top;
pos = (456,760);
},
{
name = topleft;
pos = (44,760);
},
{
name = topright;
pos = (624,741);
}
);
associatedMasterId = m01;
guides = (
{
pos = (564,741);
},
{
pos = (102,380);
},
{
angle = 90;
pos = (456,9);
}
);
layerId = "1C20C4F0-96E0-40AE-B3F7-2FF52A597716";
name = "31 Jan 25 at 16:49";
shapes = (
{
closed = 1;
nodes = (
(677,-16,o),
(832,147,o),
(832,380,cs),
(832,613,o),
(677,776,o),
(456,776,cs),
(235,776,o),
(80,613,o),
(80,380,cs),
(80,147,o),
(235,-16,o),
(456,-16,cs)
);
},
{
closed = 1;
nodes = (
(268,36,o),
(135,178,o),
(135,380,cs),
(135,582,o),
(268,724,o),
(456,724,cs),
(644,724,o),
(777,582,o),
(777,380,cs),
(777,178,o),
(644,36,o),
(456,36,cs)
);
}
);
width = 912;
}
);
unicode = 79;
userData = {
KernOnName = O;
};
},
{
glyphname = OU;
lastChange = "2026-06-14 22:20:33 +0000";
layers = (
{
layerId = m01;
shapes = (
{
closed = 1;
nodes = (
(622,-16,o),
(752,79,o),
(752,230,cs),
(752,373,o),
(613,473,o),
(416,473,cs),
(219,473,o),
(80,373,o),
(80,230,cs),
(80,79,o),
(210,-16,o),
(416,-16,cs)
);
},
{
closed = 1;
nodes = (
(244,33,o),
(136,109,o),
(136,230,cs),
(136,351,o),
(244,427,o),
(416,427,cs),
(588,427,o),
(696,351,o),
(696,230,cs),
(696,109,o),
(588,33,o),
(416,33,cs)
);
},
{
closed = 1;
nodes = (
(612,431,o),
(698,501,o),
(698,660,cs),
(698,760,l),
(644,760,l),
(644,660,ls),
(644,532,o),
(575,476,o),
(416,476,cs),
(257,476,o),
(188,532,o),
(188,660,cs),
(188,760,l),
(134,760,l),
(134,660,ls),
(134,501,o),
(220,431,o),
(416,431,cs)
);
}
);
width = 832;
},
{
layerId = "7F4E18E3-41A5-4521-AA8A-AE39B7B68B38";
shapes = (
{
closed = 1;
nodes = (
(645,-16,o),
(775,83,o),
(775,260,cs),
(775,411,o),
(635,506,o),
(412,506,cs),
(189,506,o),
(49,411,o),
(49,260,cs),
(49,83,o),
(179,-16,o),
(412,-16,cs)
);
},
{
closed = 1;
nodes = (
(299,144,o),
(236,186,o),
(236,260,cs),
(236,334,o),
(299,376,o),
(412,376,cs),
(525,376,o),
(588,334,o),
(588,260,cs),
(588,186,o),
(525,144,o),
(412,144,cs)
);
},
{
closed = 1;
nodes = (
(631,406,o),
(727,491,o),
(727,685,cs),
(727,760,l),
(543,760,l),
(543,680,ls),
(543,580,o),
(503,536,o),
(412,536,cs),
(321,536,o),
(281,580,o),
(281,680,cs),
(281,760,l),
(97,760,l),
(97,685,ls),
(97,491,o),
(193,406,o),
(412,406,cs)
);
}
);
width = 824;
}
);
metricLeft = "=O";
metricRight = "=O";
unicode = 546;
},
{
glyphname = Obarred;
lastChange = "2026-06-14 22:20:33 +0000";
layers = (
{
layerId = m01;
shapes = (
{
closed = 1;
nodes = (
(677,-16,o),
(832,147,o),
(832,380,cs),
(832,613,o),
(677,776,o),
(456,776,cs),
(235,776,o),
(80,613,o),
(80,380,cs),
(80,147,o),
(235,-16,o),
(456,-16,cs)
);
},
{
closed = 1;
nodes = (
(268,33,o),
(136,176,o),
(136,380,cs),
(136,584,o),
(268,727,o),
(456,727,cs),
(644,727,o),
(776,584,o),
(776,380,cs),
(776,176,o),
(644,33,o),
(456,33,cs)
);
},
{
closed = 1;
nodes = (
(803,358,l),
(803,402,l),
(109,402,l),
(109,358,l)
);
}
);
width = 912;
},
{
layerId = "7F4E18E3-41A5-4521-AA8A-AE39B7B68B38";
shapes = (
{
closed = 1;
nodes = (
(689,-16,o),
(855,147,o),
(855,380,cs),
(855,613,o),
(689,776,o),
(452,776,cs),
(215,776,o),
(49,613,o),
(49,380,cs),
(49,147,o),
(215,-16,o),
(452,-16,cs)
);
},
{
closed = 1;
nodes = (
(325,144,o),
(236,241,o),
(236,380,cs),
(236,519,o),
(325,616,o),
(452,616,cs),
(579,616,o),
(668,519,o),
(668,380,cs),
(668,241,o),
(579,144,o),
(452,144,cs)
);
},
{
closed = 1;
nodes = (
(701,335,l),
(701,425,l),
(204,425,l),
(204,335,l)
);
}
);
width = 904;
}
);
metricLeft = "=O";
metricRight = "=O";
unicode = 415;
},
{
glyphname = "Omega-latin";
lastChange = "2026-06-14 22:20:33 +0000";
layers = (
{
layerId = m01;
shapes = (
{
closed = 1;
nodes = (
(436,-16,o),
(504,37,o),
(532,134,c),
(510,134,l),
(538,37,o),
(606,-16,o),
(706,-16,cs),
(855,-16,o),
(938,92,o),
(938,286,cs),
(938,574,ls),
(938,708,o),
(894,760,o),
(779,760,cs),
(718,760,l),
(718,710,l),
(789,710,ls),
(860,710,o),
(884,678,o),
(884,584,c),
(884,286,ls),
(884,123,o),
(820,32,o),
(706,32,cs),
(605,32,o),
(548,112,o),
(548,256,cs),
(548,436,l),
(494,436,l),
(494,256,ls),
(494,112,o),
(437,32,o),
(336,32,cs),
(222,32,o),
(158,123,o),
(158,286,cs),
(158,584,ls),
(158,678,o),
(182,710,o),
(253,710,cs),
(324,710,l),
(324,760,l),
(263,760,ls),
(148,760,o),
(104,708,o),
(104,574,cs),
(104,286,ls),
(104,92,o),
(187,-16,o),
(336,-16,cs)
);
}
);
width = 1042;
},
{
layerId = "7F4E18E3-41A5-4521-AA8A-AE39B7B68B38";
shapes = (
{
closed = 1;
nodes = (
(465,-16,o),
(529,28,o),
(562,108,c),
(534,108,l),
(567,28,o),
(631,-16,o),
(722,-16,cs),
(916,-16,o),
(1024,92,o),
(1024,286,cs),
(1024,506,ls),
(1024,676,o),
(938,760,o),
(764,760,cs),
(702,760,l),
(702,602,l),
(785,602,ls),
(825,602,o),
(840,584,o),
(840,537,cs),
(840,264,ls),
(840,187,o),
(802,144,o),
(735,144,cs),
(670,144,o),
(634,184,o),
(634,256,cs),
(634,406,l),
(462,406,l),
(462,256,ls),
(462,184,o),
(426,144,o),
(361,144,cs),
(294,144,o),
(256,187,o),
(256,264,cs),
(256,537,ls),
(256,584,o),
(271,602,o),
(311,602,cs),
(394,602,l),
(394,760,l),
(332,760,ls),
(158,760,o),
(72,676,o),
(72,506,cs),
(72,286,ls),
(72,92,o),
(180,-16,o),
(374,-16,cs)
);
}
);
width = 1096;
}
);
metricLeft = "=U";
metricRight = "=U";
unicode = 42934;
},
{
glyphname = OE;
kernLeft = KO_O;
kernRight = KO_E;
lastChange = "2026-06-14 22:20:33 +0000";
layers = (
{
layerId = m01;
shapes = (
{
closed = 1;
nodes = (
(1015,0,l),
(1015,50,l),
(616,50,l),
(616,377,l),
(932,377,l),
(932,427,l),
(616,427,l),
(616,710,l),
(1006,710,l),
(1006,760,l),
(462,760,l),
(227,760,o),
(80,613,o),
(80,380,cs),
(80,147,o),
(227,0,o),
(462,0,c)
);
},
{
closed = 1;
nodes = (
(261,50,o),
(135,177,o),
(135,380,cs),
(135,583,o),
(261,710,o),
(462,710,cs),
(563,710,l),
(563,50,l),
(462,50,ls)
);
}
);
width = 1098;
},
{
layerId = "7F4E18E3-41A5-4521-AA8A-AE39B7B68B38";
shapes = (
{
closed = 1;
nodes = (
(1053,0,l),
(1053,158,l),
(698,158,l),
(698,306,l),
(985,306,l),
(985,464,l),
(698,464,l),
(698,602,l),
(1044,602,l),
(1044,760,l),
(452,760,ls),
(204,760,o),
(49,613,o),
(49,380,cs),
(49,147,o),
(204,0,o),
(452,0,cs)
);
},
{
closed = 1;
nodes = (
(319,158,o),
(236,238,o),
(236,380,cs),
(236,522,o),
(319,602,o),
(468,602,cs),
(514,602,l),
(514,158,l),
(468,158,ls)
);
}
);
width = 1111;
},
{
associatedMasterId = "7F4E18E3-41A5-4521-AA8A-AE39B7B68B38";
layerId = "32CE441C-548A-4786-89AF-ACD05AD0D425";
name = "8 Dec 24 at 22:18";
shapes = (
{
closed = 1;
nodes = (
(630,0,l),
(630,190,l),
(480,190,ls),
(340,190,o),
(270,253,o),
(270,380,cs),
(270,507,o),
(340,570,o),
(480,570,cs),
(630,570,l),
(630,760,l),
(438,760,ls),
(190,760,o),
(35,613,o),
(35,380,cs),
(35,147,o),
(190,0,o),
(438,0,cs)
);
},
{
closed = 1;
nodes = (
(1071,0,l),
(1071,190,l),
(544,190,l),
(544,0,l)
);
},
{
closed = 1;
nodes = (
(749,0,l),
(749,760,l),
(519,760,l),
(519,0,l)
);
},
{
closed = 1;
nodes = (
(1008,290,l),
(1008,475,l),
(544,475,l),
(544,290,l)
);
},
{
closed = 1;
nodes = (
(1062,570,l),
(1062,760,l),
(544,760,l),
(544,570,l)
);
}
);
width = 1117;
},
{
associatedMasterId = m01;
layerId = "6CC7E928-C09F-4945-81EA-C456073420E6";
name = "1 Jun 26 at 15:49";
shapes = (
{
closed = 1;
nodes = (
(639,0,l),
(639,50,l),
(462,50,ls),
(261,50,o),
(135,177,o),
(135,380,cs),
(135,583,o),
(261,710,o),
(462,710,cs),
(639,710,l),
(639,760,l),
(462,760,ls),
(227,760,o),
(80,613,o),
(80,380,cs),
(80,147,o),
(227,0,o),
(462,0,cs)
);
},
{
closed = 1;
nodes = (
(1015,0,l),
(1015,50,l),
(588,50,l),
(588,0,l)
);
},
{
closed = 1;
nodes = (
(616,0,l),
(616,760,l),
(563,760,l),
(563,0,l)
);
},
{
closed = 1;
nodes = (
(932,377,l),
(932,427,l),
(588,427,l),
(588,377,l)
);
},
{
closed = 1;
nodes = (
(1006,710,l),
(1006,760,l),
(588,760,l),
(588,710,l)
);
}
);
width = 1098;
},
{
associatedMasterId = "7F4E18E3-41A5-4521-AA8A-AE39B7B68B38";
layerId = "EA856F54-0FB6-477A-A001-93CBDAB0DCE1";
name = "1 Jun 26 at 15:49";
shapes = (
{
closed = 1;
nodes = (
(644,0,l),
(644,158,l),
(468,158,ls),
(319,158,o),
(236,238,o),
(236,380,cs),
(236,522,o),
(319,602,o),
(468,602,cs),
(644,602,l),
(644,760,l),
(452,760,ls),
(204,760,o),
(49,613,o),
(49,380,cs),
(49,147,o),
(204,0,o),
(452,0,cs)
);
},
{
closed = 1;
nodes = (
(1053,0,l),
(1053,158,l),
(576,158,l),
(576,0,l)
);
},
{
closed = 1;
nodes = (
(698,0,l),
(698,760,l),
(514,760,l),
(514,0,l)
);
},
{
closed = 1;
nodes = (
(985,306,l),
(985,464,l),
(576,464,l),
(576,306,l)
);
},
{
closed = 1;
nodes = (
(1044,602,l),
(1044,760,l),
(576,760,l),
(576,602,l)
);
}
);
width = 1111;
}
);
metricLeft = "=O";
metricRight = "=E";
unicode = 338;
},
{
glyphname = P;
kernLeft = KO_N;
kernRight = KO_P;
lastChange = "2026-06-14 22:20:33 +0000";
layers = (
{
anchors = (
{
name = bottom;
pos = (329,0);
},
{
name = top;
pos = (329,760);
}
);
layerId = m01;
shapes = (
{
closed = 1;
nodes = (
(158,0,l),
(158,325,l),
(316,325,ls),
(477,325,o),
(578,409,o),
(578,543,cs),
(578,676,o),
(477,760,o),
(316,760,c),
(104,760,l),
(104,0,l)
);
},
{
closed = 1;
nodes = (
(158,711,l),
(316,711,ls),
(443,711,o),
(522,646,o),
(522,543,cs),
(522,439,o),
(443,374,o),
(316,374,cs),
(158,374,l)
);
}
);
width = 658;
},
{
anchors = (
{
name = bottom;
pos = (371,0);
},
{
name = top;
pos = (371,760);
}
);
guides = (
{
pos = (683,495);
}
);
layerId = "7F4E18E3-41A5-4521-AA8A-AE39B7B68B38";
shapes = (
{
closed = 1;
nodes = (
(256,0,l),
(256,230,l),
(379,230,ls),
(580,230,o),
(693,325,o),
(693,495,cs),
(693,665,o),
(580,760,o),
(379,760,c),
(72,760,l),
(72,0,l)
);
},
{
closed = 1;
nodes = (
(256,602,l),
(357,602,ls),
(453,602,o),
(506,564,o),
(506,495,cs),
(506,426,o),
(453,388,o),
(357,388,cs),
(256,388,l)
);
}
);
width = 742;
},
{
associatedMasterId = "7F4E18E3-41A5-4521-AA8A-AE39B7B68B38";
layerId = "88C01793-2A85-4229-AE46-23A3A2A4DE9C";
name = "25 Nov 24 at 11:47";
shapes = (
{
closed = 1;
nodes = (
(334,278,l),
(560,278,o),
(672,356,o),
(672,514,cs),
(672,672,o),
(560,750,o),
(334,750,cs),
(162,750,l),
(162,611,l),
(304,611,ls),
(389,611,o),
(437,576,o),
(437,514,cs),
(437,452,o),
(389,417,o),
(304,417,cs),
(162,417,l),
(162,278,l)
);
},
{
closed = 1;
nodes = (
(270,0,l),
(270,750,l),
(40,750,l),
(40,0,l)
);
}
);
width = 698;
},
{
associatedMasterId = m01;
layerId = "4560DCD8-F68C-420D-8D66-FD16DB05122E";
name = "26 Nov 24 at 09:58";
shapes = (
{
closed = 1;
nodes = (
(250,315,l),
(435,315,o),
(551,399,o),
(551,533,cs),
(551,666,o),
(435,750,o),
(250,750,cs),
(113,750,l),
(113,702,l),
(240,702,l),
(397,702,o),
(496,637,o),
(496,533,cs),
(496,429,o),
(397,363,o),
(240,363,cs),
(118,363,l),
(118,315,l)
);
},
{
closed = 1;
nodes = (
(133,0,l),
(133,750,l),
(80,750,l),
(80,0,l)
);
}
);
width = 601;
},
{
associatedMasterId = "7F4E18E3-41A5-4521-AA8A-AE39B7B68B38";
layerId = "5DFF9922-141E-4B80-AFB4-4F4FDE9C82CE";
name = "26 Nov 24 at 09:59";
shapes = (
{
closed = 1;
nodes = (
(354,258,l),
(571,258,o),
(692,346,o),
(692,504,cs),
(692,662,o),
(571,750,o),
(354,750,cs),
(182,750,l),
(182,601,l),
(324,601,ls),
(409,601,o),
(457,566,o),
(457,504,cs),
(457,442,o),
(409,407,o),
(324,407,cs),
(182,407,l),
(182,258,l)
);
},
{
closed = 1;
nodes = (
(270,0,l),
(270,750,l),
(40,750,l),
(40,0,l)
);
}
);
width = 717;
},
{
associatedMasterId = "7F4E18E3-41A5-4521-AA8A-AE39B7B68B38";
layerId = "79D571C1-57FF-4373-A310-7FDC80F4F1BB";
name = "30 Nov 24 at 10:27";
shapes = (
{
closed = 1;
nodes = (
(364,268,l),
(574,268,o),
(692,356,o),
(692,514,cs),
(692,672,o),
(574,760,o),
(364,760,cs),
(182,760,l),
(182,611,l),
(334,611,ls),
(416,611,o),
(457,579,o),
(457,514,cs),
(457,449,o),
(416,417,o),
(334,417,cs),
(182,417,l),
(182,268,l)
);
},
{
closed = 1;
nodes = (
(270,0,l),
(270,760,l),
(40,760,l),
(40,0,l)
);
}
);
width = 717;
},
{
associatedMasterId = "7F4E18E3-41A5-4521-AA8A-AE39B7B68B38";
guides = (
{
pos = (657,495);
}
);
layerId = "60BE51EA-A496-4946-990E-3B9E721DE783";
name = "8 Dec 24 at 19:25";
shapes = (
{
closed = 1;
nodes = (
(343,230,l),
(544,230,o),
(657,325,o),
(657,495,cs),
(657,665,o),
(544,760,o),
(343,760,cs),
(141,760,l),
(141,607,l),
(321,607,ls),
(417,607,o),
(470,567,o),
(470,495,cs),
(470,423,o),
(417,383,o),
(321,383,cs),
(141,383,l),
(141,230,l)
);
},
{
closed = 1;
nodes = (
(230,0,l),
(230,760,l),
(46,760,l),
(46,0,l)
);
}
);
width = 692;
},
{
associatedMasterId = m01;
layerId = "3504BEFD-7A2C-4C6F-89C9-6158B071D887";
name = "2 Feb 25 at 21:35";
shapes = (
{
closed = 1;
nodes = (
(294,325,l),
(454,325,o),
(555,409,o),
(555,543,cs),
(555,676,o),
(454,760,o),
(294,760,cs),
(117,760,l),
(117,710,l),
(294,710,l),
(421,710,o),
(500,646,o),
(500,543,cs),
(500,440,o),
(421,375,o),
(294,375,cs),
(122,375,l),
(122,325,l)
);
},
{
closed = 1;
nodes = (
(137,0,l),
(137,760,l),
(84,760,l),
(84,0,l)
);
}
);
width = 609;
},
{
anchors = (
{
name = bottom;
pos = (329,0);
},
{
name = top;
pos = (329,760);
}
);
associatedMasterId = m01;
layerId = "74B7BBB3-F9A1-4AFA-98F2-2BBC9EA4C288";
name = "1 Jun 26 at 15:57";
shapes = (
{
closed = 1;
nodes = (
(316,325,l),
(477,325,o),
(578,409,o),
(578,543,cs),
(578,676,o),
(477,760,o),
(316,760,cs),
(137,760,l),
(137,711,l),
(316,711,l),
(443,711,o),
(522,646,o),
(522,543,cs),
(522,439,o),
(443,374,o),
(316,374,cs),
(142,374,l),
(142,325,l)
);
},
{
closed = 1;
nodes = (
(158,0,l),
(158,760,l),
(104,760,l),
(104,0,l)
);
}
);
width = 658;
},
{
anchors = (
{
name = bottom;
pos = (371,0);
},
{
name = top;
pos = (371,760);
}
);
associatedMasterId = "7F4E18E3-41A5-4521-AA8A-AE39B7B68B38";
guides = (
{
pos = (683,495);
}
);
layerId = "77C817BC-2182-46AE-A28E-81CCA800DD1E";
name = "1 Jun 26 at 15:57";
shapes = (
{
closed = 1;
nodes = (
(379,230,l),
(580,230,o),
(693,325,o),
(693,495,cs),
(693,665,o),
(580,760,o),
(379,760,cs),
(167,760,l),
(167,602,l),
(357,602,ls),
(453,602,o),
(506,564,o),
(506,495,cs),
(506,426,o),
(453,388,o),
(357,388,cs),
(167,388,l),
(167,230,l)
);
},
{
closed = 1;
nodes = (
(256,0,l),
(256,760,l),
(72,760,l),
(72,0,l)
);
}
);
width = 742;
}
);
metricLeft = "=H";
metricRight = "=O";
unicode = 80;
},
{
glyphname = Phook;
lastChange = "2026-06-14 22:20:33 +0000";
layers = (
{
layerId = m01;
shapes = (
{
closed = 1;
nodes = (
(276,0,l),
(276,325,l),
(434,325,ls),
(595,325,o),
(696,409,o),
(696,543,cs),
(696,676,o),
(595,760,o),
(434,760,c),
(184,760,ls),
(103,760,o),
(58,724,o),
(58,660,cs),
(58,586,l),
(112,586,l),
(112,660,ls),
(112,696,o),
(134,712,o),
(184,712,cs),
(222,712,l),
(222,0,l)
);
},
{
closed = 1;
nodes = (
(276,711,l),
(434,711,ls),
(561,711,o),
(640,646,o),
(640,543,cs),
(640,439,o),
(561,374,o),
(434,374,cs),
(276,374,l)
);
}
);
width = 776;
},
{
layerId = "7F4E18E3-41A5-4521-AA8A-AE39B7B68B38";
shapes = (
{
closed = 1;
nodes = (
(454,0,l),
(454,230,l),
(577,230,ls),
(778,230,o),
(891,325,o),
(891,495,cs),
(891,665,o),
(778,760,o),
(577,760,c),
(258,760,ls),
(113,760,o),
(32,687,o),
(32,556,cs),
(32,488,l),
(193,488,l),
(193,542,ls),
(193,584,o),
(207,602,o),
(240,602,cs),
(270,602,l),
(270,0,l)
);
},
{
closed = 1;
nodes = (
(454,602,l),
(555,602,ls),
(651,602,o),
(704,564,o),
(704,495,cs),
(704,426,o),
(651,388,o),
(555,388,cs),
(454,388,l)
);
}
);
width = 940;
},
{
associatedMasterId = m01;
layerId = "21558C52-A4B3-40D2-A619-9AF078880556";
name = "1 Jun 26 at 15:57";
shapes = (
{
closed = 1;
nodes = (
(434,325,l),
(595,325,o),
(696,409,o),
(696,543,cs),
(696,676,o),
(595,760,o),
(434,760,cs),
(255,760,l),
(255,711,l),
(434,711,l),
(561,711,o),
(640,646,o),
(640,543,cs),
(640,439,o),
(561,374,o),
(434,374,cs),
(260,374,l),
(260,325,l)
);
},
{
closed = 1;
nodes = (
(276,0,l),
(276,760,l),
(222,760,l),
(222,0,l)
);
},
{
closed = 1;
nodes = (
(112,586,l),
(112,660,ls),
(112,696,o),
(134,712,o),
(184,712,cs),
(229,712,l),
(229,760,l),
(184,760,ls),
(103,760,o),
(58,724,o),
(58,660,cs),
(58,586,l)
);
}
);
width = 776;
},
{
associatedMasterId = "7F4E18E3-41A5-4521-AA8A-AE39B7B68B38";
layerId = "AB3D75AB-CE7D-4D4C-8CBE-C4463A3DC25E";
name = "1 Jun 26 at 15:57";
shapes = (
{
closed = 1;
nodes = (
(577,230,l),
(778,230,o),
(891,325,o),
(891,495,cs),
(891,665,o),
(778,760,o),
(577,760,cs),
(365,760,l),
(365,602,l),
(555,602,ls),
(651,602,o),
(704,564,o),
(704,495,cs),
(704,426,o),
(651,388,o),
(555,388,cs),
(365,388,l),
(365,230,l)
);
},
{
closed = 1;
nodes = (
(454,0,l),
(454,760,l),
(270,760,l),
(270,0,l)
);
},
{
closed = 1;
nodes = (
(193,488,l),
(193,542,ls),
(193,584,o),
(207,602,o),
(240,602,c),
(299,602,l),
(299,760,l),
(258,760,l),
(113,760,o),
(32,687,o),
(32,556,cs),
(32,488,l)
);
}
);
width = 940;
}
);
metricLeft = "=o";
metricRight = "=P";
unicode = 420;
},
{
glyphname = Thorn;
kernLeft = KO_N;
kernRight = KO_P;
lastChange = "2026-06-14 22:20:33 +0000";
layers = (
{
layerId = m01;
shapes = (
{
closed = 1;
nodes = (
(314,163,l),
(474,163,o),
(575,247,o),
(575,381,cs),
(575,514,o),
(474,598,o),
(314,598,cs),
(137,598,l),
(137,548,l),
(304,548,l),
(443,548,o),
(520,488,o),
(520,381,cs),
(520,273,o),
(443,213,o),
(304,213,cs),
(142,213,l),
(142,163,l)
);
},
{
closed = 1;
nodes = (
(157,0,l),
(157,760,l),
(104,760,l),
(104,0,l)
);
}
);
width = 655;
},
{
layerId = "7F4E18E3-41A5-4521-AA8A-AE39B7B68B38";
shapes = (
{
closed = 1;
nodes = (
(369,115,l),
(570,115,o),
(683,210,o),
(683,380,cs),
(683,550,o),
(570,645,o),
(369,645,cs),
(167,645,l),
(167,487,l),
(347,487,ls),
(443,487,o),
(496,449,o),
(496,380,cs),
(496,311,o),
(443,273,o),
(347,273,cs),
(167,273,l),
(167,115,l)
);
},
{
closed = 1;
nodes = (
(256,0,l),
(256,760,l),
(72,760,l),
(72,0,l)
);
}
);
width = 732;
}
);
metricLeft = "=P";
metricRight = "=P";
unicode = 222;
},
{
glyphname = Pstroke;
kernRight = KO_P;
lastChange = "2026-06-14 22:20:33 +0000";
layers = (
{
layerId = m01;
shapes = (
{
ref = P;
},
{
closed = 1;
nodes = (
(375,562,l),
(26,562,l),
(26,518,l),
(375,518,l)
);
}
);
width = 658;
},
{
layerId = "7F4E18E3-41A5-4521-AA8A-AE39B7B68B38";
shapes = (
{
ref = P;
},
{
closed = 1;
nodes = (
(414,541,l),
(-27,541,l),
(-27,451,l),
(414,451,l)
);
}
);
width = 742;
}
);
metricLeft = "=P@100";
metricRight = "=P";
unicode = 11363;
},
{
glyphname = Q;
kernLeft = KO_O;
kernRight = KO_D;
lastChange = "2026-06-14 22:20:33 +0000";
layers = (
{
layerId = "7F4E18E3-41A5-4521-AA8A-AE39B7B68B38";
shapes = (
{
ref = O;
},
{
pos = (-147,0);
ref = _tail.Q;
}
);
width = 904;
},
{
associatedMasterId = m01;
layerId = "C2E4F709-E7D6-4E19-967F-29468E11E070";
name = "30 Nov 24 at 10:32";
shapes = (
{
closed = 1;
nodes = (
(777,-121,l),
(777,-71,l),
(613,-71,ls),
(548,-71,o),
(521,-61,o),
(505,-30,cs),
(491,-4,l),
(431,-4,l),
(445,-34,ls),
(474,-95,o),
(524,-121,o),
(609,-121,cs)
);
},
{
ref = O;
}
);
width = 864;
},
{
guides = (
{
angle = 90;
pos = (432,-18);
}
);
layerId = m01;
name = Light;
shapes = (
{
ref = O;
},
{
pos = (341,0);
ref = _tail.Q;
}
);
width = 912;
},
{
associatedMasterId = m01;
guides = (
{
angle = 90;
pos = (432,-18);
}
);
layerId = "C16BC202-8743-407D-B6C0-C5EA5900EF7B";
name = "30 Nov 24 at 16:34";
shapes = (
{
closed = 1;
nodes = (
(689,-121,l),
(689,-71,l),
(525,-71,ls),
(476,-71,o),
(460,-59,o),
(460,-23,c),
(460,3,l),
(407,3,l),
(407,-27,ls),
(407,-92,o),
(442,-121,o),
(521,-121,cs)
);
},
{
ref = O;
}
);
width = 864;
},
{
associatedMasterId = "7F4E18E3-41A5-4521-AA8A-AE39B7B68B38";
layerId = "48362A79-2BC5-4996-91D9-087F3F67AFC6";
name = "8 Dec 24 at 22:35";
shapes = (
{
closed = 1;
nodes = (
(796,-217,l),
(796,-47,l),
(579,-47,ls),
(553,-47,o),
(543,-36,o),
(543,-7,cs),
(543,77,l),
(333,77,l),
(333,-15,ls),
(333,-150,o),
(399,-217,o),
(531,-217,cs)
);
},
{
ref = O;
}
);
width = 856;
}
);
metricLeft = "=O";
metricRight = "=O";
unicode = 81;
userData = {
KernOnName = Q;
};
},
{
glyphname = Qhooktail;
lastChange = "2026-06-14 22:20:33 +0000";
layers = (
{
layerId = m01;
shapes = (
{
closed = 1;
nodes = (
(600,-16,o),
(714,68,o),
(765,202,c),
(753,218,l),
(753,-54,ls),
(753,-188,o),
(797,-240,o),
(912,-240,cs),
(974,-240,l),
(974,-192,l),
(902,-192,ls),
(831,-192,o),
(807,-160,o),
(807,-64,cs),
(807,760,l),
(767,760,l),
(752,538,l),
(767,554,l),
(717,689,o),
(602,776,o),
(453,776,cs),
(234,776,o),
(80,613,o),
(80,381,cs),
(80,148,o),
(234,-16,o),
(453,-16,cs)
);
},
{
closed = 1;
nodes = (
(136,575,o),
(275,727,o),
(453,727,cs),
(629,727,o),
(753,589,o),
(753,392,cs),
(753,370,ls),
(753,172,o),
(629,33,o),
(453,33,cs),
(275,33,o),
(136,186,o),
(136,381,cs)
);
}
);
width = 911;
},
{
layerId = "7F4E18E3-41A5-4521-AA8A-AE39B7B68B38";
shapes = (
{
closed = 1;
nodes = (
(518,-16,o),
(599,31,o),
(653,119,c),
(635,138,l),
(635,0,ls),
(635,-167,o),
(720,-240,o),
(914,-240,cs),
(950,-240,l),
(950,-82,l),
(868,-82,ls),
(837,-82,o),
(819,-64,o),
(819,-32,cs),
(819,760,l),
(677,760,l),
(634,608,l),
(662,623,l),
(610,722,o),
(525,776,o),
(414,776,cs),
(200,776,o),
(49,613,o),
(49,380,cs),
(49,147,o),
(200,-16,o),
(414,-16,cs)
);
},
{
closed = 1;
nodes = (
(236,527,o),
(314,620,o),
(438,620,cs),
(554,620,o),
(635,522,o),
(635,383,cs),
(635,377,ls),
(635,238,o),
(554,140,o),
(438,140,cs),
(314,140,o),
(236,233,o),
(236,380,cs)
);
}
);
width = 891;
},
{
associatedMasterId = m01;
layerId = "A597F5A1-1404-4C43-B3F5-96375B49AA7C";
name = "1 Jun 26 at 15:58";
shapes = (
{
closed = 1;
nodes = (
(654,-16,o),
(795,143,o),
(795,370,c),
(753,370,l),
(753,172,o),
(629,33,o),
(453,33,cs),
(275,33,o),
(136,186,o),
(136,381,cs),
(136,575,o),
(275,727,o),
(453,727,cs),
(629,727,o),
(753,589,o),
(753,392,c),
(795,392,l),
(795,617,o),
(654,776,o),
(453,776,cs),
(234,776,o),
(80,613,o),
(80,381,cs),
(80,148,o),
(234,-16,o),
(453,-16,cs)
);
},
{
closed = 1;
nodes = (
(974,-240,l),
(974,-192,l),
(902,-192,ls),
(831,-192,o),
(807,-160,o),
(807,-64,cs),
(807,760,l),
(767,760,l),
(753,547,l),
(753,-54,ls),
(753,-188,o),
(797,-240,o),
(912,-240,c)
);
}
);
width = 911;
},
{
associatedMasterId = "7F4E18E3-41A5-4521-AA8A-AE39B7B68B38";
layerId = "F97C112D-047E-4F75-A905-B30C23DB6A8A";
name = "1 Jun 26 at 15:58";
shapes = (
{
closed = 1;
nodes = (
(598,-16,o),
(714,136,o),
(714,377,c),
(635,377,l),
(635,238,o),
(554,140,o),
(438,140,cs),
(314,140,o),
(236,233,o),
(236,380,cs),
(236,527,o),
(314,620,o),
(438,620,cs),
(554,620,o),
(635,522,o),
(635,383,c),
(714,383,l),
(714,624,o),
(598,776,o),
(414,776,cs),
(200,776,o),
(49,613,o),
(49,380,cs),
(49,147,o),
(200,-16,o),
(414,-16,cs)
);
},
{
closed = 1;
nodes = (
(950,-240,l),
(950,-82,l),
(868,-82,ls),
(837,-82,o),
(819,-64,o),
(819,-32,cs),
(819,760,l),
(677,760,l),
(635,613,l),
(635,0,ls),
(635,-167,o),
(720,-240,o),
(914,-240,c)
);
}
);
width = 891;
}
);
metricLeft = "=Q";
metricRight = "=H@10";
unicode = 586;
},
